G04 #@! TF.GenerationSoftware,KiCad,Pcbnew,(5.1.5)-3*
G04 #@! TF.CreationDate,2020-05-03T13:25:38+02:00*
G04 #@! TF.ProjectId,SPY_RECORDER-FBV010,5350595f-5245-4434-9f52-4445522d4642,v0.00*
G04 #@! TF.SameCoordinates,PX7d7a120PY7cfe0c0*
G04 #@! TF.FileFunction,Copper,L2,Bot*
G04 #@! TF.FilePolarity,Positive*
%FSLAX46Y46*%
G04 Gerber Fmt 4.6, Leading zero omitted, Abs format (unit mm)*
G04 Created by KiCad (PCBNEW (5.1.5)-3) date 2020-05-03 13:25:38*
%MOMM*%
%LPD*%
G04 APERTURE LIST*
%ADD10O,1.300000X0.800000*%
%ADD11C,0.100000*%
%ADD12R,0.850000X1.100000*%
%ADD13R,0.750000X1.100000*%
%ADD14R,1.170000X1.800000*%
%ADD15R,1.550000X1.350000*%
%ADD16R,1.200000X1.000000*%
%ADD17R,1.900000X1.350000*%
%ADD18C,1.378000*%
%ADD19R,1.378000X1.378000*%
%ADD20R,1.560000X0.650000*%
%ADD21R,0.650000X1.560000*%
%ADD22C,0.600000*%
%ADD23C,0.250000*%
%ADD24C,0.254000*%
G04 APERTURE END LIST*
D10*
X2032000Y11069000D03*
G04 #@! TA.AperFunction,ComponentPad*
D11*
G36*
X2501603Y12718037D02*
G01*
X2521018Y12715157D01*
X2540057Y12710388D01*
X2558537Y12703776D01*
X2576279Y12695384D01*
X2593114Y12685294D01*
X2608879Y12673602D01*
X2623421Y12660421D01*
X2636602Y12645879D01*
X2648294Y12630114D01*
X2658384Y12613279D01*
X2666776Y12595537D01*
X2673388Y12577057D01*
X2678157Y12558018D01*
X2681037Y12538603D01*
X2682000Y12519000D01*
X2682000Y12119000D01*
X2681037Y12099397D01*
X2678157Y12079982D01*
X2673388Y12060943D01*
X2666776Y12042463D01*
X2658384Y12024721D01*
X2648294Y12007886D01*
X2636602Y11992121D01*
X2623421Y11977579D01*
X2608879Y11964398D01*
X2593114Y11952706D01*
X2576279Y11942616D01*
X2558537Y11934224D01*
X2540057Y11927612D01*
X2521018Y11922843D01*
X2501603Y11919963D01*
X2482000Y11919000D01*
X1582000Y11919000D01*
X1562397Y11919963D01*
X1542982Y11922843D01*
X1523943Y11927612D01*
X1505463Y11934224D01*
X1487721Y11942616D01*
X1470886Y11952706D01*
X1455121Y11964398D01*
X1440579Y11977579D01*
X1427398Y11992121D01*
X1415706Y12007886D01*
X1405616Y12024721D01*
X1397224Y12042463D01*
X1390612Y12060943D01*
X1385843Y12079982D01*
X1382963Y12099397D01*
X1382000Y12119000D01*
X1382000Y12519000D01*
X1382963Y12538603D01*
X1385843Y12558018D01*
X1390612Y12577057D01*
X1397224Y12595537D01*
X1405616Y12613279D01*
X1415706Y12630114D01*
X1427398Y12645879D01*
X1440579Y12660421D01*
X1455121Y12673602D01*
X1470886Y12685294D01*
X1487721Y12695384D01*
X1505463Y12703776D01*
X1523943Y12710388D01*
X1542982Y12715157D01*
X1562397Y12718037D01*
X1582000Y12719000D01*
X2482000Y12719000D01*
X2501603Y12718037D01*
G37*
G04 #@! TD.AperFunction*
G04 #@! TA.AperFunction,SMDPad,CuDef*
G36*
X3896505Y25082796D02*
G01*
X3920773Y25079196D01*
X3944572Y25073235D01*
X3967671Y25064970D01*
X3989850Y25054480D01*
X4010893Y25041868D01*
X4030599Y25027253D01*
X4048777Y25010777D01*
X4065253Y24992599D01*
X4079868Y24972893D01*
X4092480Y24951850D01*
X4102970Y24929671D01*
X4111235Y24906572D01*
X4117196Y24882773D01*
X4120796Y24858505D01*
X4122000Y24834001D01*
X4122000Y23933999D01*
X4120796Y23909495D01*
X4117196Y23885227D01*
X4111235Y23861428D01*
X4102970Y23838329D01*
X4092480Y23816150D01*
X4079868Y23795107D01*
X4065253Y23775401D01*
X4048777Y23757223D01*
X4030599Y23740747D01*
X4010893Y23726132D01*
X3989850Y23713520D01*
X3967671Y23703030D01*
X3944572Y23694765D01*
X3920773Y23688804D01*
X3896505Y23685204D01*
X3872001Y23684000D01*
X3221999Y23684000D01*
X3197495Y23685204D01*
X3173227Y23688804D01*
X3149428Y23694765D01*
X3126329Y23703030D01*
X3104150Y23713520D01*
X3083107Y23726132D01*
X3063401Y23740747D01*
X3045223Y23757223D01*
X3028747Y23775401D01*
X3014132Y23795107D01*
X3001520Y23816150D01*
X2991030Y23838329D01*
X2982765Y23861428D01*
X2976804Y23885227D01*
X2973204Y23909495D01*
X2972000Y23933999D01*
X2972000Y24834001D01*
X2973204Y24858505D01*
X2976804Y24882773D01*
X2982765Y24906572D01*
X2991030Y24929671D01*
X3001520Y24951850D01*
X3014132Y24972893D01*
X3028747Y24992599D01*
X3045223Y25010777D01*
X3063401Y25027253D01*
X3083107Y25041868D01*
X3104150Y25054480D01*
X3126329Y25064970D01*
X3149428Y25073235D01*
X3173227Y25079196D01*
X3197495Y25082796D01*
X3221999Y25084000D01*
X3872001Y25084000D01*
X3896505Y25082796D01*
G37*
G04 #@! TD.AperFunction*
G04 #@! TA.AperFunction,SMDPad,CuDef*
G36*
X5946505Y25082796D02*
G01*
X5970773Y25079196D01*
X5994572Y25073235D01*
X6017671Y25064970D01*
X6039850Y25054480D01*
X6060893Y25041868D01*
X6080599Y25027253D01*
X6098777Y25010777D01*
X6115253Y24992599D01*
X6129868Y24972893D01*
X6142480Y24951850D01*
X6152970Y24929671D01*
X6161235Y24906572D01*
X6167196Y24882773D01*
X6170796Y24858505D01*
X6172000Y24834001D01*
X6172000Y23933999D01*
X6170796Y23909495D01*
X6167196Y23885227D01*
X6161235Y23861428D01*
X6152970Y23838329D01*
X6142480Y23816150D01*
X6129868Y23795107D01*
X6115253Y23775401D01*
X6098777Y23757223D01*
X6080599Y23740747D01*
X6060893Y23726132D01*
X6039850Y23713520D01*
X6017671Y23703030D01*
X5994572Y23694765D01*
X5970773Y23688804D01*
X5946505Y23685204D01*
X5922001Y23684000D01*
X5271999Y23684000D01*
X5247495Y23685204D01*
X5223227Y23688804D01*
X5199428Y23694765D01*
X5176329Y23703030D01*
X5154150Y23713520D01*
X5133107Y23726132D01*
X5113401Y23740747D01*
X5095223Y23757223D01*
X5078747Y23775401D01*
X5064132Y23795107D01*
X5051520Y23816150D01*
X5041030Y23838329D01*
X5032765Y23861428D01*
X5026804Y23885227D01*
X5023204Y23909495D01*
X5022000Y23933999D01*
X5022000Y24834001D01*
X5023204Y24858505D01*
X5026804Y24882773D01*
X5032765Y24906572D01*
X5041030Y24929671D01*
X5051520Y24951850D01*
X5064132Y24972893D01*
X5078747Y24992599D01*
X5095223Y25010777D01*
X5113401Y25027253D01*
X5133107Y25041868D01*
X5154150Y25054480D01*
X5176329Y25064970D01*
X5199428Y25073235D01*
X5223227Y25079196D01*
X5247495Y25082796D01*
X5271999Y25084000D01*
X5922001Y25084000D01*
X5946505Y25082796D01*
G37*
G04 #@! TD.AperFunction*
G04 #@! TA.AperFunction,SMDPad,CuDef*
G36*
X4522505Y17462796D02*
G01*
X4546773Y17459196D01*
X4570572Y17453235D01*
X4593671Y17444970D01*
X4615850Y17434480D01*
X4636893Y17421868D01*
X4656599Y17407253D01*
X4674777Y17390777D01*
X4691253Y17372599D01*
X4705868Y17352893D01*
X4718480Y17331850D01*
X4728970Y17309671D01*
X4737235Y17286572D01*
X4743196Y17262773D01*
X4746796Y17238505D01*
X4748000Y17214001D01*
X4748000Y16313999D01*
X4746796Y16289495D01*
X4743196Y16265227D01*
X4737235Y16241428D01*
X4728970Y16218329D01*
X4718480Y16196150D01*
X4705868Y16175107D01*
X4691253Y16155401D01*
X4674777Y16137223D01*
X4656599Y16120747D01*
X4636893Y16106132D01*
X4615850Y16093520D01*
X4593671Y16083030D01*
X4570572Y16074765D01*
X4546773Y16068804D01*
X4522505Y16065204D01*
X4498001Y16064000D01*
X3847999Y16064000D01*
X3823495Y16065204D01*
X3799227Y16068804D01*
X3775428Y16074765D01*
X3752329Y16083030D01*
X3730150Y16093520D01*
X3709107Y16106132D01*
X3689401Y16120747D01*
X3671223Y16137223D01*
X3654747Y16155401D01*
X3640132Y16175107D01*
X3627520Y16196150D01*
X3617030Y16218329D01*
X3608765Y16241428D01*
X3602804Y16265227D01*
X3599204Y16289495D01*
X3598000Y16313999D01*
X3598000Y17214001D01*
X3599204Y17238505D01*
X3602804Y17262773D01*
X3608765Y17286572D01*
X3617030Y17309671D01*
X3627520Y17331850D01*
X3640132Y17352893D01*
X3654747Y17372599D01*
X3671223Y17390777D01*
X3689401Y17407253D01*
X3709107Y17421868D01*
X3730150Y17434480D01*
X3752329Y17444970D01*
X3775428Y17453235D01*
X3799227Y17459196D01*
X3823495Y17462796D01*
X3847999Y17464000D01*
X4498001Y17464000D01*
X4522505Y17462796D01*
G37*
G04 #@! TD.AperFunction*
G04 #@! TA.AperFunction,SMDPad,CuDef*
G36*
X6572505Y17462796D02*
G01*
X6596773Y17459196D01*
X6620572Y17453235D01*
X6643671Y17444970D01*
X6665850Y17434480D01*
X6686893Y17421868D01*
X6706599Y17407253D01*
X6724777Y17390777D01*
X6741253Y17372599D01*
X6755868Y17352893D01*
X6768480Y17331850D01*
X6778970Y17309671D01*
X6787235Y17286572D01*
X6793196Y17262773D01*
X6796796Y17238505D01*
X6798000Y17214001D01*
X6798000Y16313999D01*
X6796796Y16289495D01*
X6793196Y16265227D01*
X6787235Y16241428D01*
X6778970Y16218329D01*
X6768480Y16196150D01*
X6755868Y16175107D01*
X6741253Y16155401D01*
X6724777Y16137223D01*
X6706599Y16120747D01*
X6686893Y16106132D01*
X6665850Y16093520D01*
X6643671Y16083030D01*
X6620572Y16074765D01*
X6596773Y16068804D01*
X6572505Y16065204D01*
X6548001Y16064000D01*
X5897999Y16064000D01*
X5873495Y16065204D01*
X5849227Y16068804D01*
X5825428Y16074765D01*
X5802329Y16083030D01*
X5780150Y16093520D01*
X5759107Y16106132D01*
X5739401Y16120747D01*
X5721223Y16137223D01*
X5704747Y16155401D01*
X5690132Y16175107D01*
X5677520Y16196150D01*
X5667030Y16218329D01*
X5658765Y16241428D01*
X5652804Y16265227D01*
X5649204Y16289495D01*
X5648000Y16313999D01*
X5648000Y17214001D01*
X5649204Y17238505D01*
X5652804Y17262773D01*
X5658765Y17286572D01*
X5667030Y17309671D01*
X5677520Y17331850D01*
X5690132Y17352893D01*
X5704747Y17372599D01*
X5721223Y17390777D01*
X5739401Y17407253D01*
X5759107Y17421868D01*
X5780150Y17434480D01*
X5802329Y17444970D01*
X5825428Y17453235D01*
X5849227Y17459196D01*
X5873495Y17462796D01*
X5897999Y17464000D01*
X6548001Y17464000D01*
X6572505Y17462796D01*
G37*
G04 #@! TD.AperFunction*
G04 #@! TA.AperFunction,SMDPad,CuDef*
G36*
X14952505Y19632796D02*
G01*
X14976773Y19629196D01*
X15000572Y19623235D01*
X15023671Y19614970D01*
X15045850Y19604480D01*
X15066893Y19591868D01*
X15086599Y19577253D01*
X15104777Y19560777D01*
X15121253Y19542599D01*
X15135868Y19522893D01*
X15148480Y19501850D01*
X15158970Y19479671D01*
X15167235Y19456572D01*
X15173196Y19432773D01*
X15176796Y19408505D01*
X15178000Y19384001D01*
X15178000Y18733999D01*
X15176796Y18709495D01*
X15173196Y18685227D01*
X15167235Y18661428D01*
X15158970Y18638329D01*
X15148480Y18616150D01*
X15135868Y18595107D01*
X15121253Y18575401D01*
X15104777Y18557223D01*
X15086599Y18540747D01*
X15066893Y18526132D01*
X15045850Y18513520D01*
X15023671Y18503030D01*
X15000572Y18494765D01*
X14976773Y18488804D01*
X14952505Y18485204D01*
X14928001Y18484000D01*
X14027999Y18484000D01*
X14003495Y18485204D01*
X13979227Y18488804D01*
X13955428Y18494765D01*
X13932329Y18503030D01*
X13910150Y18513520D01*
X13889107Y18526132D01*
X13869401Y18540747D01*
X13851223Y18557223D01*
X13834747Y18575401D01*
X13820132Y18595107D01*
X13807520Y18616150D01*
X13797030Y18638329D01*
X13788765Y18661428D01*
X13782804Y18685227D01*
X13779204Y18709495D01*
X13778000Y18733999D01*
X13778000Y19384001D01*
X13779204Y19408505D01*
X13782804Y19432773D01*
X13788765Y19456572D01*
X13797030Y19479671D01*
X13807520Y19501850D01*
X13820132Y19522893D01*
X13834747Y19542599D01*
X13851223Y19560777D01*
X13869401Y19577253D01*
X13889107Y19591868D01*
X13910150Y19604480D01*
X13932329Y19614970D01*
X13955428Y19623235D01*
X13979227Y19629196D01*
X14003495Y19632796D01*
X14027999Y19634000D01*
X14928001Y19634000D01*
X14952505Y19632796D01*
G37*
G04 #@! TD.AperFunction*
G04 #@! TA.AperFunction,SMDPad,CuDef*
G36*
X14952505Y17582796D02*
G01*
X14976773Y17579196D01*
X15000572Y17573235D01*
X15023671Y17564970D01*
X15045850Y17554480D01*
X15066893Y17541868D01*
X15086599Y17527253D01*
X15104777Y17510777D01*
X15121253Y17492599D01*
X15135868Y17472893D01*
X15148480Y17451850D01*
X15158970Y17429671D01*
X15167235Y17406572D01*
X15173196Y17382773D01*
X15176796Y17358505D01*
X15178000Y17334001D01*
X15178000Y16683999D01*
X15176796Y16659495D01*
X15173196Y16635227D01*
X15167235Y16611428D01*
X15158970Y16588329D01*
X15148480Y16566150D01*
X15135868Y16545107D01*
X15121253Y16525401D01*
X15104777Y16507223D01*
X15086599Y16490747D01*
X15066893Y16476132D01*
X15045850Y16463520D01*
X15023671Y16453030D01*
X15000572Y16444765D01*
X14976773Y16438804D01*
X14952505Y16435204D01*
X14928001Y16434000D01*
X14027999Y16434000D01*
X14003495Y16435204D01*
X13979227Y16438804D01*
X13955428Y16444765D01*
X13932329Y16453030D01*
X13910150Y16463520D01*
X13889107Y16476132D01*
X13869401Y16490747D01*
X13851223Y16507223D01*
X13834747Y16525401D01*
X13820132Y16545107D01*
X13807520Y16566150D01*
X13797030Y16588329D01*
X13788765Y16611428D01*
X13782804Y16635227D01*
X13779204Y16659495D01*
X13778000Y16683999D01*
X13778000Y17334001D01*
X13779204Y17358505D01*
X13782804Y17382773D01*
X13788765Y17406572D01*
X13797030Y17429671D01*
X13807520Y17451850D01*
X13820132Y17472893D01*
X13834747Y17492599D01*
X13851223Y17510777D01*
X13869401Y17527253D01*
X13889107Y17541868D01*
X13910150Y17554480D01*
X13932329Y17564970D01*
X13955428Y17573235D01*
X13979227Y17579196D01*
X14003495Y17582796D01*
X14027999Y17584000D01*
X14928001Y17584000D01*
X14952505Y17582796D01*
G37*
G04 #@! TD.AperFunction*
G04 #@! TA.AperFunction,SMDPad,CuDef*
G36*
X11777505Y27742796D02*
G01*
X11801773Y27739196D01*
X11825572Y27733235D01*
X11848671Y27724970D01*
X11870850Y27714480D01*
X11891893Y27701868D01*
X11911599Y27687253D01*
X11929777Y27670777D01*
X11946253Y27652599D01*
X11960868Y27632893D01*
X11973480Y27611850D01*
X11983970Y27589671D01*
X11992235Y27566572D01*
X11998196Y27542773D01*
X12001796Y27518505D01*
X12003000Y27494001D01*
X12003000Y26843999D01*
X12001796Y26819495D01*
X11998196Y26795227D01*
X11992235Y26771428D01*
X11983970Y26748329D01*
X11973480Y26726150D01*
X11960868Y26705107D01*
X11946253Y26685401D01*
X11929777Y26667223D01*
X11911599Y26650747D01*
X11891893Y26636132D01*
X11870850Y26623520D01*
X11848671Y26613030D01*
X11825572Y26604765D01*
X11801773Y26598804D01*
X11777505Y26595204D01*
X11753001Y26594000D01*
X10852999Y26594000D01*
X10828495Y26595204D01*
X10804227Y26598804D01*
X10780428Y26604765D01*
X10757329Y26613030D01*
X10735150Y26623520D01*
X10714107Y26636132D01*
X10694401Y26650747D01*
X10676223Y26667223D01*
X10659747Y26685401D01*
X10645132Y26705107D01*
X10632520Y26726150D01*
X10622030Y26748329D01*
X10613765Y26771428D01*
X10607804Y26795227D01*
X10604204Y26819495D01*
X10603000Y26843999D01*
X10603000Y27494001D01*
X10604204Y27518505D01*
X10607804Y27542773D01*
X10613765Y27566572D01*
X10622030Y27589671D01*
X10632520Y27611850D01*
X10645132Y27632893D01*
X10659747Y27652599D01*
X10676223Y27670777D01*
X10694401Y27687253D01*
X10714107Y27701868D01*
X10735150Y27714480D01*
X10757329Y27724970D01*
X10780428Y27733235D01*
X10804227Y27739196D01*
X10828495Y27742796D01*
X10852999Y27744000D01*
X11753001Y27744000D01*
X11777505Y27742796D01*
G37*
G04 #@! TD.AperFunction*
G04 #@! TA.AperFunction,SMDPad,CuDef*
G36*
X11777505Y29792796D02*
G01*
X11801773Y29789196D01*
X11825572Y29783235D01*
X11848671Y29774970D01*
X11870850Y29764480D01*
X11891893Y29751868D01*
X11911599Y29737253D01*
X11929777Y29720777D01*
X11946253Y29702599D01*
X11960868Y29682893D01*
X11973480Y29661850D01*
X11983970Y29639671D01*
X11992235Y29616572D01*
X11998196Y29592773D01*
X12001796Y29568505D01*
X12003000Y29544001D01*
X12003000Y28893999D01*
X12001796Y28869495D01*
X11998196Y28845227D01*
X11992235Y28821428D01*
X11983970Y28798329D01*
X11973480Y28776150D01*
X11960868Y28755107D01*
X11946253Y28735401D01*
X11929777Y28717223D01*
X11911599Y28700747D01*
X11891893Y28686132D01*
X11870850Y28673520D01*
X11848671Y28663030D01*
X11825572Y28654765D01*
X11801773Y28648804D01*
X11777505Y28645204D01*
X11753001Y28644000D01*
X10852999Y28644000D01*
X10828495Y28645204D01*
X10804227Y28648804D01*
X10780428Y28654765D01*
X10757329Y28663030D01*
X10735150Y28673520D01*
X10714107Y28686132D01*
X10694401Y28700747D01*
X10676223Y28717223D01*
X10659747Y28735401D01*
X10645132Y28755107D01*
X10632520Y28776150D01*
X10622030Y28798329D01*
X10613765Y28821428D01*
X10607804Y28845227D01*
X10604204Y28869495D01*
X10603000Y28893999D01*
X10603000Y29544001D01*
X10604204Y29568505D01*
X10607804Y29592773D01*
X10613765Y29616572D01*
X10622030Y29639671D01*
X10632520Y29661850D01*
X10645132Y29682893D01*
X10659747Y29702599D01*
X10676223Y29720777D01*
X10694401Y29737253D01*
X10714107Y29751868D01*
X10735150Y29764480D01*
X10757329Y29774970D01*
X10780428Y29783235D01*
X10804227Y29789196D01*
X10828495Y29792796D01*
X10852999Y29794000D01*
X11753001Y29794000D01*
X11777505Y29792796D01*
G37*
G04 #@! TD.AperFunction*
G04 #@! TA.AperFunction,SMDPad,CuDef*
G36*
X10507505Y24458796D02*
G01*
X10531773Y24455196D01*
X10555572Y24449235D01*
X10578671Y24440970D01*
X10600850Y24430480D01*
X10621893Y24417868D01*
X10641599Y24403253D01*
X10659777Y24386777D01*
X10676253Y24368599D01*
X10690868Y24348893D01*
X10703480Y24327850D01*
X10713970Y24305671D01*
X10722235Y24282572D01*
X10728196Y24258773D01*
X10731796Y24234505D01*
X10733000Y24210001D01*
X10733000Y23559999D01*
X10731796Y23535495D01*
X10728196Y23511227D01*
X10722235Y23487428D01*
X10713970Y23464329D01*
X10703480Y23442150D01*
X10690868Y23421107D01*
X10676253Y23401401D01*
X10659777Y23383223D01*
X10641599Y23366747D01*
X10621893Y23352132D01*
X10600850Y23339520D01*
X10578671Y23329030D01*
X10555572Y23320765D01*
X10531773Y23314804D01*
X10507505Y23311204D01*
X10483001Y23310000D01*
X9582999Y23310000D01*
X9558495Y23311204D01*
X9534227Y23314804D01*
X9510428Y23320765D01*
X9487329Y23329030D01*
X9465150Y23339520D01*
X9444107Y23352132D01*
X9424401Y23366747D01*
X9406223Y23383223D01*
X9389747Y23401401D01*
X9375132Y23421107D01*
X9362520Y23442150D01*
X9352030Y23464329D01*
X9343765Y23487428D01*
X9337804Y23511227D01*
X9334204Y23535495D01*
X9333000Y23559999D01*
X9333000Y24210001D01*
X9334204Y24234505D01*
X9337804Y24258773D01*
X9343765Y24282572D01*
X9352030Y24305671D01*
X9362520Y24327850D01*
X9375132Y24348893D01*
X9389747Y24368599D01*
X9406223Y24386777D01*
X9424401Y24403253D01*
X9444107Y24417868D01*
X9465150Y24430480D01*
X9487329Y24440970D01*
X9510428Y24449235D01*
X9534227Y24455196D01*
X9558495Y24458796D01*
X9582999Y24460000D01*
X10483001Y24460000D01*
X10507505Y24458796D01*
G37*
G04 #@! TD.AperFunction*
G04 #@! TA.AperFunction,SMDPad,CuDef*
G36*
X10507505Y22408796D02*
G01*
X10531773Y22405196D01*
X10555572Y22399235D01*
X10578671Y22390970D01*
X10600850Y22380480D01*
X10621893Y22367868D01*
X10641599Y22353253D01*
X10659777Y22336777D01*
X10676253Y22318599D01*
X10690868Y22298893D01*
X10703480Y22277850D01*
X10713970Y22255671D01*
X10722235Y22232572D01*
X10728196Y22208773D01*
X10731796Y22184505D01*
X10733000Y22160001D01*
X10733000Y21509999D01*
X10731796Y21485495D01*
X10728196Y21461227D01*
X10722235Y21437428D01*
X10713970Y21414329D01*
X10703480Y21392150D01*
X10690868Y21371107D01*
X10676253Y21351401D01*
X10659777Y21333223D01*
X10641599Y21316747D01*
X10621893Y21302132D01*
X10600850Y21289520D01*
X10578671Y21279030D01*
X10555572Y21270765D01*
X10531773Y21264804D01*
X10507505Y21261204D01*
X10483001Y21260000D01*
X9582999Y21260000D01*
X9558495Y21261204D01*
X9534227Y21264804D01*
X9510428Y21270765D01*
X9487329Y21279030D01*
X9465150Y21289520D01*
X9444107Y21302132D01*
X9424401Y21316747D01*
X9406223Y21333223D01*
X9389747Y21351401D01*
X9375132Y21371107D01*
X9362520Y21392150D01*
X9352030Y21414329D01*
X9343765Y21437428D01*
X9337804Y21461227D01*
X9334204Y21485495D01*
X9333000Y21509999D01*
X9333000Y22160001D01*
X9334204Y22184505D01*
X9337804Y22208773D01*
X9343765Y22232572D01*
X9352030Y22255671D01*
X9362520Y22277850D01*
X9375132Y22298893D01*
X9389747Y22318599D01*
X9406223Y22336777D01*
X9424401Y22353253D01*
X9444107Y22367868D01*
X9465150Y22380480D01*
X9487329Y22390970D01*
X9510428Y22399235D01*
X9534227Y22405196D01*
X9558495Y22408796D01*
X9582999Y22410000D01*
X10483001Y22410000D01*
X10507505Y22408796D01*
G37*
G04 #@! TD.AperFunction*
D12*
X16948000Y58409000D03*
D13*
X9298000Y58409000D03*
D12*
X15848000Y58409000D03*
X14748000Y58409000D03*
X13648000Y58409000D03*
X12548000Y58409000D03*
X11448000Y58409000D03*
X10348000Y58409000D03*
D14*
X8088000Y58059000D03*
D15*
X19408000Y58284000D03*
D16*
X19583000Y48559000D03*
X19583000Y52259000D03*
D17*
X16083000Y47584000D03*
X10113000Y47584000D03*
D18*
X20098000Y11684000D03*
D19*
X20098000Y9144000D03*
G04 #@! TA.AperFunction,SMDPad,CuDef*
D11*
G36*
X11777505Y19632796D02*
G01*
X11801773Y19629196D01*
X11825572Y19623235D01*
X11848671Y19614970D01*
X11870850Y19604480D01*
X11891893Y19591868D01*
X11911599Y19577253D01*
X11929777Y19560777D01*
X11946253Y19542599D01*
X11960868Y19522893D01*
X11973480Y19501850D01*
X11983970Y19479671D01*
X11992235Y19456572D01*
X11998196Y19432773D01*
X12001796Y19408505D01*
X12003000Y19384001D01*
X12003000Y18733999D01*
X12001796Y18709495D01*
X11998196Y18685227D01*
X11992235Y18661428D01*
X11983970Y18638329D01*
X11973480Y18616150D01*
X11960868Y18595107D01*
X11946253Y18575401D01*
X11929777Y18557223D01*
X11911599Y18540747D01*
X11891893Y18526132D01*
X11870850Y18513520D01*
X11848671Y18503030D01*
X11825572Y18494765D01*
X11801773Y18488804D01*
X11777505Y18485204D01*
X11753001Y18484000D01*
X10852999Y18484000D01*
X10828495Y18485204D01*
X10804227Y18488804D01*
X10780428Y18494765D01*
X10757329Y18503030D01*
X10735150Y18513520D01*
X10714107Y18526132D01*
X10694401Y18540747D01*
X10676223Y18557223D01*
X10659747Y18575401D01*
X10645132Y18595107D01*
X10632520Y18616150D01*
X10622030Y18638329D01*
X10613765Y18661428D01*
X10607804Y18685227D01*
X10604204Y18709495D01*
X10603000Y18733999D01*
X10603000Y19384001D01*
X10604204Y19408505D01*
X10607804Y19432773D01*
X10613765Y19456572D01*
X10622030Y19479671D01*
X10632520Y19501850D01*
X10645132Y19522893D01*
X10659747Y19542599D01*
X10676223Y19560777D01*
X10694401Y19577253D01*
X10714107Y19591868D01*
X10735150Y19604480D01*
X10757329Y19614970D01*
X10780428Y19623235D01*
X10804227Y19629196D01*
X10828495Y19632796D01*
X10852999Y19634000D01*
X11753001Y19634000D01*
X11777505Y19632796D01*
G37*
G04 #@! TD.AperFunction*
G04 #@! TA.AperFunction,SMDPad,CuDef*
G36*
X11777505Y17582796D02*
G01*
X11801773Y17579196D01*
X11825572Y17573235D01*
X11848671Y17564970D01*
X11870850Y17554480D01*
X11891893Y17541868D01*
X11911599Y17527253D01*
X11929777Y17510777D01*
X11946253Y17492599D01*
X11960868Y17472893D01*
X11973480Y17451850D01*
X11983970Y17429671D01*
X11992235Y17406572D01*
X11998196Y17382773D01*
X12001796Y17358505D01*
X12003000Y17334001D01*
X12003000Y16683999D01*
X12001796Y16659495D01*
X11998196Y16635227D01*
X11992235Y16611428D01*
X11983970Y16588329D01*
X11973480Y16566150D01*
X11960868Y16545107D01*
X11946253Y16525401D01*
X11929777Y16507223D01*
X11911599Y16490747D01*
X11891893Y16476132D01*
X11870850Y16463520D01*
X11848671Y16453030D01*
X11825572Y16444765D01*
X11801773Y16438804D01*
X11777505Y16435204D01*
X11753001Y16434000D01*
X10852999Y16434000D01*
X10828495Y16435204D01*
X10804227Y16438804D01*
X10780428Y16444765D01*
X10757329Y16453030D01*
X10735150Y16463520D01*
X10714107Y16476132D01*
X10694401Y16490747D01*
X10676223Y16507223D01*
X10659747Y16525401D01*
X10645132Y16545107D01*
X10632520Y16566150D01*
X10622030Y16588329D01*
X10613765Y16611428D01*
X10607804Y16635227D01*
X10604204Y16659495D01*
X10603000Y16683999D01*
X10603000Y17334001D01*
X10604204Y17358505D01*
X10607804Y17382773D01*
X10613765Y17406572D01*
X10622030Y17429671D01*
X10632520Y17451850D01*
X10645132Y17472893D01*
X10659747Y17492599D01*
X10676223Y17510777D01*
X10694401Y17527253D01*
X10714107Y17541868D01*
X10735150Y17554480D01*
X10757329Y17564970D01*
X10780428Y17573235D01*
X10804227Y17579196D01*
X10828495Y17582796D01*
X10852999Y17584000D01*
X11753001Y17584000D01*
X11777505Y17582796D01*
G37*
G04 #@! TD.AperFunction*
G04 #@! TA.AperFunction,SMDPad,CuDef*
G36*
X18127505Y17582796D02*
G01*
X18151773Y17579196D01*
X18175572Y17573235D01*
X18198671Y17564970D01*
X18220850Y17554480D01*
X18241893Y17541868D01*
X18261599Y17527253D01*
X18279777Y17510777D01*
X18296253Y17492599D01*
X18310868Y17472893D01*
X18323480Y17451850D01*
X18333970Y17429671D01*
X18342235Y17406572D01*
X18348196Y17382773D01*
X18351796Y17358505D01*
X18353000Y17334001D01*
X18353000Y16683999D01*
X18351796Y16659495D01*
X18348196Y16635227D01*
X18342235Y16611428D01*
X18333970Y16588329D01*
X18323480Y16566150D01*
X18310868Y16545107D01*
X18296253Y16525401D01*
X18279777Y16507223D01*
X18261599Y16490747D01*
X18241893Y16476132D01*
X18220850Y16463520D01*
X18198671Y16453030D01*
X18175572Y16444765D01*
X18151773Y16438804D01*
X18127505Y16435204D01*
X18103001Y16434000D01*
X17202999Y16434000D01*
X17178495Y16435204D01*
X17154227Y16438804D01*
X17130428Y16444765D01*
X17107329Y16453030D01*
X17085150Y16463520D01*
X17064107Y16476132D01*
X17044401Y16490747D01*
X17026223Y16507223D01*
X17009747Y16525401D01*
X16995132Y16545107D01*
X16982520Y16566150D01*
X16972030Y16588329D01*
X16963765Y16611428D01*
X16957804Y16635227D01*
X16954204Y16659495D01*
X16953000Y16683999D01*
X16953000Y17334001D01*
X16954204Y17358505D01*
X16957804Y17382773D01*
X16963765Y17406572D01*
X16972030Y17429671D01*
X16982520Y17451850D01*
X16995132Y17472893D01*
X17009747Y17492599D01*
X17026223Y17510777D01*
X17044401Y17527253D01*
X17064107Y17541868D01*
X17085150Y17554480D01*
X17107329Y17564970D01*
X17130428Y17573235D01*
X17154227Y17579196D01*
X17178495Y17582796D01*
X17202999Y17584000D01*
X18103001Y17584000D01*
X18127505Y17582796D01*
G37*
G04 #@! TD.AperFunction*
G04 #@! TA.AperFunction,SMDPad,CuDef*
G36*
X18127505Y19632796D02*
G01*
X18151773Y19629196D01*
X18175572Y19623235D01*
X18198671Y19614970D01*
X18220850Y19604480D01*
X18241893Y19591868D01*
X18261599Y19577253D01*
X18279777Y19560777D01*
X18296253Y19542599D01*
X18310868Y19522893D01*
X18323480Y19501850D01*
X18333970Y19479671D01*
X18342235Y19456572D01*
X18348196Y19432773D01*
X18351796Y19408505D01*
X18353000Y19384001D01*
X18353000Y18733999D01*
X18351796Y18709495D01*
X18348196Y18685227D01*
X18342235Y18661428D01*
X18333970Y18638329D01*
X18323480Y18616150D01*
X18310868Y18595107D01*
X18296253Y18575401D01*
X18279777Y18557223D01*
X18261599Y18540747D01*
X18241893Y18526132D01*
X18220850Y18513520D01*
X18198671Y18503030D01*
X18175572Y18494765D01*
X18151773Y18488804D01*
X18127505Y18485204D01*
X18103001Y18484000D01*
X17202999Y18484000D01*
X17178495Y18485204D01*
X17154227Y18488804D01*
X17130428Y18494765D01*
X17107329Y18503030D01*
X17085150Y18513520D01*
X17064107Y18526132D01*
X17044401Y18540747D01*
X17026223Y18557223D01*
X17009747Y18575401D01*
X16995132Y18595107D01*
X16982520Y18616150D01*
X16972030Y18638329D01*
X16963765Y18661428D01*
X16957804Y18685227D01*
X16954204Y18709495D01*
X16953000Y18733999D01*
X16953000Y19384001D01*
X16954204Y19408505D01*
X16957804Y19432773D01*
X16963765Y19456572D01*
X16972030Y19479671D01*
X16982520Y19501850D01*
X16995132Y19522893D01*
X17009747Y19542599D01*
X17026223Y19560777D01*
X17044401Y19577253D01*
X17064107Y19591868D01*
X17085150Y19604480D01*
X17107329Y19614970D01*
X17130428Y19623235D01*
X17154227Y19629196D01*
X17178495Y19632796D01*
X17202999Y19634000D01*
X18103001Y19634000D01*
X18127505Y19632796D01*
G37*
G04 #@! TD.AperFunction*
G04 #@! TA.AperFunction,SMDPad,CuDef*
G36*
X18127505Y29792796D02*
G01*
X18151773Y29789196D01*
X18175572Y29783235D01*
X18198671Y29774970D01*
X18220850Y29764480D01*
X18241893Y29751868D01*
X18261599Y29737253D01*
X18279777Y29720777D01*
X18296253Y29702599D01*
X18310868Y29682893D01*
X18323480Y29661850D01*
X18333970Y29639671D01*
X18342235Y29616572D01*
X18348196Y29592773D01*
X18351796Y29568505D01*
X18353000Y29544001D01*
X18353000Y28893999D01*
X18351796Y28869495D01*
X18348196Y28845227D01*
X18342235Y28821428D01*
X18333970Y28798329D01*
X18323480Y28776150D01*
X18310868Y28755107D01*
X18296253Y28735401D01*
X18279777Y28717223D01*
X18261599Y28700747D01*
X18241893Y28686132D01*
X18220850Y28673520D01*
X18198671Y28663030D01*
X18175572Y28654765D01*
X18151773Y28648804D01*
X18127505Y28645204D01*
X18103001Y28644000D01*
X17202999Y28644000D01*
X17178495Y28645204D01*
X17154227Y28648804D01*
X17130428Y28654765D01*
X17107329Y28663030D01*
X17085150Y28673520D01*
X17064107Y28686132D01*
X17044401Y28700747D01*
X17026223Y28717223D01*
X17009747Y28735401D01*
X16995132Y28755107D01*
X16982520Y28776150D01*
X16972030Y28798329D01*
X16963765Y28821428D01*
X16957804Y28845227D01*
X16954204Y28869495D01*
X16953000Y28893999D01*
X16953000Y29544001D01*
X16954204Y29568505D01*
X16957804Y29592773D01*
X16963765Y29616572D01*
X16972030Y29639671D01*
X16982520Y29661850D01*
X16995132Y29682893D01*
X17009747Y29702599D01*
X17026223Y29720777D01*
X17044401Y29737253D01*
X17064107Y29751868D01*
X17085150Y29764480D01*
X17107329Y29774970D01*
X17130428Y29783235D01*
X17154227Y29789196D01*
X17178495Y29792796D01*
X17202999Y29794000D01*
X18103001Y29794000D01*
X18127505Y29792796D01*
G37*
G04 #@! TD.AperFunction*
G04 #@! TA.AperFunction,SMDPad,CuDef*
G36*
X18127505Y27742796D02*
G01*
X18151773Y27739196D01*
X18175572Y27733235D01*
X18198671Y27724970D01*
X18220850Y27714480D01*
X18241893Y27701868D01*
X18261599Y27687253D01*
X18279777Y27670777D01*
X18296253Y27652599D01*
X18310868Y27632893D01*
X18323480Y27611850D01*
X18333970Y27589671D01*
X18342235Y27566572D01*
X18348196Y27542773D01*
X18351796Y27518505D01*
X18353000Y27494001D01*
X18353000Y26843999D01*
X18351796Y26819495D01*
X18348196Y26795227D01*
X18342235Y26771428D01*
X18333970Y26748329D01*
X18323480Y26726150D01*
X18310868Y26705107D01*
X18296253Y26685401D01*
X18279777Y26667223D01*
X18261599Y26650747D01*
X18241893Y26636132D01*
X18220850Y26623520D01*
X18198671Y26613030D01*
X18175572Y26604765D01*
X18151773Y26598804D01*
X18127505Y26595204D01*
X18103001Y26594000D01*
X17202999Y26594000D01*
X17178495Y26595204D01*
X17154227Y26598804D01*
X17130428Y26604765D01*
X17107329Y26613030D01*
X17085150Y26623520D01*
X17064107Y26636132D01*
X17044401Y26650747D01*
X17026223Y26667223D01*
X17009747Y26685401D01*
X16995132Y26705107D01*
X16982520Y26726150D01*
X16972030Y26748329D01*
X16963765Y26771428D01*
X16957804Y26795227D01*
X16954204Y26819495D01*
X16953000Y26843999D01*
X16953000Y27494001D01*
X16954204Y27518505D01*
X16957804Y27542773D01*
X16963765Y27566572D01*
X16972030Y27589671D01*
X16982520Y27611850D01*
X16995132Y27632893D01*
X17009747Y27652599D01*
X17026223Y27670777D01*
X17044401Y27687253D01*
X17064107Y27701868D01*
X17085150Y27714480D01*
X17107329Y27724970D01*
X17130428Y27733235D01*
X17154227Y27739196D01*
X17178495Y27742796D01*
X17202999Y27744000D01*
X18103001Y27744000D01*
X18127505Y27742796D01*
G37*
G04 #@! TD.AperFunction*
G04 #@! TA.AperFunction,SMDPad,CuDef*
G36*
X14952505Y29792796D02*
G01*
X14976773Y29789196D01*
X15000572Y29783235D01*
X15023671Y29774970D01*
X15045850Y29764480D01*
X15066893Y29751868D01*
X15086599Y29737253D01*
X15104777Y29720777D01*
X15121253Y29702599D01*
X15135868Y29682893D01*
X15148480Y29661850D01*
X15158970Y29639671D01*
X15167235Y29616572D01*
X15173196Y29592773D01*
X15176796Y29568505D01*
X15178000Y29544001D01*
X15178000Y28893999D01*
X15176796Y28869495D01*
X15173196Y28845227D01*
X15167235Y28821428D01*
X15158970Y28798329D01*
X15148480Y28776150D01*
X15135868Y28755107D01*
X15121253Y28735401D01*
X15104777Y28717223D01*
X15086599Y28700747D01*
X15066893Y28686132D01*
X15045850Y28673520D01*
X15023671Y28663030D01*
X15000572Y28654765D01*
X14976773Y28648804D01*
X14952505Y28645204D01*
X14928001Y28644000D01*
X14027999Y28644000D01*
X14003495Y28645204D01*
X13979227Y28648804D01*
X13955428Y28654765D01*
X13932329Y28663030D01*
X13910150Y28673520D01*
X13889107Y28686132D01*
X13869401Y28700747D01*
X13851223Y28717223D01*
X13834747Y28735401D01*
X13820132Y28755107D01*
X13807520Y28776150D01*
X13797030Y28798329D01*
X13788765Y28821428D01*
X13782804Y28845227D01*
X13779204Y28869495D01*
X13778000Y28893999D01*
X13778000Y29544001D01*
X13779204Y29568505D01*
X13782804Y29592773D01*
X13788765Y29616572D01*
X13797030Y29639671D01*
X13807520Y29661850D01*
X13820132Y29682893D01*
X13834747Y29702599D01*
X13851223Y29720777D01*
X13869401Y29737253D01*
X13889107Y29751868D01*
X13910150Y29764480D01*
X13932329Y29774970D01*
X13955428Y29783235D01*
X13979227Y29789196D01*
X14003495Y29792796D01*
X14027999Y29794000D01*
X14928001Y29794000D01*
X14952505Y29792796D01*
G37*
G04 #@! TD.AperFunction*
G04 #@! TA.AperFunction,SMDPad,CuDef*
G36*
X14952505Y27742796D02*
G01*
X14976773Y27739196D01*
X15000572Y27733235D01*
X15023671Y27724970D01*
X15045850Y27714480D01*
X15066893Y27701868D01*
X15086599Y27687253D01*
X15104777Y27670777D01*
X15121253Y27652599D01*
X15135868Y27632893D01*
X15148480Y27611850D01*
X15158970Y27589671D01*
X15167235Y27566572D01*
X15173196Y27542773D01*
X15176796Y27518505D01*
X15178000Y27494001D01*
X15178000Y26843999D01*
X15176796Y26819495D01*
X15173196Y26795227D01*
X15167235Y26771428D01*
X15158970Y26748329D01*
X15148480Y26726150D01*
X15135868Y26705107D01*
X15121253Y26685401D01*
X15104777Y26667223D01*
X15086599Y26650747D01*
X15066893Y26636132D01*
X15045850Y26623520D01*
X15023671Y26613030D01*
X15000572Y26604765D01*
X14976773Y26598804D01*
X14952505Y26595204D01*
X14928001Y26594000D01*
X14027999Y26594000D01*
X14003495Y26595204D01*
X13979227Y26598804D01*
X13955428Y26604765D01*
X13932329Y26613030D01*
X13910150Y26623520D01*
X13889107Y26636132D01*
X13869401Y26650747D01*
X13851223Y26667223D01*
X13834747Y26685401D01*
X13820132Y26705107D01*
X13807520Y26726150D01*
X13797030Y26748329D01*
X13788765Y26771428D01*
X13782804Y26795227D01*
X13779204Y26819495D01*
X13778000Y26843999D01*
X13778000Y27494001D01*
X13779204Y27518505D01*
X13782804Y27542773D01*
X13788765Y27566572D01*
X13797030Y27589671D01*
X13807520Y27611850D01*
X13820132Y27632893D01*
X13834747Y27652599D01*
X13851223Y27670777D01*
X13869401Y27687253D01*
X13889107Y27701868D01*
X13910150Y27714480D01*
X13932329Y27724970D01*
X13955428Y27733235D01*
X13979227Y27739196D01*
X14003495Y27742796D01*
X14027999Y27744000D01*
X14928001Y27744000D01*
X14952505Y27742796D01*
G37*
G04 #@! TD.AperFunction*
G04 #@! TA.AperFunction,SMDPad,CuDef*
G36*
X18127505Y24458796D02*
G01*
X18151773Y24455196D01*
X18175572Y24449235D01*
X18198671Y24440970D01*
X18220850Y24430480D01*
X18241893Y24417868D01*
X18261599Y24403253D01*
X18279777Y24386777D01*
X18296253Y24368599D01*
X18310868Y24348893D01*
X18323480Y24327850D01*
X18333970Y24305671D01*
X18342235Y24282572D01*
X18348196Y24258773D01*
X18351796Y24234505D01*
X18353000Y24210001D01*
X18353000Y23559999D01*
X18351796Y23535495D01*
X18348196Y23511227D01*
X18342235Y23487428D01*
X18333970Y23464329D01*
X18323480Y23442150D01*
X18310868Y23421107D01*
X18296253Y23401401D01*
X18279777Y23383223D01*
X18261599Y23366747D01*
X18241893Y23352132D01*
X18220850Y23339520D01*
X18198671Y23329030D01*
X18175572Y23320765D01*
X18151773Y23314804D01*
X18127505Y23311204D01*
X18103001Y23310000D01*
X17202999Y23310000D01*
X17178495Y23311204D01*
X17154227Y23314804D01*
X17130428Y23320765D01*
X17107329Y23329030D01*
X17085150Y23339520D01*
X17064107Y23352132D01*
X17044401Y23366747D01*
X17026223Y23383223D01*
X17009747Y23401401D01*
X16995132Y23421107D01*
X16982520Y23442150D01*
X16972030Y23464329D01*
X16963765Y23487428D01*
X16957804Y23511227D01*
X16954204Y23535495D01*
X16953000Y23559999D01*
X16953000Y24210001D01*
X16954204Y24234505D01*
X16957804Y24258773D01*
X16963765Y24282572D01*
X16972030Y24305671D01*
X16982520Y24327850D01*
X16995132Y24348893D01*
X17009747Y24368599D01*
X17026223Y24386777D01*
X17044401Y24403253D01*
X17064107Y24417868D01*
X17085150Y24430480D01*
X17107329Y24440970D01*
X17130428Y24449235D01*
X17154227Y24455196D01*
X17178495Y24458796D01*
X17202999Y24460000D01*
X18103001Y24460000D01*
X18127505Y24458796D01*
G37*
G04 #@! TD.AperFunction*
G04 #@! TA.AperFunction,SMDPad,CuDef*
G36*
X18127505Y22408796D02*
G01*
X18151773Y22405196D01*
X18175572Y22399235D01*
X18198671Y22390970D01*
X18220850Y22380480D01*
X18241893Y22367868D01*
X18261599Y22353253D01*
X18279777Y22336777D01*
X18296253Y22318599D01*
X18310868Y22298893D01*
X18323480Y22277850D01*
X18333970Y22255671D01*
X18342235Y22232572D01*
X18348196Y22208773D01*
X18351796Y22184505D01*
X18353000Y22160001D01*
X18353000Y21509999D01*
X18351796Y21485495D01*
X18348196Y21461227D01*
X18342235Y21437428D01*
X18333970Y21414329D01*
X18323480Y21392150D01*
X18310868Y21371107D01*
X18296253Y21351401D01*
X18279777Y21333223D01*
X18261599Y21316747D01*
X18241893Y21302132D01*
X18220850Y21289520D01*
X18198671Y21279030D01*
X18175572Y21270765D01*
X18151773Y21264804D01*
X18127505Y21261204D01*
X18103001Y21260000D01*
X17202999Y21260000D01*
X17178495Y21261204D01*
X17154227Y21264804D01*
X17130428Y21270765D01*
X17107329Y21279030D01*
X17085150Y21289520D01*
X17064107Y21302132D01*
X17044401Y21316747D01*
X17026223Y21333223D01*
X17009747Y21351401D01*
X16995132Y21371107D01*
X16982520Y21392150D01*
X16972030Y21414329D01*
X16963765Y21437428D01*
X16957804Y21461227D01*
X16954204Y21485495D01*
X16953000Y21509999D01*
X16953000Y22160001D01*
X16954204Y22184505D01*
X16957804Y22208773D01*
X16963765Y22232572D01*
X16972030Y22255671D01*
X16982520Y22277850D01*
X16995132Y22298893D01*
X17009747Y22318599D01*
X17026223Y22336777D01*
X17044401Y22353253D01*
X17064107Y22367868D01*
X17085150Y22380480D01*
X17107329Y22390970D01*
X17130428Y22399235D01*
X17154227Y22405196D01*
X17178495Y22408796D01*
X17202999Y22410000D01*
X18103001Y22410000D01*
X18127505Y22408796D01*
G37*
G04 #@! TD.AperFunction*
D20*
X6303000Y19624000D03*
X6303000Y21524000D03*
X3603000Y21524000D03*
X3603000Y20574000D03*
X3603000Y19624000D03*
D21*
X12893000Y24464000D03*
X13843000Y24464000D03*
X14793000Y24464000D03*
X14793000Y21764000D03*
X12893000Y21764000D03*
G04 #@! TA.AperFunction,SMDPad,CuDef*
D11*
G36*
X9562703Y41133278D02*
G01*
X9577264Y41131118D01*
X9591543Y41127541D01*
X9605403Y41122582D01*
X9618710Y41116288D01*
X9631336Y41108720D01*
X9643159Y41099952D01*
X9654066Y41090066D01*
X9663952Y41079159D01*
X9672720Y41067336D01*
X9680288Y41054710D01*
X9686582Y41041403D01*
X9691541Y41027543D01*
X9695118Y41013264D01*
X9697278Y40998703D01*
X9698000Y40984000D01*
X9698000Y39684000D01*
X9697278Y39669297D01*
X9695118Y39654736D01*
X9691541Y39640457D01*
X9686582Y39626597D01*
X9680288Y39613290D01*
X9672720Y39600664D01*
X9663952Y39588841D01*
X9654066Y39577934D01*
X9643159Y39568048D01*
X9631336Y39559280D01*
X9618710Y39551712D01*
X9605403Y39545418D01*
X9591543Y39540459D01*
X9577264Y39536882D01*
X9562703Y39534722D01*
X9548000Y39534000D01*
X9248000Y39534000D01*
X9233297Y39534722D01*
X9218736Y39536882D01*
X9204457Y39540459D01*
X9190597Y39545418D01*
X9177290Y39551712D01*
X9164664Y39559280D01*
X9152841Y39568048D01*
X9141934Y39577934D01*
X9132048Y39588841D01*
X9123280Y39600664D01*
X9115712Y39613290D01*
X9109418Y39626597D01*
X9104459Y39640457D01*
X9100882Y39654736D01*
X9098722Y39669297D01*
X9098000Y39684000D01*
X9098000Y40984000D01*
X9098722Y40998703D01*
X9100882Y41013264D01*
X9104459Y41027543D01*
X9109418Y41041403D01*
X9115712Y41054710D01*
X9123280Y41067336D01*
X9132048Y41079159D01*
X9141934Y41090066D01*
X9152841Y41099952D01*
X9164664Y41108720D01*
X9177290Y41116288D01*
X9190597Y41122582D01*
X9204457Y41127541D01*
X9218736Y41131118D01*
X9233297Y41133278D01*
X9248000Y41134000D01*
X9548000Y41134000D01*
X9562703Y41133278D01*
G37*
G04 #@! TD.AperFunction*
G04 #@! TA.AperFunction,SMDPad,CuDef*
G36*
X10832703Y41133278D02*
G01*
X10847264Y41131118D01*
X10861543Y41127541D01*
X10875403Y41122582D01*
X10888710Y41116288D01*
X10901336Y41108720D01*
X10913159Y41099952D01*
X10924066Y41090066D01*
X10933952Y41079159D01*
X10942720Y41067336D01*
X10950288Y41054710D01*
X10956582Y41041403D01*
X10961541Y41027543D01*
X10965118Y41013264D01*
X10967278Y40998703D01*
X10968000Y40984000D01*
X10968000Y39684000D01*
X10967278Y39669297D01*
X10965118Y39654736D01*
X10961541Y39640457D01*
X10956582Y39626597D01*
X10950288Y39613290D01*
X10942720Y39600664D01*
X10933952Y39588841D01*
X10924066Y39577934D01*
X10913159Y39568048D01*
X10901336Y39559280D01*
X10888710Y39551712D01*
X10875403Y39545418D01*
X10861543Y39540459D01*
X10847264Y39536882D01*
X10832703Y39534722D01*
X10818000Y39534000D01*
X10518000Y39534000D01*
X10503297Y39534722D01*
X10488736Y39536882D01*
X10474457Y39540459D01*
X10460597Y39545418D01*
X10447290Y39551712D01*
X10434664Y39559280D01*
X10422841Y39568048D01*
X10411934Y39577934D01*
X10402048Y39588841D01*
X10393280Y39600664D01*
X10385712Y39613290D01*
X10379418Y39626597D01*
X10374459Y39640457D01*
X10370882Y39654736D01*
X10368722Y39669297D01*
X10368000Y39684000D01*
X10368000Y40984000D01*
X10368722Y40998703D01*
X10370882Y41013264D01*
X10374459Y41027543D01*
X10379418Y41041403D01*
X10385712Y41054710D01*
X10393280Y41067336D01*
X10402048Y41079159D01*
X10411934Y41090066D01*
X10422841Y41099952D01*
X10434664Y41108720D01*
X10447290Y41116288D01*
X10460597Y41122582D01*
X10474457Y41127541D01*
X10488736Y41131118D01*
X10503297Y41133278D01*
X10518000Y41134000D01*
X10818000Y41134000D01*
X10832703Y41133278D01*
G37*
G04 #@! TD.AperFunction*
G04 #@! TA.AperFunction,SMDPad,CuDef*
G36*
X12102703Y41133278D02*
G01*
X12117264Y41131118D01*
X12131543Y41127541D01*
X12145403Y41122582D01*
X12158710Y41116288D01*
X12171336Y41108720D01*
X12183159Y41099952D01*
X12194066Y41090066D01*
X12203952Y41079159D01*
X12212720Y41067336D01*
X12220288Y41054710D01*
X12226582Y41041403D01*
X12231541Y41027543D01*
X12235118Y41013264D01*
X12237278Y40998703D01*
X12238000Y40984000D01*
X12238000Y39684000D01*
X12237278Y39669297D01*
X12235118Y39654736D01*
X12231541Y39640457D01*
X12226582Y39626597D01*
X12220288Y39613290D01*
X12212720Y39600664D01*
X12203952Y39588841D01*
X12194066Y39577934D01*
X12183159Y39568048D01*
X12171336Y39559280D01*
X12158710Y39551712D01*
X12145403Y39545418D01*
X12131543Y39540459D01*
X12117264Y39536882D01*
X12102703Y39534722D01*
X12088000Y39534000D01*
X11788000Y39534000D01*
X11773297Y39534722D01*
X11758736Y39536882D01*
X11744457Y39540459D01*
X11730597Y39545418D01*
X11717290Y39551712D01*
X11704664Y39559280D01*
X11692841Y39568048D01*
X11681934Y39577934D01*
X11672048Y39588841D01*
X11663280Y39600664D01*
X11655712Y39613290D01*
X11649418Y39626597D01*
X11644459Y39640457D01*
X11640882Y39654736D01*
X11638722Y39669297D01*
X11638000Y39684000D01*
X11638000Y40984000D01*
X11638722Y40998703D01*
X11640882Y41013264D01*
X11644459Y41027543D01*
X11649418Y41041403D01*
X11655712Y41054710D01*
X11663280Y41067336D01*
X11672048Y41079159D01*
X11681934Y41090066D01*
X11692841Y41099952D01*
X11704664Y41108720D01*
X11717290Y41116288D01*
X11730597Y41122582D01*
X11744457Y41127541D01*
X11758736Y41131118D01*
X11773297Y41133278D01*
X11788000Y41134000D01*
X12088000Y41134000D01*
X12102703Y41133278D01*
G37*
G04 #@! TD.AperFunction*
G04 #@! TA.AperFunction,SMDPad,CuDef*
G36*
X13372703Y41133278D02*
G01*
X13387264Y41131118D01*
X13401543Y41127541D01*
X13415403Y41122582D01*
X13428710Y41116288D01*
X13441336Y41108720D01*
X13453159Y41099952D01*
X13464066Y41090066D01*
X13473952Y41079159D01*
X13482720Y41067336D01*
X13490288Y41054710D01*
X13496582Y41041403D01*
X13501541Y41027543D01*
X13505118Y41013264D01*
X13507278Y40998703D01*
X13508000Y40984000D01*
X13508000Y39684000D01*
X13507278Y39669297D01*
X13505118Y39654736D01*
X13501541Y39640457D01*
X13496582Y39626597D01*
X13490288Y39613290D01*
X13482720Y39600664D01*
X13473952Y39588841D01*
X13464066Y39577934D01*
X13453159Y39568048D01*
X13441336Y39559280D01*
X13428710Y39551712D01*
X13415403Y39545418D01*
X13401543Y39540459D01*
X13387264Y39536882D01*
X13372703Y39534722D01*
X13358000Y39534000D01*
X13058000Y39534000D01*
X13043297Y39534722D01*
X13028736Y39536882D01*
X13014457Y39540459D01*
X13000597Y39545418D01*
X12987290Y39551712D01*
X12974664Y39559280D01*
X12962841Y39568048D01*
X12951934Y39577934D01*
X12942048Y39588841D01*
X12933280Y39600664D01*
X12925712Y39613290D01*
X12919418Y39626597D01*
X12914459Y39640457D01*
X12910882Y39654736D01*
X12908722Y39669297D01*
X12908000Y39684000D01*
X12908000Y40984000D01*
X12908722Y40998703D01*
X12910882Y41013264D01*
X12914459Y41027543D01*
X12919418Y41041403D01*
X12925712Y41054710D01*
X12933280Y41067336D01*
X12942048Y41079159D01*
X12951934Y41090066D01*
X12962841Y41099952D01*
X12974664Y41108720D01*
X12987290Y41116288D01*
X13000597Y41122582D01*
X13014457Y41127541D01*
X13028736Y41131118D01*
X13043297Y41133278D01*
X13058000Y41134000D01*
X13358000Y41134000D01*
X13372703Y41133278D01*
G37*
G04 #@! TD.AperFunction*
G04 #@! TA.AperFunction,SMDPad,CuDef*
G36*
X14642703Y41133278D02*
G01*
X14657264Y41131118D01*
X14671543Y41127541D01*
X14685403Y41122582D01*
X14698710Y41116288D01*
X14711336Y41108720D01*
X14723159Y41099952D01*
X14734066Y41090066D01*
X14743952Y41079159D01*
X14752720Y41067336D01*
X14760288Y41054710D01*
X14766582Y41041403D01*
X14771541Y41027543D01*
X14775118Y41013264D01*
X14777278Y40998703D01*
X14778000Y40984000D01*
X14778000Y39684000D01*
X14777278Y39669297D01*
X14775118Y39654736D01*
X14771541Y39640457D01*
X14766582Y39626597D01*
X14760288Y39613290D01*
X14752720Y39600664D01*
X14743952Y39588841D01*
X14734066Y39577934D01*
X14723159Y39568048D01*
X14711336Y39559280D01*
X14698710Y39551712D01*
X14685403Y39545418D01*
X14671543Y39540459D01*
X14657264Y39536882D01*
X14642703Y39534722D01*
X14628000Y39534000D01*
X14328000Y39534000D01*
X14313297Y39534722D01*
X14298736Y39536882D01*
X14284457Y39540459D01*
X14270597Y39545418D01*
X14257290Y39551712D01*
X14244664Y39559280D01*
X14232841Y39568048D01*
X14221934Y39577934D01*
X14212048Y39588841D01*
X14203280Y39600664D01*
X14195712Y39613290D01*
X14189418Y39626597D01*
X14184459Y39640457D01*
X14180882Y39654736D01*
X14178722Y39669297D01*
X14178000Y39684000D01*
X14178000Y40984000D01*
X14178722Y40998703D01*
X14180882Y41013264D01*
X14184459Y41027543D01*
X14189418Y41041403D01*
X14195712Y41054710D01*
X14203280Y41067336D01*
X14212048Y41079159D01*
X14221934Y41090066D01*
X14232841Y41099952D01*
X14244664Y41108720D01*
X14257290Y41116288D01*
X14270597Y41122582D01*
X14284457Y41127541D01*
X14298736Y41131118D01*
X14313297Y41133278D01*
X14328000Y41134000D01*
X14628000Y41134000D01*
X14642703Y41133278D01*
G37*
G04 #@! TD.AperFunction*
G04 #@! TA.AperFunction,SMDPad,CuDef*
G36*
X15912703Y41133278D02*
G01*
X15927264Y41131118D01*
X15941543Y41127541D01*
X15955403Y41122582D01*
X15968710Y41116288D01*
X15981336Y41108720D01*
X15993159Y41099952D01*
X16004066Y41090066D01*
X16013952Y41079159D01*
X16022720Y41067336D01*
X16030288Y41054710D01*
X16036582Y41041403D01*
X16041541Y41027543D01*
X16045118Y41013264D01*
X16047278Y40998703D01*
X16048000Y40984000D01*
X16048000Y39684000D01*
X16047278Y39669297D01*
X16045118Y39654736D01*
X16041541Y39640457D01*
X16036582Y39626597D01*
X16030288Y39613290D01*
X16022720Y39600664D01*
X16013952Y39588841D01*
X16004066Y39577934D01*
X15993159Y39568048D01*
X15981336Y39559280D01*
X15968710Y39551712D01*
X15955403Y39545418D01*
X15941543Y39540459D01*
X15927264Y39536882D01*
X15912703Y39534722D01*
X15898000Y39534000D01*
X15598000Y39534000D01*
X15583297Y39534722D01*
X15568736Y39536882D01*
X15554457Y39540459D01*
X15540597Y39545418D01*
X15527290Y39551712D01*
X15514664Y39559280D01*
X15502841Y39568048D01*
X15491934Y39577934D01*
X15482048Y39588841D01*
X15473280Y39600664D01*
X15465712Y39613290D01*
X15459418Y39626597D01*
X15454459Y39640457D01*
X15450882Y39654736D01*
X15448722Y39669297D01*
X15448000Y39684000D01*
X15448000Y40984000D01*
X15448722Y40998703D01*
X15450882Y41013264D01*
X15454459Y41027543D01*
X15459418Y41041403D01*
X15465712Y41054710D01*
X15473280Y41067336D01*
X15482048Y41079159D01*
X15491934Y41090066D01*
X15502841Y41099952D01*
X15514664Y41108720D01*
X15527290Y41116288D01*
X15540597Y41122582D01*
X15554457Y41127541D01*
X15568736Y41131118D01*
X15583297Y41133278D01*
X15598000Y41134000D01*
X15898000Y41134000D01*
X15912703Y41133278D01*
G37*
G04 #@! TD.AperFunction*
G04 #@! TA.AperFunction,SMDPad,CuDef*
G36*
X17182703Y41133278D02*
G01*
X17197264Y41131118D01*
X17211543Y41127541D01*
X17225403Y41122582D01*
X17238710Y41116288D01*
X17251336Y41108720D01*
X17263159Y41099952D01*
X17274066Y41090066D01*
X17283952Y41079159D01*
X17292720Y41067336D01*
X17300288Y41054710D01*
X17306582Y41041403D01*
X17311541Y41027543D01*
X17315118Y41013264D01*
X17317278Y40998703D01*
X17318000Y40984000D01*
X17318000Y39684000D01*
X17317278Y39669297D01*
X17315118Y39654736D01*
X17311541Y39640457D01*
X17306582Y39626597D01*
X17300288Y39613290D01*
X17292720Y39600664D01*
X17283952Y39588841D01*
X17274066Y39577934D01*
X17263159Y39568048D01*
X17251336Y39559280D01*
X17238710Y39551712D01*
X17225403Y39545418D01*
X17211543Y39540459D01*
X17197264Y39536882D01*
X17182703Y39534722D01*
X17168000Y39534000D01*
X16868000Y39534000D01*
X16853297Y39534722D01*
X16838736Y39536882D01*
X16824457Y39540459D01*
X16810597Y39545418D01*
X16797290Y39551712D01*
X16784664Y39559280D01*
X16772841Y39568048D01*
X16761934Y39577934D01*
X16752048Y39588841D01*
X16743280Y39600664D01*
X16735712Y39613290D01*
X16729418Y39626597D01*
X16724459Y39640457D01*
X16720882Y39654736D01*
X16718722Y39669297D01*
X16718000Y39684000D01*
X16718000Y40984000D01*
X16718722Y40998703D01*
X16720882Y41013264D01*
X16724459Y41027543D01*
X16729418Y41041403D01*
X16735712Y41054710D01*
X16743280Y41067336D01*
X16752048Y41079159D01*
X16761934Y41090066D01*
X16772841Y41099952D01*
X16784664Y41108720D01*
X16797290Y41116288D01*
X16810597Y41122582D01*
X16824457Y41127541D01*
X16838736Y41131118D01*
X16853297Y41133278D01*
X16868000Y41134000D01*
X17168000Y41134000D01*
X17182703Y41133278D01*
G37*
G04 #@! TD.AperFunction*
G04 #@! TA.AperFunction,SMDPad,CuDef*
G36*
X18452703Y41133278D02*
G01*
X18467264Y41131118D01*
X18481543Y41127541D01*
X18495403Y41122582D01*
X18508710Y41116288D01*
X18521336Y41108720D01*
X18533159Y41099952D01*
X18544066Y41090066D01*
X18553952Y41079159D01*
X18562720Y41067336D01*
X18570288Y41054710D01*
X18576582Y41041403D01*
X18581541Y41027543D01*
X18585118Y41013264D01*
X18587278Y40998703D01*
X18588000Y40984000D01*
X18588000Y39684000D01*
X18587278Y39669297D01*
X18585118Y39654736D01*
X18581541Y39640457D01*
X18576582Y39626597D01*
X18570288Y39613290D01*
X18562720Y39600664D01*
X18553952Y39588841D01*
X18544066Y39577934D01*
X18533159Y39568048D01*
X18521336Y39559280D01*
X18508710Y39551712D01*
X18495403Y39545418D01*
X18481543Y39540459D01*
X18467264Y39536882D01*
X18452703Y39534722D01*
X18438000Y39534000D01*
X18138000Y39534000D01*
X18123297Y39534722D01*
X18108736Y39536882D01*
X18094457Y39540459D01*
X18080597Y39545418D01*
X18067290Y39551712D01*
X18054664Y39559280D01*
X18042841Y39568048D01*
X18031934Y39577934D01*
X18022048Y39588841D01*
X18013280Y39600664D01*
X18005712Y39613290D01*
X17999418Y39626597D01*
X17994459Y39640457D01*
X17990882Y39654736D01*
X17988722Y39669297D01*
X17988000Y39684000D01*
X17988000Y40984000D01*
X17988722Y40998703D01*
X17990882Y41013264D01*
X17994459Y41027543D01*
X17999418Y41041403D01*
X18005712Y41054710D01*
X18013280Y41067336D01*
X18022048Y41079159D01*
X18031934Y41090066D01*
X18042841Y41099952D01*
X18054664Y41108720D01*
X18067290Y41116288D01*
X18080597Y41122582D01*
X18094457Y41127541D01*
X18108736Y41131118D01*
X18123297Y41133278D01*
X18138000Y41134000D01*
X18438000Y41134000D01*
X18452703Y41133278D01*
G37*
G04 #@! TD.AperFunction*
G04 #@! TA.AperFunction,SMDPad,CuDef*
G36*
X18452703Y34633278D02*
G01*
X18467264Y34631118D01*
X18481543Y34627541D01*
X18495403Y34622582D01*
X18508710Y34616288D01*
X18521336Y34608720D01*
X18533159Y34599952D01*
X18544066Y34590066D01*
X18553952Y34579159D01*
X18562720Y34567336D01*
X18570288Y34554710D01*
X18576582Y34541403D01*
X18581541Y34527543D01*
X18585118Y34513264D01*
X18587278Y34498703D01*
X18588000Y34484000D01*
X18588000Y33184000D01*
X18587278Y33169297D01*
X18585118Y33154736D01*
X18581541Y33140457D01*
X18576582Y33126597D01*
X18570288Y33113290D01*
X18562720Y33100664D01*
X18553952Y33088841D01*
X18544066Y33077934D01*
X18533159Y33068048D01*
X18521336Y33059280D01*
X18508710Y33051712D01*
X18495403Y33045418D01*
X18481543Y33040459D01*
X18467264Y33036882D01*
X18452703Y33034722D01*
X18438000Y33034000D01*
X18138000Y33034000D01*
X18123297Y33034722D01*
X18108736Y33036882D01*
X18094457Y33040459D01*
X18080597Y33045418D01*
X18067290Y33051712D01*
X18054664Y33059280D01*
X18042841Y33068048D01*
X18031934Y33077934D01*
X18022048Y33088841D01*
X18013280Y33100664D01*
X18005712Y33113290D01*
X17999418Y33126597D01*
X17994459Y33140457D01*
X17990882Y33154736D01*
X17988722Y33169297D01*
X17988000Y33184000D01*
X17988000Y34484000D01*
X17988722Y34498703D01*
X17990882Y34513264D01*
X17994459Y34527543D01*
X17999418Y34541403D01*
X18005712Y34554710D01*
X18013280Y34567336D01*
X18022048Y34579159D01*
X18031934Y34590066D01*
X18042841Y34599952D01*
X18054664Y34608720D01*
X18067290Y34616288D01*
X18080597Y34622582D01*
X18094457Y34627541D01*
X18108736Y34631118D01*
X18123297Y34633278D01*
X18138000Y34634000D01*
X18438000Y34634000D01*
X18452703Y34633278D01*
G37*
G04 #@! TD.AperFunction*
G04 #@! TA.AperFunction,SMDPad,CuDef*
G36*
X17182703Y34633278D02*
G01*
X17197264Y34631118D01*
X17211543Y34627541D01*
X17225403Y34622582D01*
X17238710Y34616288D01*
X17251336Y34608720D01*
X17263159Y34599952D01*
X17274066Y34590066D01*
X17283952Y34579159D01*
X17292720Y34567336D01*
X17300288Y34554710D01*
X17306582Y34541403D01*
X17311541Y34527543D01*
X17315118Y34513264D01*
X17317278Y34498703D01*
X17318000Y34484000D01*
X17318000Y33184000D01*
X17317278Y33169297D01*
X17315118Y33154736D01*
X17311541Y33140457D01*
X17306582Y33126597D01*
X17300288Y33113290D01*
X17292720Y33100664D01*
X17283952Y33088841D01*
X17274066Y33077934D01*
X17263159Y33068048D01*
X17251336Y33059280D01*
X17238710Y33051712D01*
X17225403Y33045418D01*
X17211543Y33040459D01*
X17197264Y33036882D01*
X17182703Y33034722D01*
X17168000Y33034000D01*
X16868000Y33034000D01*
X16853297Y33034722D01*
X16838736Y33036882D01*
X16824457Y33040459D01*
X16810597Y33045418D01*
X16797290Y33051712D01*
X16784664Y33059280D01*
X16772841Y33068048D01*
X16761934Y33077934D01*
X16752048Y33088841D01*
X16743280Y33100664D01*
X16735712Y33113290D01*
X16729418Y33126597D01*
X16724459Y33140457D01*
X16720882Y33154736D01*
X16718722Y33169297D01*
X16718000Y33184000D01*
X16718000Y34484000D01*
X16718722Y34498703D01*
X16720882Y34513264D01*
X16724459Y34527543D01*
X16729418Y34541403D01*
X16735712Y34554710D01*
X16743280Y34567336D01*
X16752048Y34579159D01*
X16761934Y34590066D01*
X16772841Y34599952D01*
X16784664Y34608720D01*
X16797290Y34616288D01*
X16810597Y34622582D01*
X16824457Y34627541D01*
X16838736Y34631118D01*
X16853297Y34633278D01*
X16868000Y34634000D01*
X17168000Y34634000D01*
X17182703Y34633278D01*
G37*
G04 #@! TD.AperFunction*
G04 #@! TA.AperFunction,SMDPad,CuDef*
G36*
X15912703Y34633278D02*
G01*
X15927264Y34631118D01*
X15941543Y34627541D01*
X15955403Y34622582D01*
X15968710Y34616288D01*
X15981336Y34608720D01*
X15993159Y34599952D01*
X16004066Y34590066D01*
X16013952Y34579159D01*
X16022720Y34567336D01*
X16030288Y34554710D01*
X16036582Y34541403D01*
X16041541Y34527543D01*
X16045118Y34513264D01*
X16047278Y34498703D01*
X16048000Y34484000D01*
X16048000Y33184000D01*
X16047278Y33169297D01*
X16045118Y33154736D01*
X16041541Y33140457D01*
X16036582Y33126597D01*
X16030288Y33113290D01*
X16022720Y33100664D01*
X16013952Y33088841D01*
X16004066Y33077934D01*
X15993159Y33068048D01*
X15981336Y33059280D01*
X15968710Y33051712D01*
X15955403Y33045418D01*
X15941543Y33040459D01*
X15927264Y33036882D01*
X15912703Y33034722D01*
X15898000Y33034000D01*
X15598000Y33034000D01*
X15583297Y33034722D01*
X15568736Y33036882D01*
X15554457Y33040459D01*
X15540597Y33045418D01*
X15527290Y33051712D01*
X15514664Y33059280D01*
X15502841Y33068048D01*
X15491934Y33077934D01*
X15482048Y33088841D01*
X15473280Y33100664D01*
X15465712Y33113290D01*
X15459418Y33126597D01*
X15454459Y33140457D01*
X15450882Y33154736D01*
X15448722Y33169297D01*
X15448000Y33184000D01*
X15448000Y34484000D01*
X15448722Y34498703D01*
X15450882Y34513264D01*
X15454459Y34527543D01*
X15459418Y34541403D01*
X15465712Y34554710D01*
X15473280Y34567336D01*
X15482048Y34579159D01*
X15491934Y34590066D01*
X15502841Y34599952D01*
X15514664Y34608720D01*
X15527290Y34616288D01*
X15540597Y34622582D01*
X15554457Y34627541D01*
X15568736Y34631118D01*
X15583297Y34633278D01*
X15598000Y34634000D01*
X15898000Y34634000D01*
X15912703Y34633278D01*
G37*
G04 #@! TD.AperFunction*
G04 #@! TA.AperFunction,SMDPad,CuDef*
G36*
X14642703Y34633278D02*
G01*
X14657264Y34631118D01*
X14671543Y34627541D01*
X14685403Y34622582D01*
X14698710Y34616288D01*
X14711336Y34608720D01*
X14723159Y34599952D01*
X14734066Y34590066D01*
X14743952Y34579159D01*
X14752720Y34567336D01*
X14760288Y34554710D01*
X14766582Y34541403D01*
X14771541Y34527543D01*
X14775118Y34513264D01*
X14777278Y34498703D01*
X14778000Y34484000D01*
X14778000Y33184000D01*
X14777278Y33169297D01*
X14775118Y33154736D01*
X14771541Y33140457D01*
X14766582Y33126597D01*
X14760288Y33113290D01*
X14752720Y33100664D01*
X14743952Y33088841D01*
X14734066Y33077934D01*
X14723159Y33068048D01*
X14711336Y33059280D01*
X14698710Y33051712D01*
X14685403Y33045418D01*
X14671543Y33040459D01*
X14657264Y33036882D01*
X14642703Y33034722D01*
X14628000Y33034000D01*
X14328000Y33034000D01*
X14313297Y33034722D01*
X14298736Y33036882D01*
X14284457Y33040459D01*
X14270597Y33045418D01*
X14257290Y33051712D01*
X14244664Y33059280D01*
X14232841Y33068048D01*
X14221934Y33077934D01*
X14212048Y33088841D01*
X14203280Y33100664D01*
X14195712Y33113290D01*
X14189418Y33126597D01*
X14184459Y33140457D01*
X14180882Y33154736D01*
X14178722Y33169297D01*
X14178000Y33184000D01*
X14178000Y34484000D01*
X14178722Y34498703D01*
X14180882Y34513264D01*
X14184459Y34527543D01*
X14189418Y34541403D01*
X14195712Y34554710D01*
X14203280Y34567336D01*
X14212048Y34579159D01*
X14221934Y34590066D01*
X14232841Y34599952D01*
X14244664Y34608720D01*
X14257290Y34616288D01*
X14270597Y34622582D01*
X14284457Y34627541D01*
X14298736Y34631118D01*
X14313297Y34633278D01*
X14328000Y34634000D01*
X14628000Y34634000D01*
X14642703Y34633278D01*
G37*
G04 #@! TD.AperFunction*
G04 #@! TA.AperFunction,SMDPad,CuDef*
G36*
X13372703Y34633278D02*
G01*
X13387264Y34631118D01*
X13401543Y34627541D01*
X13415403Y34622582D01*
X13428710Y34616288D01*
X13441336Y34608720D01*
X13453159Y34599952D01*
X13464066Y34590066D01*
X13473952Y34579159D01*
X13482720Y34567336D01*
X13490288Y34554710D01*
X13496582Y34541403D01*
X13501541Y34527543D01*
X13505118Y34513264D01*
X13507278Y34498703D01*
X13508000Y34484000D01*
X13508000Y33184000D01*
X13507278Y33169297D01*
X13505118Y33154736D01*
X13501541Y33140457D01*
X13496582Y33126597D01*
X13490288Y33113290D01*
X13482720Y33100664D01*
X13473952Y33088841D01*
X13464066Y33077934D01*
X13453159Y33068048D01*
X13441336Y33059280D01*
X13428710Y33051712D01*
X13415403Y33045418D01*
X13401543Y33040459D01*
X13387264Y33036882D01*
X13372703Y33034722D01*
X13358000Y33034000D01*
X13058000Y33034000D01*
X13043297Y33034722D01*
X13028736Y33036882D01*
X13014457Y33040459D01*
X13000597Y33045418D01*
X12987290Y33051712D01*
X12974664Y33059280D01*
X12962841Y33068048D01*
X12951934Y33077934D01*
X12942048Y33088841D01*
X12933280Y33100664D01*
X12925712Y33113290D01*
X12919418Y33126597D01*
X12914459Y33140457D01*
X12910882Y33154736D01*
X12908722Y33169297D01*
X12908000Y33184000D01*
X12908000Y34484000D01*
X12908722Y34498703D01*
X12910882Y34513264D01*
X12914459Y34527543D01*
X12919418Y34541403D01*
X12925712Y34554710D01*
X12933280Y34567336D01*
X12942048Y34579159D01*
X12951934Y34590066D01*
X12962841Y34599952D01*
X12974664Y34608720D01*
X12987290Y34616288D01*
X13000597Y34622582D01*
X13014457Y34627541D01*
X13028736Y34631118D01*
X13043297Y34633278D01*
X13058000Y34634000D01*
X13358000Y34634000D01*
X13372703Y34633278D01*
G37*
G04 #@! TD.AperFunction*
G04 #@! TA.AperFunction,SMDPad,CuDef*
G36*
X12102703Y34633278D02*
G01*
X12117264Y34631118D01*
X12131543Y34627541D01*
X12145403Y34622582D01*
X12158710Y34616288D01*
X12171336Y34608720D01*
X12183159Y34599952D01*
X12194066Y34590066D01*
X12203952Y34579159D01*
X12212720Y34567336D01*
X12220288Y34554710D01*
X12226582Y34541403D01*
X12231541Y34527543D01*
X12235118Y34513264D01*
X12237278Y34498703D01*
X12238000Y34484000D01*
X12238000Y33184000D01*
X12237278Y33169297D01*
X12235118Y33154736D01*
X12231541Y33140457D01*
X12226582Y33126597D01*
X12220288Y33113290D01*
X12212720Y33100664D01*
X12203952Y33088841D01*
X12194066Y33077934D01*
X12183159Y33068048D01*
X12171336Y33059280D01*
X12158710Y33051712D01*
X12145403Y33045418D01*
X12131543Y33040459D01*
X12117264Y33036882D01*
X12102703Y33034722D01*
X12088000Y33034000D01*
X11788000Y33034000D01*
X11773297Y33034722D01*
X11758736Y33036882D01*
X11744457Y33040459D01*
X11730597Y33045418D01*
X11717290Y33051712D01*
X11704664Y33059280D01*
X11692841Y33068048D01*
X11681934Y33077934D01*
X11672048Y33088841D01*
X11663280Y33100664D01*
X11655712Y33113290D01*
X11649418Y33126597D01*
X11644459Y33140457D01*
X11640882Y33154736D01*
X11638722Y33169297D01*
X11638000Y33184000D01*
X11638000Y34484000D01*
X11638722Y34498703D01*
X11640882Y34513264D01*
X11644459Y34527543D01*
X11649418Y34541403D01*
X11655712Y34554710D01*
X11663280Y34567336D01*
X11672048Y34579159D01*
X11681934Y34590066D01*
X11692841Y34599952D01*
X11704664Y34608720D01*
X11717290Y34616288D01*
X11730597Y34622582D01*
X11744457Y34627541D01*
X11758736Y34631118D01*
X11773297Y34633278D01*
X11788000Y34634000D01*
X12088000Y34634000D01*
X12102703Y34633278D01*
G37*
G04 #@! TD.AperFunction*
G04 #@! TA.AperFunction,SMDPad,CuDef*
G36*
X10832703Y34633278D02*
G01*
X10847264Y34631118D01*
X10861543Y34627541D01*
X10875403Y34622582D01*
X10888710Y34616288D01*
X10901336Y34608720D01*
X10913159Y34599952D01*
X10924066Y34590066D01*
X10933952Y34579159D01*
X10942720Y34567336D01*
X10950288Y34554710D01*
X10956582Y34541403D01*
X10961541Y34527543D01*
X10965118Y34513264D01*
X10967278Y34498703D01*
X10968000Y34484000D01*
X10968000Y33184000D01*
X10967278Y33169297D01*
X10965118Y33154736D01*
X10961541Y33140457D01*
X10956582Y33126597D01*
X10950288Y33113290D01*
X10942720Y33100664D01*
X10933952Y33088841D01*
X10924066Y33077934D01*
X10913159Y33068048D01*
X10901336Y33059280D01*
X10888710Y33051712D01*
X10875403Y33045418D01*
X10861543Y33040459D01*
X10847264Y33036882D01*
X10832703Y33034722D01*
X10818000Y33034000D01*
X10518000Y33034000D01*
X10503297Y33034722D01*
X10488736Y33036882D01*
X10474457Y33040459D01*
X10460597Y33045418D01*
X10447290Y33051712D01*
X10434664Y33059280D01*
X10422841Y33068048D01*
X10411934Y33077934D01*
X10402048Y33088841D01*
X10393280Y33100664D01*
X10385712Y33113290D01*
X10379418Y33126597D01*
X10374459Y33140457D01*
X10370882Y33154736D01*
X10368722Y33169297D01*
X10368000Y33184000D01*
X10368000Y34484000D01*
X10368722Y34498703D01*
X10370882Y34513264D01*
X10374459Y34527543D01*
X10379418Y34541403D01*
X10385712Y34554710D01*
X10393280Y34567336D01*
X10402048Y34579159D01*
X10411934Y34590066D01*
X10422841Y34599952D01*
X10434664Y34608720D01*
X10447290Y34616288D01*
X10460597Y34622582D01*
X10474457Y34627541D01*
X10488736Y34631118D01*
X10503297Y34633278D01*
X10518000Y34634000D01*
X10818000Y34634000D01*
X10832703Y34633278D01*
G37*
G04 #@! TD.AperFunction*
G04 #@! TA.AperFunction,SMDPad,CuDef*
G36*
X9562703Y34633278D02*
G01*
X9577264Y34631118D01*
X9591543Y34627541D01*
X9605403Y34622582D01*
X9618710Y34616288D01*
X9631336Y34608720D01*
X9643159Y34599952D01*
X9654066Y34590066D01*
X9663952Y34579159D01*
X9672720Y34567336D01*
X9680288Y34554710D01*
X9686582Y34541403D01*
X9691541Y34527543D01*
X9695118Y34513264D01*
X9697278Y34498703D01*
X9698000Y34484000D01*
X9698000Y33184000D01*
X9697278Y33169297D01*
X9695118Y33154736D01*
X9691541Y33140457D01*
X9686582Y33126597D01*
X9680288Y33113290D01*
X9672720Y33100664D01*
X9663952Y33088841D01*
X9654066Y33077934D01*
X9643159Y33068048D01*
X9631336Y33059280D01*
X9618710Y33051712D01*
X9605403Y33045418D01*
X9591543Y33040459D01*
X9577264Y33036882D01*
X9562703Y33034722D01*
X9548000Y33034000D01*
X9248000Y33034000D01*
X9233297Y33034722D01*
X9218736Y33036882D01*
X9204457Y33040459D01*
X9190597Y33045418D01*
X9177290Y33051712D01*
X9164664Y33059280D01*
X9152841Y33068048D01*
X9141934Y33077934D01*
X9132048Y33088841D01*
X9123280Y33100664D01*
X9115712Y33113290D01*
X9109418Y33126597D01*
X9104459Y33140457D01*
X9100882Y33154736D01*
X9098722Y33169297D01*
X9098000Y33184000D01*
X9098000Y34484000D01*
X9098722Y34498703D01*
X9100882Y34513264D01*
X9104459Y34527543D01*
X9109418Y34541403D01*
X9115712Y34554710D01*
X9123280Y34567336D01*
X9132048Y34579159D01*
X9141934Y34590066D01*
X9152841Y34599952D01*
X9164664Y34608720D01*
X9177290Y34616288D01*
X9190597Y34622582D01*
X9204457Y34627541D01*
X9218736Y34631118D01*
X9233297Y34633278D01*
X9248000Y34634000D01*
X9548000Y34634000D01*
X9562703Y34633278D01*
G37*
G04 #@! TD.AperFunction*
D22*
X7112000Y25908000D03*
X9906000Y25908000D03*
X2032000Y20574000D03*
X2032000Y17018000D03*
X14986000Y10922000D03*
X10414000Y13970000D03*
X15748000Y6350000D03*
X22606000Y34798000D03*
X8382000Y20574000D03*
X23622000Y25908000D03*
X16002000Y25908000D03*
X12954000Y25908000D03*
X17526000Y36830000D03*
X10922000Y55372000D03*
X22098000Y20574000D03*
X16510000Y38354000D03*
X11938000Y31242000D03*
X7375000Y11929000D03*
X22098000Y54610000D03*
X14224000Y44704000D03*
X10668000Y44704000D03*
X15748000Y43180000D03*
X12548000Y54000000D03*
X25908000Y35560000D03*
D23*
X6172000Y24384000D02*
X7112000Y25324000D01*
X5597000Y24384000D02*
X6172000Y24384000D01*
X7112000Y25324000D02*
X7112000Y25908000D01*
X10033000Y25781000D02*
X9906000Y25908000D01*
X10033000Y23885000D02*
X10033000Y25781000D01*
X13843000Y23434000D02*
X13523000Y23114000D01*
X13843000Y24464000D02*
X13843000Y23434000D01*
X10033000Y23310000D02*
X10033000Y23885000D01*
X10229000Y23114000D02*
X10033000Y23310000D01*
X13523000Y23114000D02*
X10229000Y23114000D01*
X3603000Y20574000D02*
X2573000Y20574000D01*
X2573000Y20574000D02*
X2032000Y20574000D01*
X2286000Y16764000D02*
X2032000Y17018000D01*
X4173000Y16764000D02*
X2286000Y16764000D01*
X14986000Y10922000D02*
X11938000Y13970000D01*
X11938000Y13970000D02*
X10414000Y13970000D01*
X15748000Y6350000D02*
X18796000Y6350000D01*
X20098000Y7652000D02*
X20098000Y9144000D01*
X18796000Y6350000D02*
X20098000Y7652000D01*
X9398000Y40334000D02*
X9398000Y44704000D01*
X9398000Y44704000D02*
X10414000Y45720000D01*
X10414000Y45720000D02*
X11430000Y45720000D01*
X11430000Y45720000D02*
X12192000Y46482000D01*
X12192000Y46482000D02*
X12192000Y50292000D01*
X13648000Y51748000D02*
X13648000Y58409000D01*
X12192000Y50292000D02*
X13648000Y51748000D01*
X6223000Y19544000D02*
X6303000Y19624000D01*
X6223000Y16764000D02*
X6223000Y19544000D01*
X10733000Y21835000D02*
X10033000Y21835000D01*
X11303000Y21265000D02*
X10733000Y21835000D01*
X11303000Y19059000D02*
X11303000Y21265000D01*
X18353000Y29219000D02*
X18362000Y29210000D01*
X17653000Y29219000D02*
X18353000Y29219000D01*
X18362000Y29210000D02*
X21590000Y29210000D01*
X21590000Y29210000D02*
X21590000Y33782000D01*
X21590000Y33782000D02*
X22606000Y34798000D01*
X9398000Y40334000D02*
X7874000Y38810000D01*
X7874000Y38810000D02*
X7874000Y33020000D01*
X7874000Y33020000D02*
X10414000Y30480000D01*
X17653000Y29794000D02*
X17653000Y29219000D01*
X16967000Y30480000D02*
X17653000Y29794000D01*
X10414000Y30480000D02*
X16967000Y30480000D01*
X9333000Y21835000D02*
X10033000Y21835000D01*
X7874000Y33020000D02*
X7874000Y23294000D01*
X10738000Y19624000D02*
X11303000Y19059000D01*
X6303000Y19624000D02*
X10738000Y19624000D01*
X12893000Y20734000D02*
X12893000Y21764000D01*
X12893000Y19949000D02*
X12893000Y20734000D01*
X12003000Y19059000D02*
X12893000Y19949000D01*
X11303000Y19059000D02*
X12003000Y19059000D01*
X8382000Y20574000D02*
X8382000Y22606000D01*
X7874000Y23294000D02*
X8382000Y22606000D01*
X8382000Y22606000D02*
X9333000Y21835000D01*
X18353000Y23885000D02*
X20376000Y25908000D01*
X17653000Y23885000D02*
X18353000Y23885000D01*
X20376000Y25908000D02*
X23622000Y25908000D01*
X17653000Y24460000D02*
X16205000Y25908000D01*
X17653000Y23885000D02*
X17653000Y24460000D01*
X16205000Y25908000D02*
X16002000Y25908000D01*
X12954000Y24525000D02*
X12893000Y24464000D01*
X12954000Y25908000D02*
X12954000Y24525000D01*
X11938000Y40334000D02*
X11938000Y38100000D01*
X11938000Y38100000D02*
X13208000Y36830000D01*
X13208000Y36830000D02*
X17526000Y36830000D01*
X10348000Y55946000D02*
X10922000Y55372000D01*
X10348000Y58409000D02*
X10348000Y55946000D01*
X14478000Y40334000D02*
X14478000Y38100000D01*
X14478000Y38100000D02*
X14986000Y37592000D01*
X14986000Y37592000D02*
X21336000Y37592000D01*
X21336000Y37592000D02*
X22098000Y36830000D01*
X22098000Y36830000D02*
X25563002Y36830000D01*
X25563002Y36830000D02*
X26416000Y36830000D01*
X26416000Y36830000D02*
X26924000Y36322000D01*
X26924000Y36322000D02*
X26924000Y23114000D01*
X26924000Y23114000D02*
X24384000Y20574000D01*
X24384000Y20574000D02*
X22098000Y20574000D01*
X17018000Y40334000D02*
X17018000Y38862000D01*
X17018000Y38862000D02*
X16510000Y38354000D01*
X11938000Y31242000D02*
X11938000Y33834000D01*
X1712000Y21524000D02*
X3603000Y21524000D01*
X1270000Y21082000D02*
X1712000Y21524000D01*
X2573000Y19624000D02*
X1270000Y18321000D01*
X3603000Y19624000D02*
X2573000Y19624000D01*
X1270000Y18321000D02*
X1270000Y18034000D01*
X1270000Y18034000D02*
X1270000Y21082000D01*
X3547000Y21580000D02*
X3603000Y21524000D01*
X3547000Y24384000D02*
X3547000Y21580000D01*
X1270000Y13081000D02*
X2032000Y12319000D01*
X1270000Y18034000D02*
X1270000Y13081000D01*
X7375000Y11929000D02*
X5089000Y11929000D01*
X4699000Y12319000D02*
X2032000Y12319000D01*
X5089000Y11929000D02*
X4699000Y12319000D01*
X16953000Y17009000D02*
X16256000Y17706000D01*
X17653000Y17009000D02*
X16953000Y17009000D01*
X16256000Y17706000D02*
X16256000Y18542000D01*
X15739000Y19059000D02*
X14478000Y19059000D01*
X16256000Y18542000D02*
X15739000Y19059000D01*
X11303000Y17009000D02*
X14478000Y17009000D01*
X14478000Y16434000D02*
X15672000Y15240000D01*
X14478000Y17009000D02*
X14478000Y16434000D01*
X15672000Y15240000D02*
X18796000Y15240000D01*
X20098000Y13938000D02*
X20098000Y11684000D01*
X18796000Y15240000D02*
X20098000Y13938000D01*
X14793000Y26854000D02*
X14478000Y27169000D01*
X14793000Y24464000D02*
X14793000Y26854000D01*
X14478000Y27169000D02*
X17653000Y27169000D01*
X14478000Y27169000D02*
X11303000Y27169000D01*
X15848000Y57609000D02*
X18847000Y54610000D01*
X15848000Y58409000D02*
X15848000Y57609000D01*
X18847000Y54610000D02*
X22098000Y54610000D01*
X15848000Y58409000D02*
X15848000Y51408000D01*
X15848000Y51408000D02*
X14224000Y49784000D01*
X14224000Y49784000D02*
X14224000Y44704000D01*
X10668000Y44704000D02*
X10668000Y40334000D01*
X14748000Y58409000D02*
X14748000Y51324000D01*
X13208000Y49784000D02*
X13208000Y40334000D01*
X14748000Y51324000D02*
X13208000Y49784000D01*
X15748000Y43180000D02*
X15748000Y40334000D01*
X12548000Y54204000D02*
X12548000Y54000000D01*
X12548000Y58409000D02*
X12548000Y54204000D01*
X17582000Y21764000D02*
X17653000Y21835000D01*
X14793000Y21764000D02*
X17582000Y21764000D01*
X17653000Y19059000D02*
X17653000Y21835000D01*
X25908000Y35560000D02*
X11176000Y35560000D01*
X11176000Y35560000D02*
X10668000Y35052000D01*
X10668000Y35052000D02*
X10668000Y33834000D01*
D24*
G36*
X25410586Y59621046D02*
G01*
X25890182Y59476247D01*
X26332520Y59241052D01*
X26720750Y58924420D01*
X27040083Y58538413D01*
X27278361Y58097726D01*
X27426504Y57619153D01*
X27481000Y57100662D01*
X27481001Y3124089D01*
X27430046Y2604414D01*
X27285247Y2124815D01*
X27050053Y1682480D01*
X26733420Y1294250D01*
X26347413Y974917D01*
X25906725Y736639D01*
X25428153Y588496D01*
X24909661Y534000D01*
X2933079Y534000D01*
X2413414Y584954D01*
X1933815Y729753D01*
X1491480Y964947D01*
X1103250Y1281580D01*
X783917Y1667587D01*
X545639Y2108275D01*
X397496Y2586847D01*
X343000Y3105339D01*
X343000Y3294231D01*
X970395Y3294231D01*
X970395Y2911769D01*
X1045009Y2536655D01*
X1191372Y2183305D01*
X1403857Y1865299D01*
X1674299Y1594857D01*
X1992305Y1382372D01*
X2345655Y1236009D01*
X2720769Y1161395D01*
X3103231Y1161395D01*
X3478345Y1236009D01*
X3831695Y1382372D01*
X4149701Y1594857D01*
X4420143Y1865299D01*
X4632628Y2183305D01*
X4778991Y2536655D01*
X4853605Y2911769D01*
X4853605Y3294231D01*
X22970395Y3294231D01*
X22970395Y2911769D01*
X23045009Y2536655D01*
X23191372Y2183305D01*
X23403857Y1865299D01*
X23674299Y1594857D01*
X23992305Y1382372D01*
X24345655Y1236009D01*
X24720769Y1161395D01*
X25103231Y1161395D01*
X25478345Y1236009D01*
X25831695Y1382372D01*
X26149701Y1594857D01*
X26420143Y1865299D01*
X26632628Y2183305D01*
X26778991Y2536655D01*
X26853605Y2911769D01*
X26853605Y3294231D01*
X26778991Y3669345D01*
X26632628Y4022695D01*
X26420143Y4340701D01*
X26149701Y4611143D01*
X25831695Y4823628D01*
X25478345Y4969991D01*
X25103231Y5044605D01*
X24720769Y5044605D01*
X24345655Y4969991D01*
X23992305Y4823628D01*
X23674299Y4611143D01*
X23403857Y4340701D01*
X23191372Y4022695D01*
X23045009Y3669345D01*
X22970395Y3294231D01*
X4853605Y3294231D01*
X4778991Y3669345D01*
X4632628Y4022695D01*
X4420143Y4340701D01*
X4149701Y4611143D01*
X3831695Y4823628D01*
X3478345Y4969991D01*
X3103231Y5044605D01*
X2720769Y5044605D01*
X2345655Y4969991D01*
X1992305Y4823628D01*
X1674299Y4611143D01*
X1403857Y4340701D01*
X1191372Y4022695D01*
X1045009Y3669345D01*
X970395Y3294231D01*
X343000Y3294231D01*
X343000Y8455000D01*
X18770928Y8455000D01*
X18783188Y8330518D01*
X18819498Y8210820D01*
X18878463Y8100506D01*
X18957815Y8003815D01*
X19054506Y7924463D01*
X19164820Y7865498D01*
X19284518Y7829188D01*
X19409000Y7816928D01*
X19812250Y7820000D01*
X19971000Y7978750D01*
X19971000Y9017000D01*
X20225000Y9017000D01*
X20225000Y7978750D01*
X20383750Y7820000D01*
X20787000Y7816928D01*
X20911482Y7829188D01*
X21031180Y7865498D01*
X21141494Y7924463D01*
X21238185Y8003815D01*
X21317537Y8100506D01*
X21376502Y8210820D01*
X21412812Y8330518D01*
X21425072Y8455000D01*
X21422000Y8858250D01*
X21263250Y9017000D01*
X20225000Y9017000D01*
X19971000Y9017000D01*
X18932750Y9017000D01*
X18774000Y8858250D01*
X18770928Y8455000D01*
X343000Y8455000D01*
X343000Y9833000D01*
X18770928Y9833000D01*
X18774000Y9429750D01*
X18932750Y9271000D01*
X19971000Y9271000D01*
X19971000Y10309250D01*
X20225000Y10309250D01*
X20225000Y9271000D01*
X21263250Y9271000D01*
X21422000Y9429750D01*
X21425072Y9833000D01*
X21412812Y9957482D01*
X21376502Y10077180D01*
X21317537Y10187494D01*
X21238185Y10284185D01*
X21141494Y10363537D01*
X21031180Y10422502D01*
X20911482Y10458812D01*
X20787000Y10471072D01*
X20383750Y10468000D01*
X20225000Y10309250D01*
X19971000Y10309250D01*
X19812250Y10468000D01*
X19409000Y10471072D01*
X19284518Y10458812D01*
X19164820Y10422502D01*
X19054506Y10363537D01*
X18957815Y10284185D01*
X18878463Y10187494D01*
X18819498Y10077180D01*
X18783188Y9957482D01*
X18770928Y9833000D01*
X343000Y9833000D01*
X343000Y10782877D01*
X787334Y10782877D01*
X797006Y10706028D01*
X886745Y10520840D01*
X1010888Y10356717D01*
X1164664Y10219967D01*
X1342164Y10115845D01*
X1536567Y10048352D01*
X1740401Y10020082D01*
X1905000Y10185238D01*
X1905000Y10942000D01*
X2159000Y10942000D01*
X2159000Y10185238D01*
X2323599Y10020082D01*
X2527433Y10048352D01*
X2721836Y10115845D01*
X2899336Y10219967D01*
X3053112Y10356717D01*
X3177255Y10520840D01*
X3266994Y10706028D01*
X3276666Y10782877D01*
X3148998Y10942000D01*
X2159000Y10942000D01*
X1905000Y10942000D01*
X915002Y10942000D01*
X787334Y10782877D01*
X343000Y10782877D01*
X343000Y21082000D01*
X761553Y21082000D01*
X764001Y21057144D01*
X764000Y18345847D01*
X761553Y18321000D01*
X764000Y18296153D01*
X764000Y18058853D01*
X764001Y13105856D01*
X761553Y13081000D01*
X771322Y12981808D01*
X800255Y12886426D01*
X800256Y12886425D01*
X847242Y12798521D01*
X910474Y12721473D01*
X929780Y12705629D01*
X1009670Y12625739D01*
X999157Y12519000D01*
X999157Y12119000D01*
X1010356Y12005293D01*
X1043523Y11895956D01*
X1074555Y11837900D01*
X1010888Y11781283D01*
X886745Y11617160D01*
X797006Y11431972D01*
X787334Y11355123D01*
X915002Y11196000D01*
X1905000Y11196000D01*
X1905000Y11216000D01*
X2159000Y11216000D01*
X2159000Y11196000D01*
X3148998Y11196000D01*
X3276666Y11355123D01*
X3266994Y11431972D01*
X3177255Y11617160D01*
X3053112Y11781283D01*
X3017446Y11813000D01*
X4489409Y11813000D01*
X4713628Y11588780D01*
X4729473Y11569473D01*
X4806521Y11506241D01*
X4894425Y11459255D01*
X4967607Y11437056D01*
X4989806Y11430322D01*
X4999694Y11429348D01*
X5064146Y11423000D01*
X5064153Y11423000D01*
X5088999Y11420553D01*
X5113845Y11423000D01*
X6917921Y11423000D01*
X6940888Y11400033D01*
X7052426Y11325506D01*
X7176360Y11274171D01*
X7307927Y11248000D01*
X7442073Y11248000D01*
X7573640Y11274171D01*
X7697574Y11325506D01*
X7809112Y11400033D01*
X7903967Y11494888D01*
X7978494Y11606426D01*
X8029829Y11730360D01*
X8056000Y11861927D01*
X8056000Y11996073D01*
X8029829Y12127640D01*
X7978494Y12251574D01*
X7903967Y12363112D01*
X7809112Y12457967D01*
X7697574Y12532494D01*
X7573640Y12583829D01*
X7442073Y12610000D01*
X7307927Y12610000D01*
X7176360Y12583829D01*
X7052426Y12532494D01*
X6940888Y12457967D01*
X6917921Y12435000D01*
X5298592Y12435000D01*
X5074376Y12659215D01*
X5058527Y12678527D01*
X4981479Y12741759D01*
X4893575Y12788745D01*
X4798193Y12817678D01*
X4723854Y12825000D01*
X4723846Y12825000D01*
X4699000Y12827447D01*
X4674154Y12825000D01*
X2976136Y12825000D01*
X2966616Y12842810D01*
X2894132Y12931132D01*
X2805810Y13003616D01*
X2705044Y13057477D01*
X2595707Y13090644D01*
X2482000Y13101843D01*
X1964748Y13101843D01*
X1776000Y13290591D01*
X1776000Y16064000D01*
X2959928Y16064000D01*
X2972188Y15939518D01*
X3008498Y15819820D01*
X3067463Y15709506D01*
X3146815Y15612815D01*
X3243506Y15533463D01*
X3353820Y15474498D01*
X3473518Y15438188D01*
X3598000Y15425928D01*
X3887250Y15429000D01*
X4046000Y15587750D01*
X4046000Y16637000D01*
X3121750Y16637000D01*
X2963000Y16478250D01*
X2959928Y16064000D01*
X1776000Y16064000D01*
X1776000Y17464000D01*
X2959928Y17464000D01*
X2963000Y17049750D01*
X3121750Y16891000D01*
X4046000Y16891000D01*
X4046000Y17940250D01*
X4300000Y17940250D01*
X4300000Y16891000D01*
X4320000Y16891000D01*
X4320000Y16637000D01*
X4300000Y16637000D01*
X4300000Y15587750D01*
X4458750Y15429000D01*
X4748000Y15425928D01*
X4872482Y15438188D01*
X4992180Y15474498D01*
X5102494Y15533463D01*
X5199185Y15612815D01*
X5278537Y15709506D01*
X5337502Y15819820D01*
X5373812Y15939518D01*
X5375611Y15957780D01*
X5450512Y15866512D01*
X5546411Y15787810D01*
X5655821Y15729329D01*
X5774538Y15693317D01*
X5897999Y15681157D01*
X6548001Y15681157D01*
X6671462Y15693317D01*
X6790179Y15729329D01*
X6899589Y15787810D01*
X6995488Y15866512D01*
X7074190Y15962411D01*
X7132671Y16071821D01*
X7168683Y16190538D01*
X7180843Y16313999D01*
X7180843Y17214001D01*
X7169024Y17334001D01*
X10220157Y17334001D01*
X10220157Y16683999D01*
X10232317Y16560538D01*
X10268329Y16441821D01*
X10326810Y16332411D01*
X10405512Y16236512D01*
X10501411Y16157810D01*
X10610821Y16099329D01*
X10729538Y16063317D01*
X10852999Y16051157D01*
X11753001Y16051157D01*
X11876462Y16063317D01*
X11995179Y16099329D01*
X12104589Y16157810D01*
X12200488Y16236512D01*
X12279190Y16332411D01*
X12337671Y16441821D01*
X12356229Y16503000D01*
X13424771Y16503000D01*
X13443329Y16441821D01*
X13501810Y16332411D01*
X13580512Y16236512D01*
X13676411Y16157810D01*
X13785821Y16099329D01*
X13904538Y16063317D01*
X14027999Y16051157D01*
X14145252Y16051157D01*
X15296628Y14899780D01*
X15312473Y14880473D01*
X15389521Y14817241D01*
X15477425Y14770255D01*
X15572807Y14741322D01*
X15647146Y14734000D01*
X15647154Y14734000D01*
X15672000Y14731553D01*
X15696846Y14734000D01*
X18586409Y14734000D01*
X19592000Y13728408D01*
X19592001Y12632567D01*
X19591165Y12632221D01*
X19415915Y12515123D01*
X19266877Y12366085D01*
X19149779Y12190835D01*
X19069120Y11996107D01*
X19028000Y11789386D01*
X19028000Y11578614D01*
X19069120Y11371893D01*
X19149779Y11177165D01*
X19266877Y11001915D01*
X19415915Y10852877D01*
X19591165Y10735779D01*
X19785893Y10655120D01*
X19992614Y10614000D01*
X20203386Y10614000D01*
X20410107Y10655120D01*
X20604835Y10735779D01*
X20780085Y10852877D01*
X20929123Y11001915D01*
X21046221Y11177165D01*
X21126880Y11371893D01*
X21168000Y11578614D01*
X21168000Y11789386D01*
X21126880Y11996107D01*
X21046221Y12190835D01*
X20929123Y12366085D01*
X20780085Y12515123D01*
X20604835Y12632221D01*
X20604000Y12632567D01*
X20604000Y13913155D01*
X20606447Y13938001D01*
X20604000Y13962847D01*
X20604000Y13962854D01*
X20596678Y14037193D01*
X20567745Y14132575D01*
X20520759Y14220479D01*
X20457527Y14297527D01*
X20438220Y14313372D01*
X19171376Y15580215D01*
X19155527Y15599527D01*
X19078479Y15662759D01*
X18990575Y15709745D01*
X18895193Y15738678D01*
X18820854Y15746000D01*
X18820846Y15746000D01*
X18796000Y15748447D01*
X18771154Y15746000D01*
X15881592Y15746000D01*
X15382516Y16245076D01*
X15454190Y16332411D01*
X15512671Y16441821D01*
X15548683Y16560538D01*
X15560843Y16683999D01*
X15560843Y17334001D01*
X15548683Y17457462D01*
X15512671Y17576179D01*
X15454190Y17685589D01*
X15375488Y17781488D01*
X15279589Y17860190D01*
X15170179Y17918671D01*
X15051462Y17954683D01*
X14928001Y17966843D01*
X14027999Y17966843D01*
X13904538Y17954683D01*
X13785821Y17918671D01*
X13676411Y17860190D01*
X13580512Y17781488D01*
X13501810Y17685589D01*
X13443329Y17576179D01*
X13424771Y17515000D01*
X12356229Y17515000D01*
X12337671Y17576179D01*
X12279190Y17685589D01*
X12200488Y17781488D01*
X12104589Y17860190D01*
X11995179Y17918671D01*
X11876462Y17954683D01*
X11753001Y17966843D01*
X10852999Y17966843D01*
X10729538Y17954683D01*
X10610821Y17918671D01*
X10501411Y17860190D01*
X10405512Y17781488D01*
X10326810Y17685589D01*
X10268329Y17576179D01*
X10232317Y17457462D01*
X10220157Y17334001D01*
X7169024Y17334001D01*
X7168683Y17337462D01*
X7132671Y17456179D01*
X7074190Y17565589D01*
X6995488Y17661488D01*
X6899589Y17740190D01*
X6790179Y17798671D01*
X6729000Y17817229D01*
X6729000Y18916157D01*
X7083000Y18916157D01*
X7157689Y18923513D01*
X7229508Y18945299D01*
X7295696Y18980678D01*
X7353711Y19028289D01*
X7401322Y19086304D01*
X7418264Y19118000D01*
X10220157Y19118000D01*
X10220157Y18733999D01*
X10232317Y18610538D01*
X10268329Y18491821D01*
X10326810Y18382411D01*
X10405512Y18286512D01*
X10501411Y18207810D01*
X10610821Y18149329D01*
X10729538Y18113317D01*
X10852999Y18101157D01*
X11753001Y18101157D01*
X11876462Y18113317D01*
X11995179Y18149329D01*
X12104589Y18207810D01*
X12200488Y18286512D01*
X12279190Y18382411D01*
X12337671Y18491821D01*
X12373683Y18610538D01*
X12384997Y18725406D01*
X13043592Y19384001D01*
X13395157Y19384001D01*
X13395157Y18733999D01*
X13407317Y18610538D01*
X13443329Y18491821D01*
X13501810Y18382411D01*
X13580512Y18286512D01*
X13676411Y18207810D01*
X13785821Y18149329D01*
X13904538Y18113317D01*
X14027999Y18101157D01*
X14928001Y18101157D01*
X15051462Y18113317D01*
X15170179Y18149329D01*
X15279589Y18207810D01*
X15375488Y18286512D01*
X15454190Y18382411D01*
X15512671Y18491821D01*
X15530806Y18551603D01*
X15750001Y18332408D01*
X15750000Y17730847D01*
X15747553Y17706000D01*
X15750000Y17681154D01*
X15750000Y17681147D01*
X15757322Y17606808D01*
X15786255Y17511426D01*
X15833241Y17423521D01*
X15896473Y17346473D01*
X15915785Y17330624D01*
X16571003Y16675405D01*
X16582317Y16560538D01*
X16618329Y16441821D01*
X16676810Y16332411D01*
X16755512Y16236512D01*
X16851411Y16157810D01*
X16960821Y16099329D01*
X17079538Y16063317D01*
X17202999Y16051157D01*
X18103001Y16051157D01*
X18226462Y16063317D01*
X18345179Y16099329D01*
X18454589Y16157810D01*
X18550488Y16236512D01*
X18629190Y16332411D01*
X18687671Y16441821D01*
X18723683Y16560538D01*
X18735843Y16683999D01*
X18735843Y17334001D01*
X18723683Y17457462D01*
X18687671Y17576179D01*
X18629190Y17685589D01*
X18550488Y17781488D01*
X18454589Y17860190D01*
X18345179Y17918671D01*
X18226462Y17954683D01*
X18103001Y17966843D01*
X17202999Y17966843D01*
X17079538Y17954683D01*
X16960821Y17918671D01*
X16851411Y17860190D01*
X16832731Y17844860D01*
X16762000Y17915591D01*
X16762000Y18281187D01*
X16851411Y18207810D01*
X16960821Y18149329D01*
X17079538Y18113317D01*
X17202999Y18101157D01*
X18103001Y18101157D01*
X18226462Y18113317D01*
X18345179Y18149329D01*
X18454589Y18207810D01*
X18550488Y18286512D01*
X18629190Y18382411D01*
X18687671Y18491821D01*
X18723683Y18610538D01*
X18735843Y18733999D01*
X18735843Y19384001D01*
X18723683Y19507462D01*
X18687671Y19626179D01*
X18629190Y19735589D01*
X18550488Y19831488D01*
X18454589Y19910190D01*
X18345179Y19968671D01*
X18226462Y20004683D01*
X18159000Y20011328D01*
X18159000Y20882672D01*
X18226462Y20889317D01*
X18345179Y20925329D01*
X18454589Y20983810D01*
X18550488Y21062512D01*
X18629190Y21158411D01*
X18687671Y21267821D01*
X18723683Y21386538D01*
X18735843Y21509999D01*
X18735843Y22160001D01*
X18723683Y22283462D01*
X18687671Y22402179D01*
X18629190Y22511589D01*
X18550488Y22607488D01*
X18454589Y22686190D01*
X18345179Y22744671D01*
X18226462Y22780683D01*
X18103001Y22792843D01*
X17202999Y22792843D01*
X17079538Y22780683D01*
X16960821Y22744671D01*
X16851411Y22686190D01*
X16755512Y22607488D01*
X16676810Y22511589D01*
X16618329Y22402179D01*
X16582317Y22283462D01*
X16580991Y22270000D01*
X15500843Y22270000D01*
X15500843Y22544000D01*
X15493487Y22618689D01*
X15471701Y22690508D01*
X15436322Y22756696D01*
X15388711Y22814711D01*
X15330696Y22862322D01*
X15264508Y22897701D01*
X15192689Y22919487D01*
X15118000Y22926843D01*
X14468000Y22926843D01*
X14393311Y22919487D01*
X14321492Y22897701D01*
X14255304Y22862322D01*
X14197289Y22814711D01*
X14149678Y22756696D01*
X14114299Y22690508D01*
X14092513Y22618689D01*
X14085157Y22544000D01*
X14085157Y20984000D01*
X14092513Y20909311D01*
X14114299Y20837492D01*
X14149678Y20771304D01*
X14197289Y20713289D01*
X14255304Y20665678D01*
X14321492Y20630299D01*
X14393311Y20608513D01*
X14468000Y20601157D01*
X15118000Y20601157D01*
X15192689Y20608513D01*
X15264508Y20630299D01*
X15330696Y20665678D01*
X15388711Y20713289D01*
X15436322Y20771304D01*
X15471701Y20837492D01*
X15493487Y20909311D01*
X15500843Y20984000D01*
X15500843Y21258000D01*
X16623578Y21258000D01*
X16676810Y21158411D01*
X16755512Y21062512D01*
X16851411Y20983810D01*
X16960821Y20925329D01*
X17079538Y20889317D01*
X17147001Y20882672D01*
X17147000Y20011328D01*
X17079538Y20004683D01*
X16960821Y19968671D01*
X16851411Y19910190D01*
X16755512Y19831488D01*
X16676810Y19735589D01*
X16618329Y19626179D01*
X16582317Y19507462D01*
X16570157Y19384001D01*
X16570157Y18943435D01*
X16114376Y19399215D01*
X16098527Y19418527D01*
X16021479Y19481759D01*
X15933575Y19528745D01*
X15838193Y19557678D01*
X15763854Y19565000D01*
X15763846Y19565000D01*
X15739000Y19567447D01*
X15714154Y19565000D01*
X15531229Y19565000D01*
X15512671Y19626179D01*
X15454190Y19735589D01*
X15375488Y19831488D01*
X15279589Y19910190D01*
X15170179Y19968671D01*
X15051462Y20004683D01*
X14928001Y20016843D01*
X14027999Y20016843D01*
X13904538Y20004683D01*
X13785821Y19968671D01*
X13676411Y19910190D01*
X13580512Y19831488D01*
X13501810Y19735589D01*
X13443329Y19626179D01*
X13407317Y19507462D01*
X13395157Y19384001D01*
X13043592Y19384001D01*
X13233220Y19573628D01*
X13252527Y19589473D01*
X13315759Y19666521D01*
X13362745Y19754425D01*
X13391678Y19849807D01*
X13399000Y19924146D01*
X13399000Y19924153D01*
X13401447Y19948999D01*
X13399000Y19973845D01*
X13399000Y20648736D01*
X13430696Y20665678D01*
X13488711Y20713289D01*
X13536322Y20771304D01*
X13571701Y20837492D01*
X13593487Y20909311D01*
X13600843Y20984000D01*
X13600843Y22544000D01*
X13593487Y22618689D01*
X13571701Y22690508D01*
X13536322Y22756696D01*
X13488711Y22814711D01*
X13430696Y22862322D01*
X13364508Y22897701D01*
X13292689Y22919487D01*
X13218000Y22926843D01*
X12568000Y22926843D01*
X12493311Y22919487D01*
X12421492Y22897701D01*
X12355304Y22862322D01*
X12297289Y22814711D01*
X12249678Y22756696D01*
X12214299Y22690508D01*
X12192513Y22618689D01*
X12185157Y22544000D01*
X12185157Y20984000D01*
X12192513Y20909311D01*
X12214299Y20837492D01*
X12249678Y20771304D01*
X12297289Y20713289D01*
X12355304Y20665678D01*
X12387001Y20648735D01*
X12387000Y20158592D01*
X12123269Y19894860D01*
X12104589Y19910190D01*
X11995179Y19968671D01*
X11876462Y20004683D01*
X11809000Y20011328D01*
X11809000Y21240146D01*
X11811448Y21265000D01*
X11801678Y21364193D01*
X11772745Y21459575D01*
X11761396Y21480807D01*
X11725759Y21547479D01*
X11662527Y21624527D01*
X11643220Y21640372D01*
X11114997Y22168594D01*
X11103683Y22283462D01*
X11067671Y22402179D01*
X11009190Y22511589D01*
X10930488Y22607488D01*
X10839220Y22682389D01*
X10857482Y22684188D01*
X10977180Y22720498D01*
X11087494Y22779463D01*
X11184185Y22858815D01*
X11263537Y22955506D01*
X11322502Y23065820D01*
X11358812Y23185518D01*
X11371072Y23310000D01*
X11368000Y23599250D01*
X11209250Y23758000D01*
X10160000Y23758000D01*
X10160000Y23738000D01*
X9906000Y23738000D01*
X9906000Y23758000D01*
X8856750Y23758000D01*
X8698000Y23599250D01*
X8694928Y23310000D01*
X8707188Y23185518D01*
X8743498Y23065820D01*
X8802463Y22955506D01*
X8881815Y22858815D01*
X8978506Y22779463D01*
X9088820Y22720498D01*
X9208518Y22684188D01*
X9226780Y22682389D01*
X9159430Y22627117D01*
X8750754Y22958441D01*
X8380000Y23460565D01*
X8380000Y24460000D01*
X8694928Y24460000D01*
X8698000Y24170750D01*
X8856750Y24012000D01*
X9906000Y24012000D01*
X9906000Y24936250D01*
X10160000Y24936250D01*
X10160000Y24012000D01*
X11209250Y24012000D01*
X11368000Y24170750D01*
X11371072Y24460000D01*
X11358812Y24584482D01*
X11322502Y24704180D01*
X11263537Y24814494D01*
X11184185Y24911185D01*
X11087494Y24990537D01*
X10977180Y25049502D01*
X10857482Y25085812D01*
X10733000Y25098072D01*
X10318750Y25095000D01*
X10160000Y24936250D01*
X9906000Y24936250D01*
X9747250Y25095000D01*
X9333000Y25098072D01*
X9208518Y25085812D01*
X9088820Y25049502D01*
X8978506Y24990537D01*
X8881815Y24911185D01*
X8802463Y24814494D01*
X8743498Y24704180D01*
X8707188Y24584482D01*
X8694928Y24460000D01*
X8380000Y24460000D01*
X8380000Y25244000D01*
X12185157Y25244000D01*
X12185157Y23684000D01*
X12192513Y23609311D01*
X12214299Y23537492D01*
X12249678Y23471304D01*
X12297289Y23413289D01*
X12355304Y23365678D01*
X12421492Y23330299D01*
X12493311Y23308513D01*
X12568000Y23301157D01*
X13010728Y23301157D01*
X13066815Y23232815D01*
X13163506Y23153463D01*
X13273820Y23094498D01*
X13393518Y23058188D01*
X13518000Y23045928D01*
X13557250Y23049000D01*
X13716000Y23207750D01*
X13716000Y24337000D01*
X13696000Y24337000D01*
X13696000Y24591000D01*
X13716000Y24591000D01*
X13716000Y25720250D01*
X13628417Y25807833D01*
X13635000Y25840927D01*
X13635000Y25975073D01*
X13608829Y26106640D01*
X13557494Y26230574D01*
X13482967Y26342112D01*
X13388112Y26436967D01*
X13276574Y26511494D01*
X13152640Y26562829D01*
X13021073Y26589000D01*
X12886927Y26589000D01*
X12755360Y26562829D01*
X12631426Y26511494D01*
X12519888Y26436967D01*
X12425033Y26342112D01*
X12350506Y26230574D01*
X12299171Y26106640D01*
X12273000Y25975073D01*
X12273000Y25840927D01*
X12299171Y25709360D01*
X12350506Y25585426D01*
X12363144Y25566512D01*
X12355304Y25562322D01*
X12297289Y25514711D01*
X12249678Y25456696D01*
X12214299Y25390508D01*
X12192513Y25318689D01*
X12185157Y25244000D01*
X8380000Y25244000D01*
X8380000Y28644000D01*
X9964928Y28644000D01*
X9977188Y28519518D01*
X10013498Y28399820D01*
X10072463Y28289506D01*
X10151815Y28192815D01*
X10248506Y28113463D01*
X10358820Y28054498D01*
X10478518Y28018188D01*
X10496780Y28016389D01*
X10405512Y27941488D01*
X10326810Y27845589D01*
X10268329Y27736179D01*
X10232317Y27617462D01*
X10220157Y27494001D01*
X10220157Y26843999D01*
X10232317Y26720538D01*
X10268329Y26601821D01*
X10326810Y26492411D01*
X10405512Y26396512D01*
X10501411Y26317810D01*
X10610821Y26259329D01*
X10729538Y26223317D01*
X10852999Y26211157D01*
X11753001Y26211157D01*
X11876462Y26223317D01*
X11995179Y26259329D01*
X12104589Y26317810D01*
X12200488Y26396512D01*
X12279190Y26492411D01*
X12337671Y26601821D01*
X12356229Y26663000D01*
X13424771Y26663000D01*
X13443329Y26601821D01*
X13501810Y26492411D01*
X13580512Y26396512D01*
X13676411Y26317810D01*
X13785821Y26259329D01*
X13904538Y26223317D01*
X14027999Y26211157D01*
X14287001Y26211157D01*
X14287001Y25870352D01*
X14168000Y25882072D01*
X14128750Y25879000D01*
X13970000Y25720250D01*
X13970000Y24591000D01*
X13990000Y24591000D01*
X13990000Y24337000D01*
X13970000Y24337000D01*
X13970000Y23207750D01*
X14128750Y23049000D01*
X14168000Y23045928D01*
X14292482Y23058188D01*
X14412180Y23094498D01*
X14522494Y23153463D01*
X14619185Y23232815D01*
X14675272Y23301157D01*
X15118000Y23301157D01*
X15192689Y23308513D01*
X15264508Y23330299D01*
X15330696Y23365678D01*
X15388711Y23413289D01*
X15436322Y23471304D01*
X15471701Y23537492D01*
X15493487Y23609311D01*
X15500843Y23684000D01*
X15500843Y25244000D01*
X15493487Y25318689D01*
X15471701Y25390508D01*
X15436322Y25456696D01*
X15388711Y25514711D01*
X15330696Y25562322D01*
X15299000Y25579264D01*
X15299000Y25975073D01*
X15321000Y25975073D01*
X15321000Y25840927D01*
X15347171Y25709360D01*
X15398506Y25585426D01*
X15473033Y25473888D01*
X15567888Y25379033D01*
X15679426Y25304506D01*
X15803360Y25253171D01*
X15934927Y25227000D01*
X16069073Y25227000D01*
X16153596Y25243813D01*
X16748484Y24648924D01*
X16676810Y24561589D01*
X16618329Y24452179D01*
X16582317Y24333462D01*
X16570157Y24210001D01*
X16570157Y23559999D01*
X16582317Y23436538D01*
X16618329Y23317821D01*
X16676810Y23208411D01*
X16755512Y23112512D01*
X16851411Y23033810D01*
X16960821Y22975329D01*
X17079538Y22939317D01*
X17202999Y22927157D01*
X18103001Y22927157D01*
X18226462Y22939317D01*
X18345179Y22975329D01*
X18454589Y23033810D01*
X18550488Y23112512D01*
X18629190Y23208411D01*
X18687671Y23317821D01*
X18723683Y23436538D01*
X18734997Y23551406D01*
X20585592Y25402000D01*
X23164921Y25402000D01*
X23187888Y25379033D01*
X23299426Y25304506D01*
X23423360Y25253171D01*
X23554927Y25227000D01*
X23689073Y25227000D01*
X23820640Y25253171D01*
X23944574Y25304506D01*
X24056112Y25379033D01*
X24150967Y25473888D01*
X24225494Y25585426D01*
X24276829Y25709360D01*
X24303000Y25840927D01*
X24303000Y25975073D01*
X24276829Y26106640D01*
X24225494Y26230574D01*
X24150967Y26342112D01*
X24056112Y26436967D01*
X23944574Y26511494D01*
X23820640Y26562829D01*
X23689073Y26589000D01*
X23554927Y26589000D01*
X23423360Y26562829D01*
X23299426Y26511494D01*
X23187888Y26436967D01*
X23164921Y26414000D01*
X20400845Y26414000D01*
X20375999Y26416447D01*
X20351153Y26414000D01*
X20351146Y26414000D01*
X20276807Y26406678D01*
X20181425Y26377745D01*
X20093521Y26330759D01*
X20016473Y26267527D01*
X20000628Y26248220D01*
X18473269Y24720860D01*
X18454589Y24736190D01*
X18345179Y24794671D01*
X18226462Y24830683D01*
X18103001Y24842843D01*
X17985749Y24842843D01*
X16610781Y26217810D01*
X16605494Y26230574D01*
X16530967Y26342112D01*
X16436112Y26436967D01*
X16324574Y26511494D01*
X16200640Y26562829D01*
X16069073Y26589000D01*
X15934927Y26589000D01*
X15803360Y26562829D01*
X15679426Y26511494D01*
X15567888Y26436967D01*
X15473033Y26342112D01*
X15398506Y26230574D01*
X15347171Y26106640D01*
X15321000Y25975073D01*
X15299000Y25975073D01*
X15299000Y26333740D01*
X15375488Y26396512D01*
X15454190Y26492411D01*
X15512671Y26601821D01*
X15531229Y26663000D01*
X16599771Y26663000D01*
X16618329Y26601821D01*
X16676810Y26492411D01*
X16755512Y26396512D01*
X16851411Y26317810D01*
X16960821Y26259329D01*
X17079538Y26223317D01*
X17202999Y26211157D01*
X18103001Y26211157D01*
X18226462Y26223317D01*
X18345179Y26259329D01*
X18454589Y26317810D01*
X18550488Y26396512D01*
X18629190Y26492411D01*
X18687671Y26601821D01*
X18723683Y26720538D01*
X18735843Y26843999D01*
X18735843Y27494001D01*
X18723683Y27617462D01*
X18687671Y27736179D01*
X18629190Y27845589D01*
X18550488Y27941488D01*
X18454589Y28020190D01*
X18345179Y28078671D01*
X18226462Y28114683D01*
X18103001Y28126843D01*
X17202999Y28126843D01*
X17079538Y28114683D01*
X16960821Y28078671D01*
X16851411Y28020190D01*
X16755512Y27941488D01*
X16676810Y27845589D01*
X16618329Y27736179D01*
X16599771Y27675000D01*
X15531229Y27675000D01*
X15512671Y27736179D01*
X15454190Y27845589D01*
X15375488Y27941488D01*
X15284220Y28016389D01*
X15302482Y28018188D01*
X15422180Y28054498D01*
X15532494Y28113463D01*
X15629185Y28192815D01*
X15708537Y28289506D01*
X15767502Y28399820D01*
X15803812Y28519518D01*
X15816072Y28644000D01*
X15813000Y28933250D01*
X15654250Y29092000D01*
X14605000Y29092000D01*
X14605000Y29072000D01*
X14351000Y29072000D01*
X14351000Y29092000D01*
X13301750Y29092000D01*
X13143000Y28933250D01*
X13139928Y28644000D01*
X13152188Y28519518D01*
X13188498Y28399820D01*
X13247463Y28289506D01*
X13326815Y28192815D01*
X13423506Y28113463D01*
X13533820Y28054498D01*
X13653518Y28018188D01*
X13671780Y28016389D01*
X13580512Y27941488D01*
X13501810Y27845589D01*
X13443329Y27736179D01*
X13424771Y27675000D01*
X12356229Y27675000D01*
X12337671Y27736179D01*
X12279190Y27845589D01*
X12200488Y27941488D01*
X12109220Y28016389D01*
X12127482Y28018188D01*
X12247180Y28054498D01*
X12357494Y28113463D01*
X12454185Y28192815D01*
X12533537Y28289506D01*
X12592502Y28399820D01*
X12628812Y28519518D01*
X12641072Y28644000D01*
X12638000Y28933250D01*
X12479250Y29092000D01*
X11430000Y29092000D01*
X11430000Y29072000D01*
X11176000Y29072000D01*
X11176000Y29092000D01*
X10126750Y29092000D01*
X9968000Y28933250D01*
X9964928Y28644000D01*
X8380000Y28644000D01*
X8380000Y31798409D01*
X10038628Y30139780D01*
X10054473Y30120473D01*
X10056567Y30118755D01*
X10013498Y30038180D01*
X9977188Y29918482D01*
X9964928Y29794000D01*
X9968000Y29504750D01*
X10126750Y29346000D01*
X11176000Y29346000D01*
X11176000Y29366000D01*
X11430000Y29366000D01*
X11430000Y29346000D01*
X12479250Y29346000D01*
X12638000Y29504750D01*
X12641072Y29794000D01*
X12628812Y29918482D01*
X12611971Y29974000D01*
X13169029Y29974000D01*
X13152188Y29918482D01*
X13139928Y29794000D01*
X13143000Y29504750D01*
X13301750Y29346000D01*
X14351000Y29346000D01*
X14351000Y29366000D01*
X14605000Y29366000D01*
X14605000Y29346000D01*
X15654250Y29346000D01*
X15813000Y29504750D01*
X15816072Y29794000D01*
X15803812Y29918482D01*
X15786971Y29974000D01*
X16741160Y29974000D01*
X16676810Y29895589D01*
X16618329Y29786179D01*
X16582317Y29667462D01*
X16570157Y29544001D01*
X16570157Y28893999D01*
X16582317Y28770538D01*
X16618329Y28651821D01*
X16676810Y28542411D01*
X16755512Y28446512D01*
X16851411Y28367810D01*
X16960821Y28309329D01*
X17079538Y28273317D01*
X17202999Y28261157D01*
X18103001Y28261157D01*
X18226462Y28273317D01*
X18345179Y28309329D01*
X18454589Y28367810D01*
X18550488Y28446512D01*
X18629190Y28542411D01*
X18687671Y28651821D01*
X18703499Y28704000D01*
X21565146Y28704000D01*
X21590000Y28701552D01*
X21614854Y28704000D01*
X21689193Y28711322D01*
X21784575Y28740255D01*
X21872479Y28787241D01*
X21949527Y28850473D01*
X22012759Y28927521D01*
X22059745Y29015425D01*
X22088678Y29110807D01*
X22098448Y29210000D01*
X22096000Y29234854D01*
X22096000Y33572409D01*
X22640592Y34117000D01*
X22673073Y34117000D01*
X22804640Y34143171D01*
X22928574Y34194506D01*
X23040112Y34269033D01*
X23134967Y34363888D01*
X23209494Y34475426D01*
X23260829Y34599360D01*
X23287000Y34730927D01*
X23287000Y34865073D01*
X23260829Y34996640D01*
X23237070Y35054000D01*
X25450921Y35054000D01*
X25473888Y35031033D01*
X25585426Y34956506D01*
X25709360Y34905171D01*
X25840927Y34879000D01*
X25975073Y34879000D01*
X26106640Y34905171D01*
X26230574Y34956506D01*
X26342112Y35031033D01*
X26418000Y35106921D01*
X26418001Y23323593D01*
X24174409Y21080000D01*
X22555079Y21080000D01*
X22532112Y21102967D01*
X22420574Y21177494D01*
X22296640Y21228829D01*
X22165073Y21255000D01*
X22030927Y21255000D01*
X21899360Y21228829D01*
X21775426Y21177494D01*
X21663888Y21102967D01*
X21569033Y21008112D01*
X21494506Y20896574D01*
X21443171Y20772640D01*
X21417000Y20641073D01*
X21417000Y20506927D01*
X21443171Y20375360D01*
X21494506Y20251426D01*
X21569033Y20139888D01*
X21663888Y20045033D01*
X21775426Y19970506D01*
X21899360Y19919171D01*
X22030927Y19893000D01*
X22165073Y19893000D01*
X22296640Y19919171D01*
X22420574Y19970506D01*
X22532112Y20045033D01*
X22555079Y20068000D01*
X24359154Y20068000D01*
X24384000Y20065553D01*
X24408846Y20068000D01*
X24408854Y20068000D01*
X24483193Y20075322D01*
X24578575Y20104255D01*
X24666479Y20151241D01*
X24743527Y20214473D01*
X24759376Y20233785D01*
X27264220Y22738628D01*
X27283527Y22754473D01*
X27346759Y22831521D01*
X27393745Y22919425D01*
X27422261Y23013433D01*
X27422678Y23014806D01*
X27426719Y23055835D01*
X27430000Y23089146D01*
X27430000Y23089153D01*
X27432447Y23113999D01*
X27430000Y23138845D01*
X27430000Y36297155D01*
X27432447Y36322001D01*
X27430000Y36346847D01*
X27430000Y36346854D01*
X27422678Y36421193D01*
X27393745Y36516575D01*
X27346759Y36604479D01*
X27283527Y36681527D01*
X27264220Y36697372D01*
X26791376Y37170215D01*
X26775527Y37189527D01*
X26698479Y37252759D01*
X26610575Y37299745D01*
X26515193Y37328678D01*
X26440854Y37336000D01*
X26440846Y37336000D01*
X26416000Y37338447D01*
X26391154Y37336000D01*
X22307592Y37336000D01*
X21711376Y37932215D01*
X21695527Y37951527D01*
X21618479Y38014759D01*
X21530575Y38061745D01*
X21435193Y38090678D01*
X21360854Y38098000D01*
X21360846Y38098000D01*
X21336000Y38100447D01*
X21311154Y38098000D01*
X17141070Y38098000D01*
X17164829Y38155360D01*
X17191000Y38286927D01*
X17191000Y38319408D01*
X17358220Y38486628D01*
X17377527Y38502473D01*
X17440759Y38579521D01*
X17487745Y38667425D01*
X17516678Y38762807D01*
X17524000Y38837146D01*
X17524000Y38837153D01*
X17526447Y38861999D01*
X17524000Y38886845D01*
X17524000Y39098430D01*
X17536815Y39082815D01*
X17633506Y39003463D01*
X17743820Y38944498D01*
X17863518Y38908188D01*
X17988000Y38895928D01*
X18002250Y38899000D01*
X18161000Y39057750D01*
X18161000Y40207000D01*
X18415000Y40207000D01*
X18415000Y39057750D01*
X18573750Y38899000D01*
X18588000Y38895928D01*
X18712482Y38908188D01*
X18832180Y38944498D01*
X18942494Y39003463D01*
X19039185Y39082815D01*
X19118537Y39179506D01*
X19177502Y39289820D01*
X19213812Y39409518D01*
X19226072Y39534000D01*
X19223000Y40048250D01*
X19064250Y40207000D01*
X18415000Y40207000D01*
X18161000Y40207000D01*
X18141000Y40207000D01*
X18141000Y40461000D01*
X18161000Y40461000D01*
X18161000Y41610250D01*
X18415000Y41610250D01*
X18415000Y40461000D01*
X19064250Y40461000D01*
X19223000Y40619750D01*
X19226072Y41134000D01*
X19213812Y41258482D01*
X19177502Y41378180D01*
X19118537Y41488494D01*
X19039185Y41585185D01*
X18942494Y41664537D01*
X18832180Y41723502D01*
X18712482Y41759812D01*
X18588000Y41772072D01*
X18573750Y41769000D01*
X18415000Y41610250D01*
X18161000Y41610250D01*
X18002250Y41769000D01*
X17988000Y41772072D01*
X17863518Y41759812D01*
X17743820Y41723502D01*
X17633506Y41664537D01*
X17536815Y41585185D01*
X17457463Y41488494D01*
X17433375Y41443429D01*
X17371910Y41476283D01*
X17271953Y41506605D01*
X17168000Y41516843D01*
X16868000Y41516843D01*
X16764047Y41506605D01*
X16664090Y41476283D01*
X16571968Y41427043D01*
X16491223Y41360777D01*
X16424957Y41280032D01*
X16383000Y41201536D01*
X16341043Y41280032D01*
X16274777Y41360777D01*
X16254000Y41377828D01*
X16254000Y42722921D01*
X16276967Y42745888D01*
X16351494Y42857426D01*
X16402829Y42981360D01*
X16429000Y43112927D01*
X16429000Y43247073D01*
X16402829Y43378640D01*
X16351494Y43502574D01*
X16276967Y43614112D01*
X16182112Y43708967D01*
X16070574Y43783494D01*
X15946640Y43834829D01*
X15815073Y43861000D01*
X15680927Y43861000D01*
X15549360Y43834829D01*
X15425426Y43783494D01*
X15313888Y43708967D01*
X15219033Y43614112D01*
X15144506Y43502574D01*
X15093171Y43378640D01*
X15067000Y43247073D01*
X15067000Y43112927D01*
X15093171Y42981360D01*
X15144506Y42857426D01*
X15219033Y42745888D01*
X15242000Y42722921D01*
X15242001Y41377829D01*
X15221223Y41360777D01*
X15154957Y41280032D01*
X15113000Y41201536D01*
X15071043Y41280032D01*
X15004777Y41360777D01*
X14924032Y41427043D01*
X14831910Y41476283D01*
X14731953Y41506605D01*
X14628000Y41516843D01*
X14328000Y41516843D01*
X14224047Y41506605D01*
X14124090Y41476283D01*
X14031968Y41427043D01*
X13951223Y41360777D01*
X13884957Y41280032D01*
X13843000Y41201536D01*
X13801043Y41280032D01*
X13734777Y41360777D01*
X13714000Y41377828D01*
X13714000Y44250921D01*
X13789888Y44175033D01*
X13901426Y44100506D01*
X14025360Y44049171D01*
X14156927Y44023000D01*
X14291073Y44023000D01*
X14422640Y44049171D01*
X14546574Y44100506D01*
X14658112Y44175033D01*
X14752967Y44269888D01*
X14827494Y44381426D01*
X14878829Y44505360D01*
X14905000Y44636927D01*
X14905000Y44771073D01*
X14878829Y44902640D01*
X14827494Y45026574D01*
X14752967Y45138112D01*
X14730000Y45161079D01*
X14730000Y48259000D01*
X14750157Y48259000D01*
X14750157Y46909000D01*
X14757513Y46834311D01*
X14779299Y46762492D01*
X14814678Y46696304D01*
X14862289Y46638289D01*
X14920304Y46590678D01*
X14986492Y46555299D01*
X15058311Y46533513D01*
X15133000Y46526157D01*
X17033000Y46526157D01*
X17107689Y46533513D01*
X17179508Y46555299D01*
X17245696Y46590678D01*
X17303711Y46638289D01*
X17351322Y46696304D01*
X17386701Y46762492D01*
X17408487Y46834311D01*
X17415843Y46909000D01*
X17415843Y48259000D01*
X17408487Y48333689D01*
X17386701Y48405508D01*
X17351322Y48471696D01*
X17303711Y48529711D01*
X17245696Y48577322D01*
X17179508Y48612701D01*
X17107689Y48634487D01*
X17033000Y48641843D01*
X15133000Y48641843D01*
X15058311Y48634487D01*
X14986492Y48612701D01*
X14920304Y48577322D01*
X14862289Y48529711D01*
X14814678Y48471696D01*
X14779299Y48405508D01*
X14757513Y48333689D01*
X14750157Y48259000D01*
X14730000Y48259000D01*
X14730000Y49059000D01*
X18600157Y49059000D01*
X18600157Y48059000D01*
X18607513Y47984311D01*
X18629299Y47912492D01*
X18664678Y47846304D01*
X18712289Y47788289D01*
X18770304Y47740678D01*
X18836492Y47705299D01*
X18908311Y47683513D01*
X18983000Y47676157D01*
X20183000Y47676157D01*
X20257689Y47683513D01*
X20329508Y47705299D01*
X20395696Y47740678D01*
X20453711Y47788289D01*
X20501322Y47846304D01*
X20536701Y47912492D01*
X20558487Y47984311D01*
X20565843Y48059000D01*
X20565843Y49059000D01*
X20558487Y49133689D01*
X20536701Y49205508D01*
X20501322Y49271696D01*
X20453711Y49329711D01*
X20395696Y49377322D01*
X20329508Y49412701D01*
X20257689Y49434487D01*
X20183000Y49441843D01*
X18983000Y49441843D01*
X18908311Y49434487D01*
X18836492Y49412701D01*
X18770304Y49377322D01*
X18712289Y49329711D01*
X18664678Y49271696D01*
X18629299Y49205508D01*
X18607513Y49133689D01*
X18600157Y49059000D01*
X14730000Y49059000D01*
X14730000Y49574409D01*
X16188220Y51032628D01*
X16207527Y51048473D01*
X16270759Y51125521D01*
X16317745Y51213425D01*
X16346678Y51308807D01*
X16354000Y51383146D01*
X16356448Y51408000D01*
X16354000Y51432854D01*
X16354000Y52759000D01*
X18600157Y52759000D01*
X18600157Y51759000D01*
X18607513Y51684311D01*
X18629299Y51612492D01*
X18664678Y51546304D01*
X18712289Y51488289D01*
X18770304Y51440678D01*
X18836492Y51405299D01*
X18908311Y51383513D01*
X18983000Y51376157D01*
X20183000Y51376157D01*
X20257689Y51383513D01*
X20329508Y51405299D01*
X20395696Y51440678D01*
X20453711Y51488289D01*
X20501322Y51546304D01*
X20536701Y51612492D01*
X20558487Y51684311D01*
X20565843Y51759000D01*
X20565843Y52759000D01*
X20558487Y52833689D01*
X20536701Y52905508D01*
X20501322Y52971696D01*
X20453711Y53029711D01*
X20395696Y53077322D01*
X20329508Y53112701D01*
X20257689Y53134487D01*
X20183000Y53141843D01*
X18983000Y53141843D01*
X18908311Y53134487D01*
X18836492Y53112701D01*
X18770304Y53077322D01*
X18712289Y53029711D01*
X18664678Y52971696D01*
X18629299Y52905508D01*
X18607513Y52833689D01*
X18600157Y52759000D01*
X16354000Y52759000D01*
X16354000Y56387409D01*
X18471628Y54269780D01*
X18487473Y54250473D01*
X18564521Y54187241D01*
X18652425Y54140255D01*
X18725607Y54118056D01*
X18747806Y54111322D01*
X18757694Y54110348D01*
X18822146Y54104000D01*
X18822153Y54104000D01*
X18846999Y54101553D01*
X18871845Y54104000D01*
X21640921Y54104000D01*
X21663888Y54081033D01*
X21775426Y54006506D01*
X21899360Y53955171D01*
X22030927Y53929000D01*
X22165073Y53929000D01*
X22296640Y53955171D01*
X22420574Y54006506D01*
X22532112Y54081033D01*
X22626967Y54175888D01*
X22701494Y54287426D01*
X22752829Y54411360D01*
X22779000Y54542927D01*
X22779000Y54677073D01*
X22752829Y54808640D01*
X22701494Y54932574D01*
X22626967Y55044112D01*
X22532112Y55138967D01*
X22420574Y55213494D01*
X22296640Y55264829D01*
X22165073Y55291000D01*
X22030927Y55291000D01*
X21899360Y55264829D01*
X21775426Y55213494D01*
X21663888Y55138967D01*
X21640921Y55116000D01*
X19056592Y55116000D01*
X16696434Y57476157D01*
X17373000Y57476157D01*
X17447689Y57483513D01*
X17519508Y57505299D01*
X17585696Y57540678D01*
X17643711Y57588289D01*
X17691322Y57646304D01*
X17726701Y57712492D01*
X17748487Y57784311D01*
X17755843Y57859000D01*
X17755843Y58959000D01*
X18250157Y58959000D01*
X18250157Y57609000D01*
X18257513Y57534311D01*
X18279299Y57462492D01*
X18314678Y57396304D01*
X18362289Y57338289D01*
X18420304Y57290678D01*
X18486492Y57255299D01*
X18558311Y57233513D01*
X18633000Y57226157D01*
X20183000Y57226157D01*
X20257689Y57233513D01*
X20329508Y57255299D01*
X20395696Y57290678D01*
X20400025Y57294231D01*
X22970395Y57294231D01*
X22970395Y56911769D01*
X23045009Y56536655D01*
X23191372Y56183305D01*
X23403857Y55865299D01*
X23674299Y55594857D01*
X23992305Y55382372D01*
X24345655Y55236009D01*
X24720769Y55161395D01*
X25103231Y55161395D01*
X25478345Y55236009D01*
X25831695Y55382372D01*
X26149701Y55594857D01*
X26420143Y55865299D01*
X26632628Y56183305D01*
X26778991Y56536655D01*
X26853605Y56911769D01*
X26853605Y57294231D01*
X26778991Y57669345D01*
X26632628Y58022695D01*
X26420143Y58340701D01*
X26149701Y58611143D01*
X25831695Y58823628D01*
X25478345Y58969991D01*
X25103231Y59044605D01*
X24720769Y59044605D01*
X24345655Y58969991D01*
X23992305Y58823628D01*
X23674299Y58611143D01*
X23403857Y58340701D01*
X23191372Y58022695D01*
X23045009Y57669345D01*
X22970395Y57294231D01*
X20400025Y57294231D01*
X20453711Y57338289D01*
X20501322Y57396304D01*
X20536701Y57462492D01*
X20558487Y57534311D01*
X20565843Y57609000D01*
X20565843Y58959000D01*
X20558487Y59033689D01*
X20536701Y59105508D01*
X20501322Y59171696D01*
X20453711Y59229711D01*
X20395696Y59277322D01*
X20329508Y59312701D01*
X20257689Y59334487D01*
X20183000Y59341843D01*
X18633000Y59341843D01*
X18558311Y59334487D01*
X18486492Y59312701D01*
X18420304Y59277322D01*
X18362289Y59229711D01*
X18314678Y59171696D01*
X18279299Y59105508D01*
X18257513Y59033689D01*
X18250157Y58959000D01*
X17755843Y58959000D01*
X17748487Y59033689D01*
X17726701Y59105508D01*
X17691322Y59171696D01*
X17643711Y59229711D01*
X17585696Y59277322D01*
X17519508Y59312701D01*
X17447689Y59334487D01*
X17373000Y59341843D01*
X16523000Y59341843D01*
X16448311Y59334487D01*
X16398000Y59319225D01*
X16347689Y59334487D01*
X16273000Y59341843D01*
X15423000Y59341843D01*
X15348311Y59334487D01*
X15298000Y59319225D01*
X15247689Y59334487D01*
X15173000Y59341843D01*
X14323000Y59341843D01*
X14248311Y59334487D01*
X14198000Y59319225D01*
X14147689Y59334487D01*
X14073000Y59341843D01*
X13223000Y59341843D01*
X13148311Y59334487D01*
X13098000Y59319225D01*
X13047689Y59334487D01*
X12973000Y59341843D01*
X12380272Y59341843D01*
X12324185Y59410185D01*
X12227494Y59489537D01*
X12117180Y59548502D01*
X11997482Y59584812D01*
X11873000Y59597072D01*
X11733750Y59594000D01*
X11575000Y59435250D01*
X11575000Y58536000D01*
X11595000Y58536000D01*
X11595000Y58282000D01*
X11575000Y58282000D01*
X11575000Y57382750D01*
X11733750Y57224000D01*
X11873000Y57220928D01*
X11997482Y57233188D01*
X12042000Y57246692D01*
X12042001Y54457080D01*
X12019033Y54434112D01*
X11944506Y54322574D01*
X11893171Y54198640D01*
X11867000Y54067073D01*
X11867000Y53932927D01*
X11893171Y53801360D01*
X11944506Y53677426D01*
X12019033Y53565888D01*
X12113888Y53471033D01*
X12225426Y53396506D01*
X12349360Y53345171D01*
X12480927Y53319000D01*
X12615073Y53319000D01*
X12746640Y53345171D01*
X12870574Y53396506D01*
X12982112Y53471033D01*
X13076967Y53565888D01*
X13142000Y53663218D01*
X13142000Y51957592D01*
X11851780Y50667372D01*
X11832474Y50651527D01*
X11769242Y50574479D01*
X11744127Y50527492D01*
X11722255Y50486574D01*
X11693322Y50391192D01*
X11683553Y50292000D01*
X11686001Y50267144D01*
X11686000Y46691592D01*
X11220409Y46226000D01*
X10438846Y46226000D01*
X10414000Y46228447D01*
X10389154Y46226000D01*
X10389146Y46226000D01*
X10314807Y46218678D01*
X10219425Y46189745D01*
X10131521Y46142759D01*
X10054473Y46079527D01*
X10038629Y46060221D01*
X9057780Y45079371D01*
X9038474Y45063527D01*
X8975242Y44986479D01*
X8950127Y44939492D01*
X8928255Y44898574D01*
X8899322Y44803192D01*
X8889553Y44704000D01*
X8892001Y44679146D01*
X8892000Y41377829D01*
X8871223Y41360777D01*
X8804957Y41280032D01*
X8755717Y41187910D01*
X8725395Y41087953D01*
X8715157Y40984000D01*
X8715157Y40366749D01*
X7533785Y39185376D01*
X7514473Y39169527D01*
X7451241Y39092479D01*
X7404255Y39004574D01*
X7375322Y38909192D01*
X7368000Y38834853D01*
X7368000Y38834846D01*
X7365553Y38810000D01*
X7368000Y38785154D01*
X7368001Y33044863D01*
X7368000Y33044853D01*
X7368000Y33044846D01*
X7365553Y33020000D01*
X7368000Y32995154D01*
X7368001Y23306964D01*
X7366113Y23270128D01*
X7371605Y23232555D01*
X7375323Y23194807D01*
X7378796Y23183356D01*
X7380529Y23171503D01*
X7393241Y23135737D01*
X7404256Y23099425D01*
X7409901Y23088863D01*
X7413910Y23077585D01*
X7433346Y23045002D01*
X7451242Y23011521D01*
X7474640Y22983011D01*
X7876001Y22439433D01*
X7876000Y21031079D01*
X7853033Y21008112D01*
X7778506Y20896574D01*
X7727171Y20772640D01*
X7701000Y20641073D01*
X7701000Y20506927D01*
X7727171Y20375360D01*
X7778506Y20251426D01*
X7853033Y20139888D01*
X7862921Y20130000D01*
X7418264Y20130000D01*
X7401322Y20161696D01*
X7353711Y20219711D01*
X7295696Y20267322D01*
X7229508Y20302701D01*
X7157689Y20324487D01*
X7083000Y20331843D01*
X5523000Y20331843D01*
X5448311Y20324487D01*
X5376492Y20302701D01*
X5310304Y20267322D01*
X5252289Y20219711D01*
X5204678Y20161696D01*
X5169299Y20095508D01*
X5147513Y20023689D01*
X5140157Y19949000D01*
X5140157Y19299000D01*
X5147513Y19224311D01*
X5169299Y19152492D01*
X5204678Y19086304D01*
X5252289Y19028289D01*
X5310304Y18980678D01*
X5376492Y18945299D01*
X5448311Y18923513D01*
X5523000Y18916157D01*
X5717001Y18916157D01*
X5717000Y17817229D01*
X5655821Y17798671D01*
X5546411Y17740190D01*
X5450512Y17661488D01*
X5375611Y17570220D01*
X5373812Y17588482D01*
X5337502Y17708180D01*
X5278537Y17818494D01*
X5199185Y17915185D01*
X5102494Y17994537D01*
X4992180Y18053502D01*
X4872482Y18089812D01*
X4748000Y18102072D01*
X4458750Y18099000D01*
X4300000Y17940250D01*
X4046000Y17940250D01*
X3887250Y18099000D01*
X3598000Y18102072D01*
X3473518Y18089812D01*
X3353820Y18053502D01*
X3243506Y17994537D01*
X3146815Y17915185D01*
X3067463Y17818494D01*
X3008498Y17708180D01*
X2972188Y17588482D01*
X2959928Y17464000D01*
X1776000Y17464000D01*
X1776000Y18111409D01*
X2633090Y18968498D01*
X2676492Y18945299D01*
X2748311Y18923513D01*
X2823000Y18916157D01*
X4383000Y18916157D01*
X4457689Y18923513D01*
X4529508Y18945299D01*
X4595696Y18980678D01*
X4653711Y19028289D01*
X4701322Y19086304D01*
X4736701Y19152492D01*
X4758487Y19224311D01*
X4765843Y19299000D01*
X4765843Y19741728D01*
X4834185Y19797815D01*
X4913537Y19894506D01*
X4972502Y20004820D01*
X5008812Y20124518D01*
X5021072Y20249000D01*
X5018000Y20288250D01*
X4859250Y20447000D01*
X3730000Y20447000D01*
X3730000Y20427000D01*
X3476000Y20427000D01*
X3476000Y20447000D01*
X2346750Y20447000D01*
X2188000Y20288250D01*
X2184928Y20249000D01*
X2197188Y20124518D01*
X2233498Y20004820D01*
X2235303Y20001443D01*
X2213473Y19983527D01*
X2197628Y19964220D01*
X1776000Y19542592D01*
X1776000Y20872409D01*
X1921592Y21018000D01*
X2196648Y21018000D01*
X2184928Y20899000D01*
X2188000Y20859750D01*
X2346750Y20701000D01*
X3476000Y20701000D01*
X3476000Y20721000D01*
X3730000Y20721000D01*
X3730000Y20701000D01*
X4859250Y20701000D01*
X5018000Y20859750D01*
X5021072Y20899000D01*
X5008812Y21023482D01*
X4972502Y21143180D01*
X4913537Y21253494D01*
X4834185Y21350185D01*
X4765843Y21406272D01*
X4765843Y21849000D01*
X5140157Y21849000D01*
X5140157Y21199000D01*
X5147513Y21124311D01*
X5169299Y21052492D01*
X5204678Y20986304D01*
X5252289Y20928289D01*
X5310304Y20880678D01*
X5376492Y20845299D01*
X5448311Y20823513D01*
X5523000Y20816157D01*
X7083000Y20816157D01*
X7157689Y20823513D01*
X7229508Y20845299D01*
X7295696Y20880678D01*
X7353711Y20928289D01*
X7401322Y20986304D01*
X7436701Y21052492D01*
X7458487Y21124311D01*
X7465843Y21199000D01*
X7465843Y21849000D01*
X7458487Y21923689D01*
X7436701Y21995508D01*
X7401322Y22061696D01*
X7353711Y22119711D01*
X7295696Y22167322D01*
X7229508Y22202701D01*
X7157689Y22224487D01*
X7083000Y22231843D01*
X5523000Y22231843D01*
X5448311Y22224487D01*
X5376492Y22202701D01*
X5310304Y22167322D01*
X5252289Y22119711D01*
X5204678Y22061696D01*
X5169299Y21995508D01*
X5147513Y21923689D01*
X5140157Y21849000D01*
X4765843Y21849000D01*
X4758487Y21923689D01*
X4736701Y21995508D01*
X4701322Y22061696D01*
X4653711Y22119711D01*
X4595696Y22167322D01*
X4529508Y22202701D01*
X4457689Y22224487D01*
X4383000Y22231843D01*
X4053000Y22231843D01*
X4053000Y23330771D01*
X4114179Y23349329D01*
X4223589Y23407810D01*
X4319488Y23486512D01*
X4394389Y23577780D01*
X4396188Y23559518D01*
X4432498Y23439820D01*
X4491463Y23329506D01*
X4570815Y23232815D01*
X4667506Y23153463D01*
X4777820Y23094498D01*
X4897518Y23058188D01*
X5022000Y23045928D01*
X5311250Y23049000D01*
X5470000Y23207750D01*
X5470000Y24257000D01*
X5724000Y24257000D01*
X5724000Y23207750D01*
X5882750Y23049000D01*
X6172000Y23045928D01*
X6296482Y23058188D01*
X6416180Y23094498D01*
X6526494Y23153463D01*
X6623185Y23232815D01*
X6702537Y23329506D01*
X6761502Y23439820D01*
X6797812Y23559518D01*
X6810072Y23684000D01*
X6807000Y24098250D01*
X6648250Y24257000D01*
X5724000Y24257000D01*
X5470000Y24257000D01*
X5450000Y24257000D01*
X5450000Y24511000D01*
X5470000Y24511000D01*
X5470000Y25560250D01*
X5724000Y25560250D01*
X5724000Y24511000D01*
X6648250Y24511000D01*
X6807000Y24669750D01*
X6810072Y25084000D01*
X6797812Y25208482D01*
X6761502Y25328180D01*
X6702537Y25438494D01*
X6623185Y25535185D01*
X6526494Y25614537D01*
X6416180Y25673502D01*
X6296482Y25709812D01*
X6172000Y25722072D01*
X5882750Y25719000D01*
X5724000Y25560250D01*
X5470000Y25560250D01*
X5311250Y25719000D01*
X5022000Y25722072D01*
X4897518Y25709812D01*
X4777820Y25673502D01*
X4667506Y25614537D01*
X4570815Y25535185D01*
X4491463Y25438494D01*
X4432498Y25328180D01*
X4396188Y25208482D01*
X4394389Y25190220D01*
X4319488Y25281488D01*
X4223589Y25360190D01*
X4114179Y25418671D01*
X3995462Y25454683D01*
X3872001Y25466843D01*
X3221999Y25466843D01*
X3098538Y25454683D01*
X2979821Y25418671D01*
X2870411Y25360190D01*
X2774512Y25281488D01*
X2695810Y25185589D01*
X2637329Y25076179D01*
X2601317Y24957462D01*
X2589157Y24834001D01*
X2589157Y23933999D01*
X2601317Y23810538D01*
X2637329Y23691821D01*
X2695810Y23582411D01*
X2774512Y23486512D01*
X2870411Y23407810D01*
X2979821Y23349329D01*
X3041000Y23330771D01*
X3041001Y22231843D01*
X2823000Y22231843D01*
X2748311Y22224487D01*
X2676492Y22202701D01*
X2610304Y22167322D01*
X2552289Y22119711D01*
X2504678Y22061696D01*
X2487736Y22030000D01*
X1736845Y22030000D01*
X1711999Y22032447D01*
X1687153Y22030000D01*
X1687146Y22030000D01*
X1622694Y22023652D01*
X1612806Y22022678D01*
X1590607Y22015944D01*
X1517425Y21993745D01*
X1429521Y21946759D01*
X1352473Y21883527D01*
X1336629Y21864221D01*
X929780Y21457371D01*
X910474Y21441527D01*
X847242Y21364479D01*
X834821Y21341241D01*
X800255Y21276574D01*
X771322Y21181192D01*
X761553Y21082000D01*
X343000Y21082000D01*
X343000Y48259000D01*
X8780157Y48259000D01*
X8780157Y46909000D01*
X8787513Y46834311D01*
X8809299Y46762492D01*
X8844678Y46696304D01*
X8892289Y46638289D01*
X8950304Y46590678D01*
X9016492Y46555299D01*
X9088311Y46533513D01*
X9163000Y46526157D01*
X11063000Y46526157D01*
X11137689Y46533513D01*
X11209508Y46555299D01*
X11275696Y46590678D01*
X11333711Y46638289D01*
X11381322Y46696304D01*
X11416701Y46762492D01*
X11438487Y46834311D01*
X11445843Y46909000D01*
X11445843Y48259000D01*
X11438487Y48333689D01*
X11416701Y48405508D01*
X11381322Y48471696D01*
X11333711Y48529711D01*
X11275696Y48577322D01*
X11209508Y48612701D01*
X11137689Y48634487D01*
X11063000Y48641843D01*
X9163000Y48641843D01*
X9088311Y48634487D01*
X9016492Y48612701D01*
X8950304Y48577322D01*
X8892289Y48529711D01*
X8844678Y48471696D01*
X8809299Y48405508D01*
X8787513Y48333689D01*
X8780157Y48259000D01*
X343000Y48259000D01*
X343000Y57081920D01*
X363817Y57294231D01*
X970395Y57294231D01*
X970395Y56911769D01*
X1045009Y56536655D01*
X1191372Y56183305D01*
X1403857Y55865299D01*
X1674299Y55594857D01*
X1992305Y55382372D01*
X2345655Y55236009D01*
X2720769Y55161395D01*
X3103231Y55161395D01*
X3478345Y55236009D01*
X3831695Y55382372D01*
X4149701Y55594857D01*
X4420143Y55865299D01*
X4632628Y56183305D01*
X4778991Y56536655D01*
X4853605Y56911769D01*
X4853605Y57294231D01*
X4778991Y57669345D01*
X4632628Y58022695D01*
X4420143Y58340701D01*
X4149701Y58611143D01*
X3831695Y58823628D01*
X3504880Y58959000D01*
X7120157Y58959000D01*
X7120157Y57159000D01*
X7127513Y57084311D01*
X7149299Y57012492D01*
X7184678Y56946304D01*
X7232289Y56888289D01*
X7290304Y56840678D01*
X7356492Y56805299D01*
X7428311Y56783513D01*
X7503000Y56776157D01*
X8673000Y56776157D01*
X8747689Y56783513D01*
X8819508Y56805299D01*
X8885696Y56840678D01*
X8943711Y56888289D01*
X8991322Y56946304D01*
X9026701Y57012492D01*
X9048487Y57084311D01*
X9055843Y57159000D01*
X9055843Y57476157D01*
X9673000Y57476157D01*
X9747689Y57483513D01*
X9798000Y57498775D01*
X9842000Y57485427D01*
X9842001Y55970856D01*
X9839553Y55946000D01*
X9849322Y55846808D01*
X9878255Y55751426D01*
X9878256Y55751425D01*
X9925242Y55663521D01*
X9988474Y55586473D01*
X10007780Y55570629D01*
X10241000Y55337409D01*
X10241000Y55304927D01*
X10267171Y55173360D01*
X10318506Y55049426D01*
X10393033Y54937888D01*
X10487888Y54843033D01*
X10599426Y54768506D01*
X10723360Y54717171D01*
X10854927Y54691000D01*
X10989073Y54691000D01*
X11120640Y54717171D01*
X11244574Y54768506D01*
X11356112Y54843033D01*
X11450967Y54937888D01*
X11525494Y55049426D01*
X11576829Y55173360D01*
X11603000Y55304927D01*
X11603000Y55439073D01*
X11576829Y55570640D01*
X11525494Y55694574D01*
X11450967Y55806112D01*
X11356112Y55900967D01*
X11244574Y55975494D01*
X11120640Y56026829D01*
X10989073Y56053000D01*
X10956591Y56053000D01*
X10854000Y56155591D01*
X10854000Y57246692D01*
X10898518Y57233188D01*
X11023000Y57220928D01*
X11162250Y57224000D01*
X11321000Y57382750D01*
X11321000Y58282000D01*
X11301000Y58282000D01*
X11301000Y58536000D01*
X11321000Y58536000D01*
X11321000Y59435250D01*
X11162250Y59594000D01*
X11023000Y59597072D01*
X10898518Y59584812D01*
X10778820Y59548502D01*
X10668506Y59489537D01*
X10571815Y59410185D01*
X10515728Y59341843D01*
X9923000Y59341843D01*
X9848311Y59334487D01*
X9798000Y59319225D01*
X9747689Y59334487D01*
X9673000Y59341843D01*
X8923000Y59341843D01*
X8848311Y59334487D01*
X8798000Y59319225D01*
X8747689Y59334487D01*
X8673000Y59341843D01*
X7503000Y59341843D01*
X7428311Y59334487D01*
X7356492Y59312701D01*
X7290304Y59277322D01*
X7232289Y59229711D01*
X7184678Y59171696D01*
X7149299Y59105508D01*
X7127513Y59033689D01*
X7120157Y58959000D01*
X3504880Y58959000D01*
X3478345Y58969991D01*
X3103231Y59044605D01*
X2720769Y59044605D01*
X2345655Y58969991D01*
X1992305Y58823628D01*
X1674299Y58611143D01*
X1403857Y58340701D01*
X1191372Y58022695D01*
X1045009Y57669345D01*
X970395Y57294231D01*
X363817Y57294231D01*
X393954Y57601586D01*
X538753Y58081182D01*
X773948Y58523520D01*
X1090580Y58911750D01*
X1476587Y59231083D01*
X1917274Y59469361D01*
X2395847Y59617504D01*
X2914338Y59672000D01*
X24890920Y59672000D01*
X25410586Y59621046D01*
G37*
X25410586Y59621046D02*
X25890182Y59476247D01*
X26332520Y59241052D01*
X26720750Y58924420D01*
X27040083Y58538413D01*
X27278361Y58097726D01*
X27426504Y57619153D01*
X27481000Y57100662D01*
X27481001Y3124089D01*
X27430046Y2604414D01*
X27285247Y2124815D01*
X27050053Y1682480D01*
X26733420Y1294250D01*
X26347413Y974917D01*
X25906725Y736639D01*
X25428153Y588496D01*
X24909661Y534000D01*
X2933079Y534000D01*
X2413414Y584954D01*
X1933815Y729753D01*
X1491480Y964947D01*
X1103250Y1281580D01*
X783917Y1667587D01*
X545639Y2108275D01*
X397496Y2586847D01*
X343000Y3105339D01*
X343000Y3294231D01*
X970395Y3294231D01*
X970395Y2911769D01*
X1045009Y2536655D01*
X1191372Y2183305D01*
X1403857Y1865299D01*
X1674299Y1594857D01*
X1992305Y1382372D01*
X2345655Y1236009D01*
X2720769Y1161395D01*
X3103231Y1161395D01*
X3478345Y1236009D01*
X3831695Y1382372D01*
X4149701Y1594857D01*
X4420143Y1865299D01*
X4632628Y2183305D01*
X4778991Y2536655D01*
X4853605Y2911769D01*
X4853605Y3294231D01*
X22970395Y3294231D01*
X22970395Y2911769D01*
X23045009Y2536655D01*
X23191372Y2183305D01*
X23403857Y1865299D01*
X23674299Y1594857D01*
X23992305Y1382372D01*
X24345655Y1236009D01*
X24720769Y1161395D01*
X25103231Y1161395D01*
X25478345Y1236009D01*
X25831695Y1382372D01*
X26149701Y1594857D01*
X26420143Y1865299D01*
X26632628Y2183305D01*
X26778991Y2536655D01*
X26853605Y2911769D01*
X26853605Y3294231D01*
X26778991Y3669345D01*
X26632628Y4022695D01*
X26420143Y4340701D01*
X26149701Y4611143D01*
X25831695Y4823628D01*
X25478345Y4969991D01*
X25103231Y5044605D01*
X24720769Y5044605D01*
X24345655Y4969991D01*
X23992305Y4823628D01*
X23674299Y4611143D01*
X23403857Y4340701D01*
X23191372Y4022695D01*
X23045009Y3669345D01*
X22970395Y3294231D01*
X4853605Y3294231D01*
X4778991Y3669345D01*
X4632628Y4022695D01*
X4420143Y4340701D01*
X4149701Y4611143D01*
X3831695Y4823628D01*
X3478345Y4969991D01*
X3103231Y5044605D01*
X2720769Y5044605D01*
X2345655Y4969991D01*
X1992305Y4823628D01*
X1674299Y4611143D01*
X1403857Y4340701D01*
X1191372Y4022695D01*
X1045009Y3669345D01*
X970395Y3294231D01*
X343000Y3294231D01*
X343000Y8455000D01*
X18770928Y8455000D01*
X18783188Y8330518D01*
X18819498Y8210820D01*
X18878463Y8100506D01*
X18957815Y8003815D01*
X19054506Y7924463D01*
X19164820Y7865498D01*
X19284518Y7829188D01*
X19409000Y7816928D01*
X19812250Y7820000D01*
X19971000Y7978750D01*
X19971000Y9017000D01*
X20225000Y9017000D01*
X20225000Y7978750D01*
X20383750Y7820000D01*
X20787000Y7816928D01*
X20911482Y7829188D01*
X21031180Y7865498D01*
X21141494Y7924463D01*
X21238185Y8003815D01*
X21317537Y8100506D01*
X21376502Y8210820D01*
X21412812Y8330518D01*
X21425072Y8455000D01*
X21422000Y8858250D01*
X21263250Y9017000D01*
X20225000Y9017000D01*
X19971000Y9017000D01*
X18932750Y9017000D01*
X18774000Y8858250D01*
X18770928Y8455000D01*
X343000Y8455000D01*
X343000Y9833000D01*
X18770928Y9833000D01*
X18774000Y9429750D01*
X18932750Y9271000D01*
X19971000Y9271000D01*
X19971000Y10309250D01*
X20225000Y10309250D01*
X20225000Y9271000D01*
X21263250Y9271000D01*
X21422000Y9429750D01*
X21425072Y9833000D01*
X21412812Y9957482D01*
X21376502Y10077180D01*
X21317537Y10187494D01*
X21238185Y10284185D01*
X21141494Y10363537D01*
X21031180Y10422502D01*
X20911482Y10458812D01*
X20787000Y10471072D01*
X20383750Y10468000D01*
X20225000Y10309250D01*
X19971000Y10309250D01*
X19812250Y10468000D01*
X19409000Y10471072D01*
X19284518Y10458812D01*
X19164820Y10422502D01*
X19054506Y10363537D01*
X18957815Y10284185D01*
X18878463Y10187494D01*
X18819498Y10077180D01*
X18783188Y9957482D01*
X18770928Y9833000D01*
X343000Y9833000D01*
X343000Y10782877D01*
X787334Y10782877D01*
X797006Y10706028D01*
X886745Y10520840D01*
X1010888Y10356717D01*
X1164664Y10219967D01*
X1342164Y10115845D01*
X1536567Y10048352D01*
X1740401Y10020082D01*
X1905000Y10185238D01*
X1905000Y10942000D01*
X2159000Y10942000D01*
X2159000Y10185238D01*
X2323599Y10020082D01*
X2527433Y10048352D01*
X2721836Y10115845D01*
X2899336Y10219967D01*
X3053112Y10356717D01*
X3177255Y10520840D01*
X3266994Y10706028D01*
X3276666Y10782877D01*
X3148998Y10942000D01*
X2159000Y10942000D01*
X1905000Y10942000D01*
X915002Y10942000D01*
X787334Y10782877D01*
X343000Y10782877D01*
X343000Y21082000D01*
X761553Y21082000D01*
X764001Y21057144D01*
X764000Y18345847D01*
X761553Y18321000D01*
X764000Y18296153D01*
X764000Y18058853D01*
X764001Y13105856D01*
X761553Y13081000D01*
X771322Y12981808D01*
X800255Y12886426D01*
X800256Y12886425D01*
X847242Y12798521D01*
X910474Y12721473D01*
X929780Y12705629D01*
X1009670Y12625739D01*
X999157Y12519000D01*
X999157Y12119000D01*
X1010356Y12005293D01*
X1043523Y11895956D01*
X1074555Y11837900D01*
X1010888Y11781283D01*
X886745Y11617160D01*
X797006Y11431972D01*
X787334Y11355123D01*
X915002Y11196000D01*
X1905000Y11196000D01*
X1905000Y11216000D01*
X2159000Y11216000D01*
X2159000Y11196000D01*
X3148998Y11196000D01*
X3276666Y11355123D01*
X3266994Y11431972D01*
X3177255Y11617160D01*
X3053112Y11781283D01*
X3017446Y11813000D01*
X4489409Y11813000D01*
X4713628Y11588780D01*
X4729473Y11569473D01*
X4806521Y11506241D01*
X4894425Y11459255D01*
X4967607Y11437056D01*
X4989806Y11430322D01*
X4999694Y11429348D01*
X5064146Y11423000D01*
X5064153Y11423000D01*
X5088999Y11420553D01*
X5113845Y11423000D01*
X6917921Y11423000D01*
X6940888Y11400033D01*
X7052426Y11325506D01*
X7176360Y11274171D01*
X7307927Y11248000D01*
X7442073Y11248000D01*
X7573640Y11274171D01*
X7697574Y11325506D01*
X7809112Y11400033D01*
X7903967Y11494888D01*
X7978494Y11606426D01*
X8029829Y11730360D01*
X8056000Y11861927D01*
X8056000Y11996073D01*
X8029829Y12127640D01*
X7978494Y12251574D01*
X7903967Y12363112D01*
X7809112Y12457967D01*
X7697574Y12532494D01*
X7573640Y12583829D01*
X7442073Y12610000D01*
X7307927Y12610000D01*
X7176360Y12583829D01*
X7052426Y12532494D01*
X6940888Y12457967D01*
X6917921Y12435000D01*
X5298592Y12435000D01*
X5074376Y12659215D01*
X5058527Y12678527D01*
X4981479Y12741759D01*
X4893575Y12788745D01*
X4798193Y12817678D01*
X4723854Y12825000D01*
X4723846Y12825000D01*
X4699000Y12827447D01*
X4674154Y12825000D01*
X2976136Y12825000D01*
X2966616Y12842810D01*
X2894132Y12931132D01*
X2805810Y13003616D01*
X2705044Y13057477D01*
X2595707Y13090644D01*
X2482000Y13101843D01*
X1964748Y13101843D01*
X1776000Y13290591D01*
X1776000Y16064000D01*
X2959928Y16064000D01*
X2972188Y15939518D01*
X3008498Y15819820D01*
X3067463Y15709506D01*
X3146815Y15612815D01*
X3243506Y15533463D01*
X3353820Y15474498D01*
X3473518Y15438188D01*
X3598000Y15425928D01*
X3887250Y15429000D01*
X4046000Y15587750D01*
X4046000Y16637000D01*
X3121750Y16637000D01*
X2963000Y16478250D01*
X2959928Y16064000D01*
X1776000Y16064000D01*
X1776000Y17464000D01*
X2959928Y17464000D01*
X2963000Y17049750D01*
X3121750Y16891000D01*
X4046000Y16891000D01*
X4046000Y17940250D01*
X4300000Y17940250D01*
X4300000Y16891000D01*
X4320000Y16891000D01*
X4320000Y16637000D01*
X4300000Y16637000D01*
X4300000Y15587750D01*
X4458750Y15429000D01*
X4748000Y15425928D01*
X4872482Y15438188D01*
X4992180Y15474498D01*
X5102494Y15533463D01*
X5199185Y15612815D01*
X5278537Y15709506D01*
X5337502Y15819820D01*
X5373812Y15939518D01*
X5375611Y15957780D01*
X5450512Y15866512D01*
X5546411Y15787810D01*
X5655821Y15729329D01*
X5774538Y15693317D01*
X5897999Y15681157D01*
X6548001Y15681157D01*
X6671462Y15693317D01*
X6790179Y15729329D01*
X6899589Y15787810D01*
X6995488Y15866512D01*
X7074190Y15962411D01*
X7132671Y16071821D01*
X7168683Y16190538D01*
X7180843Y16313999D01*
X7180843Y17214001D01*
X7169024Y17334001D01*
X10220157Y17334001D01*
X10220157Y16683999D01*
X10232317Y16560538D01*
X10268329Y16441821D01*
X10326810Y16332411D01*
X10405512Y16236512D01*
X10501411Y16157810D01*
X10610821Y16099329D01*
X10729538Y16063317D01*
X10852999Y16051157D01*
X11753001Y16051157D01*
X11876462Y16063317D01*
X11995179Y16099329D01*
X12104589Y16157810D01*
X12200488Y16236512D01*
X12279190Y16332411D01*
X12337671Y16441821D01*
X12356229Y16503000D01*
X13424771Y16503000D01*
X13443329Y16441821D01*
X13501810Y16332411D01*
X13580512Y16236512D01*
X13676411Y16157810D01*
X13785821Y16099329D01*
X13904538Y16063317D01*
X14027999Y16051157D01*
X14145252Y16051157D01*
X15296628Y14899780D01*
X15312473Y14880473D01*
X15389521Y14817241D01*
X15477425Y14770255D01*
X15572807Y14741322D01*
X15647146Y14734000D01*
X15647154Y14734000D01*
X15672000Y14731553D01*
X15696846Y14734000D01*
X18586409Y14734000D01*
X19592000Y13728408D01*
X19592001Y12632567D01*
X19591165Y12632221D01*
X19415915Y12515123D01*
X19266877Y12366085D01*
X19149779Y12190835D01*
X19069120Y11996107D01*
X19028000Y11789386D01*
X19028000Y11578614D01*
X19069120Y11371893D01*
X19149779Y11177165D01*
X19266877Y11001915D01*
X19415915Y10852877D01*
X19591165Y10735779D01*
X19785893Y10655120D01*
X19992614Y10614000D01*
X20203386Y10614000D01*
X20410107Y10655120D01*
X20604835Y10735779D01*
X20780085Y10852877D01*
X20929123Y11001915D01*
X21046221Y11177165D01*
X21126880Y11371893D01*
X21168000Y11578614D01*
X21168000Y11789386D01*
X21126880Y11996107D01*
X21046221Y12190835D01*
X20929123Y12366085D01*
X20780085Y12515123D01*
X20604835Y12632221D01*
X20604000Y12632567D01*
X20604000Y13913155D01*
X20606447Y13938001D01*
X20604000Y13962847D01*
X20604000Y13962854D01*
X20596678Y14037193D01*
X20567745Y14132575D01*
X20520759Y14220479D01*
X20457527Y14297527D01*
X20438220Y14313372D01*
X19171376Y15580215D01*
X19155527Y15599527D01*
X19078479Y15662759D01*
X18990575Y15709745D01*
X18895193Y15738678D01*
X18820854Y15746000D01*
X18820846Y15746000D01*
X18796000Y15748447D01*
X18771154Y15746000D01*
X15881592Y15746000D01*
X15382516Y16245076D01*
X15454190Y16332411D01*
X15512671Y16441821D01*
X15548683Y16560538D01*
X15560843Y16683999D01*
X15560843Y17334001D01*
X15548683Y17457462D01*
X15512671Y17576179D01*
X15454190Y17685589D01*
X15375488Y17781488D01*
X15279589Y17860190D01*
X15170179Y17918671D01*
X15051462Y17954683D01*
X14928001Y17966843D01*
X14027999Y17966843D01*
X13904538Y17954683D01*
X13785821Y17918671D01*
X13676411Y17860190D01*
X13580512Y17781488D01*
X13501810Y17685589D01*
X13443329Y17576179D01*
X13424771Y17515000D01*
X12356229Y17515000D01*
X12337671Y17576179D01*
X12279190Y17685589D01*
X12200488Y17781488D01*
X12104589Y17860190D01*
X11995179Y17918671D01*
X11876462Y17954683D01*
X11753001Y17966843D01*
X10852999Y17966843D01*
X10729538Y17954683D01*
X10610821Y17918671D01*
X10501411Y17860190D01*
X10405512Y17781488D01*
X10326810Y17685589D01*
X10268329Y17576179D01*
X10232317Y17457462D01*
X10220157Y17334001D01*
X7169024Y17334001D01*
X7168683Y17337462D01*
X7132671Y17456179D01*
X7074190Y17565589D01*
X6995488Y17661488D01*
X6899589Y17740190D01*
X6790179Y17798671D01*
X6729000Y17817229D01*
X6729000Y18916157D01*
X7083000Y18916157D01*
X7157689Y18923513D01*
X7229508Y18945299D01*
X7295696Y18980678D01*
X7353711Y19028289D01*
X7401322Y19086304D01*
X7418264Y19118000D01*
X10220157Y19118000D01*
X10220157Y18733999D01*
X10232317Y18610538D01*
X10268329Y18491821D01*
X10326810Y18382411D01*
X10405512Y18286512D01*
X10501411Y18207810D01*
X10610821Y18149329D01*
X10729538Y18113317D01*
X10852999Y18101157D01*
X11753001Y18101157D01*
X11876462Y18113317D01*
X11995179Y18149329D01*
X12104589Y18207810D01*
X12200488Y18286512D01*
X12279190Y18382411D01*
X12337671Y18491821D01*
X12373683Y18610538D01*
X12384997Y18725406D01*
X13043592Y19384001D01*
X13395157Y19384001D01*
X13395157Y18733999D01*
X13407317Y18610538D01*
X13443329Y18491821D01*
X13501810Y18382411D01*
X13580512Y18286512D01*
X13676411Y18207810D01*
X13785821Y18149329D01*
X13904538Y18113317D01*
X14027999Y18101157D01*
X14928001Y18101157D01*
X15051462Y18113317D01*
X15170179Y18149329D01*
X15279589Y18207810D01*
X15375488Y18286512D01*
X15454190Y18382411D01*
X15512671Y18491821D01*
X15530806Y18551603D01*
X15750001Y18332408D01*
X15750000Y17730847D01*
X15747553Y17706000D01*
X15750000Y17681154D01*
X15750000Y17681147D01*
X15757322Y17606808D01*
X15786255Y17511426D01*
X15833241Y17423521D01*
X15896473Y17346473D01*
X15915785Y17330624D01*
X16571003Y16675405D01*
X16582317Y16560538D01*
X16618329Y16441821D01*
X16676810Y16332411D01*
X16755512Y16236512D01*
X16851411Y16157810D01*
X16960821Y16099329D01*
X17079538Y16063317D01*
X17202999Y16051157D01*
X18103001Y16051157D01*
X18226462Y16063317D01*
X18345179Y16099329D01*
X18454589Y16157810D01*
X18550488Y16236512D01*
X18629190Y16332411D01*
X18687671Y16441821D01*
X18723683Y16560538D01*
X18735843Y16683999D01*
X18735843Y17334001D01*
X18723683Y17457462D01*
X18687671Y17576179D01*
X18629190Y17685589D01*
X18550488Y17781488D01*
X18454589Y17860190D01*
X18345179Y17918671D01*
X18226462Y17954683D01*
X18103001Y17966843D01*
X17202999Y17966843D01*
X17079538Y17954683D01*
X16960821Y17918671D01*
X16851411Y17860190D01*
X16832731Y17844860D01*
X16762000Y17915591D01*
X16762000Y18281187D01*
X16851411Y18207810D01*
X16960821Y18149329D01*
X17079538Y18113317D01*
X17202999Y18101157D01*
X18103001Y18101157D01*
X18226462Y18113317D01*
X18345179Y18149329D01*
X18454589Y18207810D01*
X18550488Y18286512D01*
X18629190Y18382411D01*
X18687671Y18491821D01*
X18723683Y18610538D01*
X18735843Y18733999D01*
X18735843Y19384001D01*
X18723683Y19507462D01*
X18687671Y19626179D01*
X18629190Y19735589D01*
X18550488Y19831488D01*
X18454589Y19910190D01*
X18345179Y19968671D01*
X18226462Y20004683D01*
X18159000Y20011328D01*
X18159000Y20882672D01*
X18226462Y20889317D01*
X18345179Y20925329D01*
X18454589Y20983810D01*
X18550488Y21062512D01*
X18629190Y21158411D01*
X18687671Y21267821D01*
X18723683Y21386538D01*
X18735843Y21509999D01*
X18735843Y22160001D01*
X18723683Y22283462D01*
X18687671Y22402179D01*
X18629190Y22511589D01*
X18550488Y22607488D01*
X18454589Y22686190D01*
X18345179Y22744671D01*
X18226462Y22780683D01*
X18103001Y22792843D01*
X17202999Y22792843D01*
X17079538Y22780683D01*
X16960821Y22744671D01*
X16851411Y22686190D01*
X16755512Y22607488D01*
X16676810Y22511589D01*
X16618329Y22402179D01*
X16582317Y22283462D01*
X16580991Y22270000D01*
X15500843Y22270000D01*
X15500843Y22544000D01*
X15493487Y22618689D01*
X15471701Y22690508D01*
X15436322Y22756696D01*
X15388711Y22814711D01*
X15330696Y22862322D01*
X15264508Y22897701D01*
X15192689Y22919487D01*
X15118000Y22926843D01*
X14468000Y22926843D01*
X14393311Y22919487D01*
X14321492Y22897701D01*
X14255304Y22862322D01*
X14197289Y22814711D01*
X14149678Y22756696D01*
X14114299Y22690508D01*
X14092513Y22618689D01*
X14085157Y22544000D01*
X14085157Y20984000D01*
X14092513Y20909311D01*
X14114299Y20837492D01*
X14149678Y20771304D01*
X14197289Y20713289D01*
X14255304Y20665678D01*
X14321492Y20630299D01*
X14393311Y20608513D01*
X14468000Y20601157D01*
X15118000Y20601157D01*
X15192689Y20608513D01*
X15264508Y20630299D01*
X15330696Y20665678D01*
X15388711Y20713289D01*
X15436322Y20771304D01*
X15471701Y20837492D01*
X15493487Y20909311D01*
X15500843Y20984000D01*
X15500843Y21258000D01*
X16623578Y21258000D01*
X16676810Y21158411D01*
X16755512Y21062512D01*
X16851411Y20983810D01*
X16960821Y20925329D01*
X17079538Y20889317D01*
X17147001Y20882672D01*
X17147000Y20011328D01*
X17079538Y20004683D01*
X16960821Y19968671D01*
X16851411Y19910190D01*
X16755512Y19831488D01*
X16676810Y19735589D01*
X16618329Y19626179D01*
X16582317Y19507462D01*
X16570157Y19384001D01*
X16570157Y18943435D01*
X16114376Y19399215D01*
X16098527Y19418527D01*
X16021479Y19481759D01*
X15933575Y19528745D01*
X15838193Y19557678D01*
X15763854Y19565000D01*
X15763846Y19565000D01*
X15739000Y19567447D01*
X15714154Y19565000D01*
X15531229Y19565000D01*
X15512671Y19626179D01*
X15454190Y19735589D01*
X15375488Y19831488D01*
X15279589Y19910190D01*
X15170179Y19968671D01*
X15051462Y20004683D01*
X14928001Y20016843D01*
X14027999Y20016843D01*
X13904538Y20004683D01*
X13785821Y19968671D01*
X13676411Y19910190D01*
X13580512Y19831488D01*
X13501810Y19735589D01*
X13443329Y19626179D01*
X13407317Y19507462D01*
X13395157Y19384001D01*
X13043592Y19384001D01*
X13233220Y19573628D01*
X13252527Y19589473D01*
X13315759Y19666521D01*
X13362745Y19754425D01*
X13391678Y19849807D01*
X13399000Y19924146D01*
X13399000Y19924153D01*
X13401447Y19948999D01*
X13399000Y19973845D01*
X13399000Y20648736D01*
X13430696Y20665678D01*
X13488711Y20713289D01*
X13536322Y20771304D01*
X13571701Y20837492D01*
X13593487Y20909311D01*
X13600843Y20984000D01*
X13600843Y22544000D01*
X13593487Y22618689D01*
X13571701Y22690508D01*
X13536322Y22756696D01*
X13488711Y22814711D01*
X13430696Y22862322D01*
X13364508Y22897701D01*
X13292689Y22919487D01*
X13218000Y22926843D01*
X12568000Y22926843D01*
X12493311Y22919487D01*
X12421492Y22897701D01*
X12355304Y22862322D01*
X12297289Y22814711D01*
X12249678Y22756696D01*
X12214299Y22690508D01*
X12192513Y22618689D01*
X12185157Y22544000D01*
X12185157Y20984000D01*
X12192513Y20909311D01*
X12214299Y20837492D01*
X12249678Y20771304D01*
X12297289Y20713289D01*
X12355304Y20665678D01*
X12387001Y20648735D01*
X12387000Y20158592D01*
X12123269Y19894860D01*
X12104589Y19910190D01*
X11995179Y19968671D01*
X11876462Y20004683D01*
X11809000Y20011328D01*
X11809000Y21240146D01*
X11811448Y21265000D01*
X11801678Y21364193D01*
X11772745Y21459575D01*
X11761396Y21480807D01*
X11725759Y21547479D01*
X11662527Y21624527D01*
X11643220Y21640372D01*
X11114997Y22168594D01*
X11103683Y22283462D01*
X11067671Y22402179D01*
X11009190Y22511589D01*
X10930488Y22607488D01*
X10839220Y22682389D01*
X10857482Y22684188D01*
X10977180Y22720498D01*
X11087494Y22779463D01*
X11184185Y22858815D01*
X11263537Y22955506D01*
X11322502Y23065820D01*
X11358812Y23185518D01*
X11371072Y23310000D01*
X11368000Y23599250D01*
X11209250Y23758000D01*
X10160000Y23758000D01*
X10160000Y23738000D01*
X9906000Y23738000D01*
X9906000Y23758000D01*
X8856750Y23758000D01*
X8698000Y23599250D01*
X8694928Y23310000D01*
X8707188Y23185518D01*
X8743498Y23065820D01*
X8802463Y22955506D01*
X8881815Y22858815D01*
X8978506Y22779463D01*
X9088820Y22720498D01*
X9208518Y22684188D01*
X9226780Y22682389D01*
X9159430Y22627117D01*
X8750754Y22958441D01*
X8380000Y23460565D01*
X8380000Y24460000D01*
X8694928Y24460000D01*
X8698000Y24170750D01*
X8856750Y24012000D01*
X9906000Y24012000D01*
X9906000Y24936250D01*
X10160000Y24936250D01*
X10160000Y24012000D01*
X11209250Y24012000D01*
X11368000Y24170750D01*
X11371072Y24460000D01*
X11358812Y24584482D01*
X11322502Y24704180D01*
X11263537Y24814494D01*
X11184185Y24911185D01*
X11087494Y24990537D01*
X10977180Y25049502D01*
X10857482Y25085812D01*
X10733000Y25098072D01*
X10318750Y25095000D01*
X10160000Y24936250D01*
X9906000Y24936250D01*
X9747250Y25095000D01*
X9333000Y25098072D01*
X9208518Y25085812D01*
X9088820Y25049502D01*
X8978506Y24990537D01*
X8881815Y24911185D01*
X8802463Y24814494D01*
X8743498Y24704180D01*
X8707188Y24584482D01*
X8694928Y24460000D01*
X8380000Y24460000D01*
X8380000Y25244000D01*
X12185157Y25244000D01*
X12185157Y23684000D01*
X12192513Y23609311D01*
X12214299Y23537492D01*
X12249678Y23471304D01*
X12297289Y23413289D01*
X12355304Y23365678D01*
X12421492Y23330299D01*
X12493311Y23308513D01*
X12568000Y23301157D01*
X13010728Y23301157D01*
X13066815Y23232815D01*
X13163506Y23153463D01*
X13273820Y23094498D01*
X13393518Y23058188D01*
X13518000Y23045928D01*
X13557250Y23049000D01*
X13716000Y23207750D01*
X13716000Y24337000D01*
X13696000Y24337000D01*
X13696000Y24591000D01*
X13716000Y24591000D01*
X13716000Y25720250D01*
X13628417Y25807833D01*
X13635000Y25840927D01*
X13635000Y25975073D01*
X13608829Y26106640D01*
X13557494Y26230574D01*
X13482967Y26342112D01*
X13388112Y26436967D01*
X13276574Y26511494D01*
X13152640Y26562829D01*
X13021073Y26589000D01*
X12886927Y26589000D01*
X12755360Y26562829D01*
X12631426Y26511494D01*
X12519888Y26436967D01*
X12425033Y26342112D01*
X12350506Y26230574D01*
X12299171Y26106640D01*
X12273000Y25975073D01*
X12273000Y25840927D01*
X12299171Y25709360D01*
X12350506Y25585426D01*
X12363144Y25566512D01*
X12355304Y25562322D01*
X12297289Y25514711D01*
X12249678Y25456696D01*
X12214299Y25390508D01*
X12192513Y25318689D01*
X12185157Y25244000D01*
X8380000Y25244000D01*
X8380000Y28644000D01*
X9964928Y28644000D01*
X9977188Y28519518D01*
X10013498Y28399820D01*
X10072463Y28289506D01*
X10151815Y28192815D01*
X10248506Y28113463D01*
X10358820Y28054498D01*
X10478518Y28018188D01*
X10496780Y28016389D01*
X10405512Y27941488D01*
X10326810Y27845589D01*
X10268329Y27736179D01*
X10232317Y27617462D01*
X10220157Y27494001D01*
X10220157Y26843999D01*
X10232317Y26720538D01*
X10268329Y26601821D01*
X10326810Y26492411D01*
X10405512Y26396512D01*
X10501411Y26317810D01*
X10610821Y26259329D01*
X10729538Y26223317D01*
X10852999Y26211157D01*
X11753001Y26211157D01*
X11876462Y26223317D01*
X11995179Y26259329D01*
X12104589Y26317810D01*
X12200488Y26396512D01*
X12279190Y26492411D01*
X12337671Y26601821D01*
X12356229Y26663000D01*
X13424771Y26663000D01*
X13443329Y26601821D01*
X13501810Y26492411D01*
X13580512Y26396512D01*
X13676411Y26317810D01*
X13785821Y26259329D01*
X13904538Y26223317D01*
X14027999Y26211157D01*
X14287001Y26211157D01*
X14287001Y25870352D01*
X14168000Y25882072D01*
X14128750Y25879000D01*
X13970000Y25720250D01*
X13970000Y24591000D01*
X13990000Y24591000D01*
X13990000Y24337000D01*
X13970000Y24337000D01*
X13970000Y23207750D01*
X14128750Y23049000D01*
X14168000Y23045928D01*
X14292482Y23058188D01*
X14412180Y23094498D01*
X14522494Y23153463D01*
X14619185Y23232815D01*
X14675272Y23301157D01*
X15118000Y23301157D01*
X15192689Y23308513D01*
X15264508Y23330299D01*
X15330696Y23365678D01*
X15388711Y23413289D01*
X15436322Y23471304D01*
X15471701Y23537492D01*
X15493487Y23609311D01*
X15500843Y23684000D01*
X15500843Y25244000D01*
X15493487Y25318689D01*
X15471701Y25390508D01*
X15436322Y25456696D01*
X15388711Y25514711D01*
X15330696Y25562322D01*
X15299000Y25579264D01*
X15299000Y25975073D01*
X15321000Y25975073D01*
X15321000Y25840927D01*
X15347171Y25709360D01*
X15398506Y25585426D01*
X15473033Y25473888D01*
X15567888Y25379033D01*
X15679426Y25304506D01*
X15803360Y25253171D01*
X15934927Y25227000D01*
X16069073Y25227000D01*
X16153596Y25243813D01*
X16748484Y24648924D01*
X16676810Y24561589D01*
X16618329Y24452179D01*
X16582317Y24333462D01*
X16570157Y24210001D01*
X16570157Y23559999D01*
X16582317Y23436538D01*
X16618329Y23317821D01*
X16676810Y23208411D01*
X16755512Y23112512D01*
X16851411Y23033810D01*
X16960821Y22975329D01*
X17079538Y22939317D01*
X17202999Y22927157D01*
X18103001Y22927157D01*
X18226462Y22939317D01*
X18345179Y22975329D01*
X18454589Y23033810D01*
X18550488Y23112512D01*
X18629190Y23208411D01*
X18687671Y23317821D01*
X18723683Y23436538D01*
X18734997Y23551406D01*
X20585592Y25402000D01*
X23164921Y25402000D01*
X23187888Y25379033D01*
X23299426Y25304506D01*
X23423360Y25253171D01*
X23554927Y25227000D01*
X23689073Y25227000D01*
X23820640Y25253171D01*
X23944574Y25304506D01*
X24056112Y25379033D01*
X24150967Y25473888D01*
X24225494Y25585426D01*
X24276829Y25709360D01*
X24303000Y25840927D01*
X24303000Y25975073D01*
X24276829Y26106640D01*
X24225494Y26230574D01*
X24150967Y26342112D01*
X24056112Y26436967D01*
X23944574Y26511494D01*
X23820640Y26562829D01*
X23689073Y26589000D01*
X23554927Y26589000D01*
X23423360Y26562829D01*
X23299426Y26511494D01*
X23187888Y26436967D01*
X23164921Y26414000D01*
X20400845Y26414000D01*
X20375999Y26416447D01*
X20351153Y26414000D01*
X20351146Y26414000D01*
X20276807Y26406678D01*
X20181425Y26377745D01*
X20093521Y26330759D01*
X20016473Y26267527D01*
X20000628Y26248220D01*
X18473269Y24720860D01*
X18454589Y24736190D01*
X18345179Y24794671D01*
X18226462Y24830683D01*
X18103001Y24842843D01*
X17985749Y24842843D01*
X16610781Y26217810D01*
X16605494Y26230574D01*
X16530967Y26342112D01*
X16436112Y26436967D01*
X16324574Y26511494D01*
X16200640Y26562829D01*
X16069073Y26589000D01*
X15934927Y26589000D01*
X15803360Y26562829D01*
X15679426Y26511494D01*
X15567888Y26436967D01*
X15473033Y26342112D01*
X15398506Y26230574D01*
X15347171Y26106640D01*
X15321000Y25975073D01*
X15299000Y25975073D01*
X15299000Y26333740D01*
X15375488Y26396512D01*
X15454190Y26492411D01*
X15512671Y26601821D01*
X15531229Y26663000D01*
X16599771Y26663000D01*
X16618329Y26601821D01*
X16676810Y26492411D01*
X16755512Y26396512D01*
X16851411Y26317810D01*
X16960821Y26259329D01*
X17079538Y26223317D01*
X17202999Y26211157D01*
X18103001Y26211157D01*
X18226462Y26223317D01*
X18345179Y26259329D01*
X18454589Y26317810D01*
X18550488Y26396512D01*
X18629190Y26492411D01*
X18687671Y26601821D01*
X18723683Y26720538D01*
X18735843Y26843999D01*
X18735843Y27494001D01*
X18723683Y27617462D01*
X18687671Y27736179D01*
X18629190Y27845589D01*
X18550488Y27941488D01*
X18454589Y28020190D01*
X18345179Y28078671D01*
X18226462Y28114683D01*
X18103001Y28126843D01*
X17202999Y28126843D01*
X17079538Y28114683D01*
X16960821Y28078671D01*
X16851411Y28020190D01*
X16755512Y27941488D01*
X16676810Y27845589D01*
X16618329Y27736179D01*
X16599771Y27675000D01*
X15531229Y27675000D01*
X15512671Y27736179D01*
X15454190Y27845589D01*
X15375488Y27941488D01*
X15284220Y28016389D01*
X15302482Y28018188D01*
X15422180Y28054498D01*
X15532494Y28113463D01*
X15629185Y28192815D01*
X15708537Y28289506D01*
X15767502Y28399820D01*
X15803812Y28519518D01*
X15816072Y28644000D01*
X15813000Y28933250D01*
X15654250Y29092000D01*
X14605000Y29092000D01*
X14605000Y29072000D01*
X14351000Y29072000D01*
X14351000Y29092000D01*
X13301750Y29092000D01*
X13143000Y28933250D01*
X13139928Y28644000D01*
X13152188Y28519518D01*
X13188498Y28399820D01*
X13247463Y28289506D01*
X13326815Y28192815D01*
X13423506Y28113463D01*
X13533820Y28054498D01*
X13653518Y28018188D01*
X13671780Y28016389D01*
X13580512Y27941488D01*
X13501810Y27845589D01*
X13443329Y27736179D01*
X13424771Y27675000D01*
X12356229Y27675000D01*
X12337671Y27736179D01*
X12279190Y27845589D01*
X12200488Y27941488D01*
X12109220Y28016389D01*
X12127482Y28018188D01*
X12247180Y28054498D01*
X12357494Y28113463D01*
X12454185Y28192815D01*
X12533537Y28289506D01*
X12592502Y28399820D01*
X12628812Y28519518D01*
X12641072Y28644000D01*
X12638000Y28933250D01*
X12479250Y29092000D01*
X11430000Y29092000D01*
X11430000Y29072000D01*
X11176000Y29072000D01*
X11176000Y29092000D01*
X10126750Y29092000D01*
X9968000Y28933250D01*
X9964928Y28644000D01*
X8380000Y28644000D01*
X8380000Y31798409D01*
X10038628Y30139780D01*
X10054473Y30120473D01*
X10056567Y30118755D01*
X10013498Y30038180D01*
X9977188Y29918482D01*
X9964928Y29794000D01*
X9968000Y29504750D01*
X10126750Y29346000D01*
X11176000Y29346000D01*
X11176000Y29366000D01*
X11430000Y29366000D01*
X11430000Y29346000D01*
X12479250Y29346000D01*
X12638000Y29504750D01*
X12641072Y29794000D01*
X12628812Y29918482D01*
X12611971Y29974000D01*
X13169029Y29974000D01*
X13152188Y29918482D01*
X13139928Y29794000D01*
X13143000Y29504750D01*
X13301750Y29346000D01*
X14351000Y29346000D01*
X14351000Y29366000D01*
X14605000Y29366000D01*
X14605000Y29346000D01*
X15654250Y29346000D01*
X15813000Y29504750D01*
X15816072Y29794000D01*
X15803812Y29918482D01*
X15786971Y29974000D01*
X16741160Y29974000D01*
X16676810Y29895589D01*
X16618329Y29786179D01*
X16582317Y29667462D01*
X16570157Y29544001D01*
X16570157Y28893999D01*
X16582317Y28770538D01*
X16618329Y28651821D01*
X16676810Y28542411D01*
X16755512Y28446512D01*
X16851411Y28367810D01*
X16960821Y28309329D01*
X17079538Y28273317D01*
X17202999Y28261157D01*
X18103001Y28261157D01*
X18226462Y28273317D01*
X18345179Y28309329D01*
X18454589Y28367810D01*
X18550488Y28446512D01*
X18629190Y28542411D01*
X18687671Y28651821D01*
X18703499Y28704000D01*
X21565146Y28704000D01*
X21590000Y28701552D01*
X21614854Y28704000D01*
X21689193Y28711322D01*
X21784575Y28740255D01*
X21872479Y28787241D01*
X21949527Y28850473D01*
X22012759Y28927521D01*
X22059745Y29015425D01*
X22088678Y29110807D01*
X22098448Y29210000D01*
X22096000Y29234854D01*
X22096000Y33572409D01*
X22640592Y34117000D01*
X22673073Y34117000D01*
X22804640Y34143171D01*
X22928574Y34194506D01*
X23040112Y34269033D01*
X23134967Y34363888D01*
X23209494Y34475426D01*
X23260829Y34599360D01*
X23287000Y34730927D01*
X23287000Y34865073D01*
X23260829Y34996640D01*
X23237070Y35054000D01*
X25450921Y35054000D01*
X25473888Y35031033D01*
X25585426Y34956506D01*
X25709360Y34905171D01*
X25840927Y34879000D01*
X25975073Y34879000D01*
X26106640Y34905171D01*
X26230574Y34956506D01*
X26342112Y35031033D01*
X26418000Y35106921D01*
X26418001Y23323593D01*
X24174409Y21080000D01*
X22555079Y21080000D01*
X22532112Y21102967D01*
X22420574Y21177494D01*
X22296640Y21228829D01*
X22165073Y21255000D01*
X22030927Y21255000D01*
X21899360Y21228829D01*
X21775426Y21177494D01*
X21663888Y21102967D01*
X21569033Y21008112D01*
X21494506Y20896574D01*
X21443171Y20772640D01*
X21417000Y20641073D01*
X21417000Y20506927D01*
X21443171Y20375360D01*
X21494506Y20251426D01*
X21569033Y20139888D01*
X21663888Y20045033D01*
X21775426Y19970506D01*
X21899360Y19919171D01*
X22030927Y19893000D01*
X22165073Y19893000D01*
X22296640Y19919171D01*
X22420574Y19970506D01*
X22532112Y20045033D01*
X22555079Y20068000D01*
X24359154Y20068000D01*
X24384000Y20065553D01*
X24408846Y20068000D01*
X24408854Y20068000D01*
X24483193Y20075322D01*
X24578575Y20104255D01*
X24666479Y20151241D01*
X24743527Y20214473D01*
X24759376Y20233785D01*
X27264220Y22738628D01*
X27283527Y22754473D01*
X27346759Y22831521D01*
X27393745Y22919425D01*
X27422261Y23013433D01*
X27422678Y23014806D01*
X27426719Y23055835D01*
X27430000Y23089146D01*
X27430000Y23089153D01*
X27432447Y23113999D01*
X27430000Y23138845D01*
X27430000Y36297155D01*
X27432447Y36322001D01*
X27430000Y36346847D01*
X27430000Y36346854D01*
X27422678Y36421193D01*
X27393745Y36516575D01*
X27346759Y36604479D01*
X27283527Y36681527D01*
X27264220Y36697372D01*
X26791376Y37170215D01*
X26775527Y37189527D01*
X26698479Y37252759D01*
X26610575Y37299745D01*
X26515193Y37328678D01*
X26440854Y37336000D01*
X26440846Y37336000D01*
X26416000Y37338447D01*
X26391154Y37336000D01*
X22307592Y37336000D01*
X21711376Y37932215D01*
X21695527Y37951527D01*
X21618479Y38014759D01*
X21530575Y38061745D01*
X21435193Y38090678D01*
X21360854Y38098000D01*
X21360846Y38098000D01*
X21336000Y38100447D01*
X21311154Y38098000D01*
X17141070Y38098000D01*
X17164829Y38155360D01*
X17191000Y38286927D01*
X17191000Y38319408D01*
X17358220Y38486628D01*
X17377527Y38502473D01*
X17440759Y38579521D01*
X17487745Y38667425D01*
X17516678Y38762807D01*
X17524000Y38837146D01*
X17524000Y38837153D01*
X17526447Y38861999D01*
X17524000Y38886845D01*
X17524000Y39098430D01*
X17536815Y39082815D01*
X17633506Y39003463D01*
X17743820Y38944498D01*
X17863518Y38908188D01*
X17988000Y38895928D01*
X18002250Y38899000D01*
X18161000Y39057750D01*
X18161000Y40207000D01*
X18415000Y40207000D01*
X18415000Y39057750D01*
X18573750Y38899000D01*
X18588000Y38895928D01*
X18712482Y38908188D01*
X18832180Y38944498D01*
X18942494Y39003463D01*
X19039185Y39082815D01*
X19118537Y39179506D01*
X19177502Y39289820D01*
X19213812Y39409518D01*
X19226072Y39534000D01*
X19223000Y40048250D01*
X19064250Y40207000D01*
X18415000Y40207000D01*
X18161000Y40207000D01*
X18141000Y40207000D01*
X18141000Y40461000D01*
X18161000Y40461000D01*
X18161000Y41610250D01*
X18415000Y41610250D01*
X18415000Y40461000D01*
X19064250Y40461000D01*
X19223000Y40619750D01*
X19226072Y41134000D01*
X19213812Y41258482D01*
X19177502Y41378180D01*
X19118537Y41488494D01*
X19039185Y41585185D01*
X18942494Y41664537D01*
X18832180Y41723502D01*
X18712482Y41759812D01*
X18588000Y41772072D01*
X18573750Y41769000D01*
X18415000Y41610250D01*
X18161000Y41610250D01*
X18002250Y41769000D01*
X17988000Y41772072D01*
X17863518Y41759812D01*
X17743820Y41723502D01*
X17633506Y41664537D01*
X17536815Y41585185D01*
X17457463Y41488494D01*
X17433375Y41443429D01*
X17371910Y41476283D01*
X17271953Y41506605D01*
X17168000Y41516843D01*
X16868000Y41516843D01*
X16764047Y41506605D01*
X16664090Y41476283D01*
X16571968Y41427043D01*
X16491223Y41360777D01*
X16424957Y41280032D01*
X16383000Y41201536D01*
X16341043Y41280032D01*
X16274777Y41360777D01*
X16254000Y41377828D01*
X16254000Y42722921D01*
X16276967Y42745888D01*
X16351494Y42857426D01*
X16402829Y42981360D01*
X16429000Y43112927D01*
X16429000Y43247073D01*
X16402829Y43378640D01*
X16351494Y43502574D01*
X16276967Y43614112D01*
X16182112Y43708967D01*
X16070574Y43783494D01*
X15946640Y43834829D01*
X15815073Y43861000D01*
X15680927Y43861000D01*
X15549360Y43834829D01*
X15425426Y43783494D01*
X15313888Y43708967D01*
X15219033Y43614112D01*
X15144506Y43502574D01*
X15093171Y43378640D01*
X15067000Y43247073D01*
X15067000Y43112927D01*
X15093171Y42981360D01*
X15144506Y42857426D01*
X15219033Y42745888D01*
X15242000Y42722921D01*
X15242001Y41377829D01*
X15221223Y41360777D01*
X15154957Y41280032D01*
X15113000Y41201536D01*
X15071043Y41280032D01*
X15004777Y41360777D01*
X14924032Y41427043D01*
X14831910Y41476283D01*
X14731953Y41506605D01*
X14628000Y41516843D01*
X14328000Y41516843D01*
X14224047Y41506605D01*
X14124090Y41476283D01*
X14031968Y41427043D01*
X13951223Y41360777D01*
X13884957Y41280032D01*
X13843000Y41201536D01*
X13801043Y41280032D01*
X13734777Y41360777D01*
X13714000Y41377828D01*
X13714000Y44250921D01*
X13789888Y44175033D01*
X13901426Y44100506D01*
X14025360Y44049171D01*
X14156927Y44023000D01*
X14291073Y44023000D01*
X14422640Y44049171D01*
X14546574Y44100506D01*
X14658112Y44175033D01*
X14752967Y44269888D01*
X14827494Y44381426D01*
X14878829Y44505360D01*
X14905000Y44636927D01*
X14905000Y44771073D01*
X14878829Y44902640D01*
X14827494Y45026574D01*
X14752967Y45138112D01*
X14730000Y45161079D01*
X14730000Y48259000D01*
X14750157Y48259000D01*
X14750157Y46909000D01*
X14757513Y46834311D01*
X14779299Y46762492D01*
X14814678Y46696304D01*
X14862289Y46638289D01*
X14920304Y46590678D01*
X14986492Y46555299D01*
X15058311Y46533513D01*
X15133000Y46526157D01*
X17033000Y46526157D01*
X17107689Y46533513D01*
X17179508Y46555299D01*
X17245696Y46590678D01*
X17303711Y46638289D01*
X17351322Y46696304D01*
X17386701Y46762492D01*
X17408487Y46834311D01*
X17415843Y46909000D01*
X17415843Y48259000D01*
X17408487Y48333689D01*
X17386701Y48405508D01*
X17351322Y48471696D01*
X17303711Y48529711D01*
X17245696Y48577322D01*
X17179508Y48612701D01*
X17107689Y48634487D01*
X17033000Y48641843D01*
X15133000Y48641843D01*
X15058311Y48634487D01*
X14986492Y48612701D01*
X14920304Y48577322D01*
X14862289Y48529711D01*
X14814678Y48471696D01*
X14779299Y48405508D01*
X14757513Y48333689D01*
X14750157Y48259000D01*
X14730000Y48259000D01*
X14730000Y49059000D01*
X18600157Y49059000D01*
X18600157Y48059000D01*
X18607513Y47984311D01*
X18629299Y47912492D01*
X18664678Y47846304D01*
X18712289Y47788289D01*
X18770304Y47740678D01*
X18836492Y47705299D01*
X18908311Y47683513D01*
X18983000Y47676157D01*
X20183000Y47676157D01*
X20257689Y47683513D01*
X20329508Y47705299D01*
X20395696Y47740678D01*
X20453711Y47788289D01*
X20501322Y47846304D01*
X20536701Y47912492D01*
X20558487Y47984311D01*
X20565843Y48059000D01*
X20565843Y49059000D01*
X20558487Y49133689D01*
X20536701Y49205508D01*
X20501322Y49271696D01*
X20453711Y49329711D01*
X20395696Y49377322D01*
X20329508Y49412701D01*
X20257689Y49434487D01*
X20183000Y49441843D01*
X18983000Y49441843D01*
X18908311Y49434487D01*
X18836492Y49412701D01*
X18770304Y49377322D01*
X18712289Y49329711D01*
X18664678Y49271696D01*
X18629299Y49205508D01*
X18607513Y49133689D01*
X18600157Y49059000D01*
X14730000Y49059000D01*
X14730000Y49574409D01*
X16188220Y51032628D01*
X16207527Y51048473D01*
X16270759Y51125521D01*
X16317745Y51213425D01*
X16346678Y51308807D01*
X16354000Y51383146D01*
X16356448Y51408000D01*
X16354000Y51432854D01*
X16354000Y52759000D01*
X18600157Y52759000D01*
X18600157Y51759000D01*
X18607513Y51684311D01*
X18629299Y51612492D01*
X18664678Y51546304D01*
X18712289Y51488289D01*
X18770304Y51440678D01*
X18836492Y51405299D01*
X18908311Y51383513D01*
X18983000Y51376157D01*
X20183000Y51376157D01*
X20257689Y51383513D01*
X20329508Y51405299D01*
X20395696Y51440678D01*
X20453711Y51488289D01*
X20501322Y51546304D01*
X20536701Y51612492D01*
X20558487Y51684311D01*
X20565843Y51759000D01*
X20565843Y52759000D01*
X20558487Y52833689D01*
X20536701Y52905508D01*
X20501322Y52971696D01*
X20453711Y53029711D01*
X20395696Y53077322D01*
X20329508Y53112701D01*
X20257689Y53134487D01*
X20183000Y53141843D01*
X18983000Y53141843D01*
X18908311Y53134487D01*
X18836492Y53112701D01*
X18770304Y53077322D01*
X18712289Y53029711D01*
X18664678Y52971696D01*
X18629299Y52905508D01*
X18607513Y52833689D01*
X18600157Y52759000D01*
X16354000Y52759000D01*
X16354000Y56387409D01*
X18471628Y54269780D01*
X18487473Y54250473D01*
X18564521Y54187241D01*
X18652425Y54140255D01*
X18725607Y54118056D01*
X18747806Y54111322D01*
X18757694Y54110348D01*
X18822146Y54104000D01*
X18822153Y54104000D01*
X18846999Y54101553D01*
X18871845Y54104000D01*
X21640921Y54104000D01*
X21663888Y54081033D01*
X21775426Y54006506D01*
X21899360Y53955171D01*
X22030927Y53929000D01*
X22165073Y53929000D01*
X22296640Y53955171D01*
X22420574Y54006506D01*
X22532112Y54081033D01*
X22626967Y54175888D01*
X22701494Y54287426D01*
X22752829Y54411360D01*
X22779000Y54542927D01*
X22779000Y54677073D01*
X22752829Y54808640D01*
X22701494Y54932574D01*
X22626967Y55044112D01*
X22532112Y55138967D01*
X22420574Y55213494D01*
X22296640Y55264829D01*
X22165073Y55291000D01*
X22030927Y55291000D01*
X21899360Y55264829D01*
X21775426Y55213494D01*
X21663888Y55138967D01*
X21640921Y55116000D01*
X19056592Y55116000D01*
X16696434Y57476157D01*
X17373000Y57476157D01*
X17447689Y57483513D01*
X17519508Y57505299D01*
X17585696Y57540678D01*
X17643711Y57588289D01*
X17691322Y57646304D01*
X17726701Y57712492D01*
X17748487Y57784311D01*
X17755843Y57859000D01*
X17755843Y58959000D01*
X18250157Y58959000D01*
X18250157Y57609000D01*
X18257513Y57534311D01*
X18279299Y57462492D01*
X18314678Y57396304D01*
X18362289Y57338289D01*
X18420304Y57290678D01*
X18486492Y57255299D01*
X18558311Y57233513D01*
X18633000Y57226157D01*
X20183000Y57226157D01*
X20257689Y57233513D01*
X20329508Y57255299D01*
X20395696Y57290678D01*
X20400025Y57294231D01*
X22970395Y57294231D01*
X22970395Y56911769D01*
X23045009Y56536655D01*
X23191372Y56183305D01*
X23403857Y55865299D01*
X23674299Y55594857D01*
X23992305Y55382372D01*
X24345655Y55236009D01*
X24720769Y55161395D01*
X25103231Y55161395D01*
X25478345Y55236009D01*
X25831695Y55382372D01*
X26149701Y55594857D01*
X26420143Y55865299D01*
X26632628Y56183305D01*
X26778991Y56536655D01*
X26853605Y56911769D01*
X26853605Y57294231D01*
X26778991Y57669345D01*
X26632628Y58022695D01*
X26420143Y58340701D01*
X26149701Y58611143D01*
X25831695Y58823628D01*
X25478345Y58969991D01*
X25103231Y59044605D01*
X24720769Y59044605D01*
X24345655Y58969991D01*
X23992305Y58823628D01*
X23674299Y58611143D01*
X23403857Y58340701D01*
X23191372Y58022695D01*
X23045009Y57669345D01*
X22970395Y57294231D01*
X20400025Y57294231D01*
X20453711Y57338289D01*
X20501322Y57396304D01*
X20536701Y57462492D01*
X20558487Y57534311D01*
X20565843Y57609000D01*
X20565843Y58959000D01*
X20558487Y59033689D01*
X20536701Y59105508D01*
X20501322Y59171696D01*
X20453711Y59229711D01*
X20395696Y59277322D01*
X20329508Y59312701D01*
X20257689Y59334487D01*
X20183000Y59341843D01*
X18633000Y59341843D01*
X18558311Y59334487D01*
X18486492Y59312701D01*
X18420304Y59277322D01*
X18362289Y59229711D01*
X18314678Y59171696D01*
X18279299Y59105508D01*
X18257513Y59033689D01*
X18250157Y58959000D01*
X17755843Y58959000D01*
X17748487Y59033689D01*
X17726701Y59105508D01*
X17691322Y59171696D01*
X17643711Y59229711D01*
X17585696Y59277322D01*
X17519508Y59312701D01*
X17447689Y59334487D01*
X17373000Y59341843D01*
X16523000Y59341843D01*
X16448311Y59334487D01*
X16398000Y59319225D01*
X16347689Y59334487D01*
X16273000Y59341843D01*
X15423000Y59341843D01*
X15348311Y59334487D01*
X15298000Y59319225D01*
X15247689Y59334487D01*
X15173000Y59341843D01*
X14323000Y59341843D01*
X14248311Y59334487D01*
X14198000Y59319225D01*
X14147689Y59334487D01*
X14073000Y59341843D01*
X13223000Y59341843D01*
X13148311Y59334487D01*
X13098000Y59319225D01*
X13047689Y59334487D01*
X12973000Y59341843D01*
X12380272Y59341843D01*
X12324185Y59410185D01*
X12227494Y59489537D01*
X12117180Y59548502D01*
X11997482Y59584812D01*
X11873000Y59597072D01*
X11733750Y59594000D01*
X11575000Y59435250D01*
X11575000Y58536000D01*
X11595000Y58536000D01*
X11595000Y58282000D01*
X11575000Y58282000D01*
X11575000Y57382750D01*
X11733750Y57224000D01*
X11873000Y57220928D01*
X11997482Y57233188D01*
X12042000Y57246692D01*
X12042001Y54457080D01*
X12019033Y54434112D01*
X11944506Y54322574D01*
X11893171Y54198640D01*
X11867000Y54067073D01*
X11867000Y53932927D01*
X11893171Y53801360D01*
X11944506Y53677426D01*
X12019033Y53565888D01*
X12113888Y53471033D01*
X12225426Y53396506D01*
X12349360Y53345171D01*
X12480927Y53319000D01*
X12615073Y53319000D01*
X12746640Y53345171D01*
X12870574Y53396506D01*
X12982112Y53471033D01*
X13076967Y53565888D01*
X13142000Y53663218D01*
X13142000Y51957592D01*
X11851780Y50667372D01*
X11832474Y50651527D01*
X11769242Y50574479D01*
X11744127Y50527492D01*
X11722255Y50486574D01*
X11693322Y50391192D01*
X11683553Y50292000D01*
X11686001Y50267144D01*
X11686000Y46691592D01*
X11220409Y46226000D01*
X10438846Y46226000D01*
X10414000Y46228447D01*
X10389154Y46226000D01*
X10389146Y46226000D01*
X10314807Y46218678D01*
X10219425Y46189745D01*
X10131521Y46142759D01*
X10054473Y46079527D01*
X10038629Y46060221D01*
X9057780Y45079371D01*
X9038474Y45063527D01*
X8975242Y44986479D01*
X8950127Y44939492D01*
X8928255Y44898574D01*
X8899322Y44803192D01*
X8889553Y44704000D01*
X8892001Y44679146D01*
X8892000Y41377829D01*
X8871223Y41360777D01*
X8804957Y41280032D01*
X8755717Y41187910D01*
X8725395Y41087953D01*
X8715157Y40984000D01*
X8715157Y40366749D01*
X7533785Y39185376D01*
X7514473Y39169527D01*
X7451241Y39092479D01*
X7404255Y39004574D01*
X7375322Y38909192D01*
X7368000Y38834853D01*
X7368000Y38834846D01*
X7365553Y38810000D01*
X7368000Y38785154D01*
X7368001Y33044863D01*
X7368000Y33044853D01*
X7368000Y33044846D01*
X7365553Y33020000D01*
X7368000Y32995154D01*
X7368001Y23306964D01*
X7366113Y23270128D01*
X7371605Y23232555D01*
X7375323Y23194807D01*
X7378796Y23183356D01*
X7380529Y23171503D01*
X7393241Y23135737D01*
X7404256Y23099425D01*
X7409901Y23088863D01*
X7413910Y23077585D01*
X7433346Y23045002D01*
X7451242Y23011521D01*
X7474640Y22983011D01*
X7876001Y22439433D01*
X7876000Y21031079D01*
X7853033Y21008112D01*
X7778506Y20896574D01*
X7727171Y20772640D01*
X7701000Y20641073D01*
X7701000Y20506927D01*
X7727171Y20375360D01*
X7778506Y20251426D01*
X7853033Y20139888D01*
X7862921Y20130000D01*
X7418264Y20130000D01*
X7401322Y20161696D01*
X7353711Y20219711D01*
X7295696Y20267322D01*
X7229508Y20302701D01*
X7157689Y20324487D01*
X7083000Y20331843D01*
X5523000Y20331843D01*
X5448311Y20324487D01*
X5376492Y20302701D01*
X5310304Y20267322D01*
X5252289Y20219711D01*
X5204678Y20161696D01*
X5169299Y20095508D01*
X5147513Y20023689D01*
X5140157Y19949000D01*
X5140157Y19299000D01*
X5147513Y19224311D01*
X5169299Y19152492D01*
X5204678Y19086304D01*
X5252289Y19028289D01*
X5310304Y18980678D01*
X5376492Y18945299D01*
X5448311Y18923513D01*
X5523000Y18916157D01*
X5717001Y18916157D01*
X5717000Y17817229D01*
X5655821Y17798671D01*
X5546411Y17740190D01*
X5450512Y17661488D01*
X5375611Y17570220D01*
X5373812Y17588482D01*
X5337502Y17708180D01*
X5278537Y17818494D01*
X5199185Y17915185D01*
X5102494Y17994537D01*
X4992180Y18053502D01*
X4872482Y18089812D01*
X4748000Y18102072D01*
X4458750Y18099000D01*
X4300000Y17940250D01*
X4046000Y17940250D01*
X3887250Y18099000D01*
X3598000Y18102072D01*
X3473518Y18089812D01*
X3353820Y18053502D01*
X3243506Y17994537D01*
X3146815Y17915185D01*
X3067463Y17818494D01*
X3008498Y17708180D01*
X2972188Y17588482D01*
X2959928Y17464000D01*
X1776000Y17464000D01*
X1776000Y18111409D01*
X2633090Y18968498D01*
X2676492Y18945299D01*
X2748311Y18923513D01*
X2823000Y18916157D01*
X4383000Y18916157D01*
X4457689Y18923513D01*
X4529508Y18945299D01*
X4595696Y18980678D01*
X4653711Y19028289D01*
X4701322Y19086304D01*
X4736701Y19152492D01*
X4758487Y19224311D01*
X4765843Y19299000D01*
X4765843Y19741728D01*
X4834185Y19797815D01*
X4913537Y19894506D01*
X4972502Y20004820D01*
X5008812Y20124518D01*
X5021072Y20249000D01*
X5018000Y20288250D01*
X4859250Y20447000D01*
X3730000Y20447000D01*
X3730000Y20427000D01*
X3476000Y20427000D01*
X3476000Y20447000D01*
X2346750Y20447000D01*
X2188000Y20288250D01*
X2184928Y20249000D01*
X2197188Y20124518D01*
X2233498Y20004820D01*
X2235303Y20001443D01*
X2213473Y19983527D01*
X2197628Y19964220D01*
X1776000Y19542592D01*
X1776000Y20872409D01*
X1921592Y21018000D01*
X2196648Y21018000D01*
X2184928Y20899000D01*
X2188000Y20859750D01*
X2346750Y20701000D01*
X3476000Y20701000D01*
X3476000Y20721000D01*
X3730000Y20721000D01*
X3730000Y20701000D01*
X4859250Y20701000D01*
X5018000Y20859750D01*
X5021072Y20899000D01*
X5008812Y21023482D01*
X4972502Y21143180D01*
X4913537Y21253494D01*
X4834185Y21350185D01*
X4765843Y21406272D01*
X4765843Y21849000D01*
X5140157Y21849000D01*
X5140157Y21199000D01*
X5147513Y21124311D01*
X5169299Y21052492D01*
X5204678Y20986304D01*
X5252289Y20928289D01*
X5310304Y20880678D01*
X5376492Y20845299D01*
X5448311Y20823513D01*
X5523000Y20816157D01*
X7083000Y20816157D01*
X7157689Y20823513D01*
X7229508Y20845299D01*
X7295696Y20880678D01*
X7353711Y20928289D01*
X7401322Y20986304D01*
X7436701Y21052492D01*
X7458487Y21124311D01*
X7465843Y21199000D01*
X7465843Y21849000D01*
X7458487Y21923689D01*
X7436701Y21995508D01*
X7401322Y22061696D01*
X7353711Y22119711D01*
X7295696Y22167322D01*
X7229508Y22202701D01*
X7157689Y22224487D01*
X7083000Y22231843D01*
X5523000Y22231843D01*
X5448311Y22224487D01*
X5376492Y22202701D01*
X5310304Y22167322D01*
X5252289Y22119711D01*
X5204678Y22061696D01*
X5169299Y21995508D01*
X5147513Y21923689D01*
X5140157Y21849000D01*
X4765843Y21849000D01*
X4758487Y21923689D01*
X4736701Y21995508D01*
X4701322Y22061696D01*
X4653711Y22119711D01*
X4595696Y22167322D01*
X4529508Y22202701D01*
X4457689Y22224487D01*
X4383000Y22231843D01*
X4053000Y22231843D01*
X4053000Y23330771D01*
X4114179Y23349329D01*
X4223589Y23407810D01*
X4319488Y23486512D01*
X4394389Y23577780D01*
X4396188Y23559518D01*
X4432498Y23439820D01*
X4491463Y23329506D01*
X4570815Y23232815D01*
X4667506Y23153463D01*
X4777820Y23094498D01*
X4897518Y23058188D01*
X5022000Y23045928D01*
X5311250Y23049000D01*
X5470000Y23207750D01*
X5470000Y24257000D01*
X5724000Y24257000D01*
X5724000Y23207750D01*
X5882750Y23049000D01*
X6172000Y23045928D01*
X6296482Y23058188D01*
X6416180Y23094498D01*
X6526494Y23153463D01*
X6623185Y23232815D01*
X6702537Y23329506D01*
X6761502Y23439820D01*
X6797812Y23559518D01*
X6810072Y23684000D01*
X6807000Y24098250D01*
X6648250Y24257000D01*
X5724000Y24257000D01*
X5470000Y24257000D01*
X5450000Y24257000D01*
X5450000Y24511000D01*
X5470000Y24511000D01*
X5470000Y25560250D01*
X5724000Y25560250D01*
X5724000Y24511000D01*
X6648250Y24511000D01*
X6807000Y24669750D01*
X6810072Y25084000D01*
X6797812Y25208482D01*
X6761502Y25328180D01*
X6702537Y25438494D01*
X6623185Y25535185D01*
X6526494Y25614537D01*
X6416180Y25673502D01*
X6296482Y25709812D01*
X6172000Y25722072D01*
X5882750Y25719000D01*
X5724000Y25560250D01*
X5470000Y25560250D01*
X5311250Y25719000D01*
X5022000Y25722072D01*
X4897518Y25709812D01*
X4777820Y25673502D01*
X4667506Y25614537D01*
X4570815Y25535185D01*
X4491463Y25438494D01*
X4432498Y25328180D01*
X4396188Y25208482D01*
X4394389Y25190220D01*
X4319488Y25281488D01*
X4223589Y25360190D01*
X4114179Y25418671D01*
X3995462Y25454683D01*
X3872001Y25466843D01*
X3221999Y25466843D01*
X3098538Y25454683D01*
X2979821Y25418671D01*
X2870411Y25360190D01*
X2774512Y25281488D01*
X2695810Y25185589D01*
X2637329Y25076179D01*
X2601317Y24957462D01*
X2589157Y24834001D01*
X2589157Y23933999D01*
X2601317Y23810538D01*
X2637329Y23691821D01*
X2695810Y23582411D01*
X2774512Y23486512D01*
X2870411Y23407810D01*
X2979821Y23349329D01*
X3041000Y23330771D01*
X3041001Y22231843D01*
X2823000Y22231843D01*
X2748311Y22224487D01*
X2676492Y22202701D01*
X2610304Y22167322D01*
X2552289Y22119711D01*
X2504678Y22061696D01*
X2487736Y22030000D01*
X1736845Y22030000D01*
X1711999Y22032447D01*
X1687153Y22030000D01*
X1687146Y22030000D01*
X1622694Y22023652D01*
X1612806Y22022678D01*
X1590607Y22015944D01*
X1517425Y21993745D01*
X1429521Y21946759D01*
X1352473Y21883527D01*
X1336629Y21864221D01*
X929780Y21457371D01*
X910474Y21441527D01*
X847242Y21364479D01*
X834821Y21341241D01*
X800255Y21276574D01*
X771322Y21181192D01*
X761553Y21082000D01*
X343000Y21082000D01*
X343000Y48259000D01*
X8780157Y48259000D01*
X8780157Y46909000D01*
X8787513Y46834311D01*
X8809299Y46762492D01*
X8844678Y46696304D01*
X8892289Y46638289D01*
X8950304Y46590678D01*
X9016492Y46555299D01*
X9088311Y46533513D01*
X9163000Y46526157D01*
X11063000Y46526157D01*
X11137689Y46533513D01*
X11209508Y46555299D01*
X11275696Y46590678D01*
X11333711Y46638289D01*
X11381322Y46696304D01*
X11416701Y46762492D01*
X11438487Y46834311D01*
X11445843Y46909000D01*
X11445843Y48259000D01*
X11438487Y48333689D01*
X11416701Y48405508D01*
X11381322Y48471696D01*
X11333711Y48529711D01*
X11275696Y48577322D01*
X11209508Y48612701D01*
X11137689Y48634487D01*
X11063000Y48641843D01*
X9163000Y48641843D01*
X9088311Y48634487D01*
X9016492Y48612701D01*
X8950304Y48577322D01*
X8892289Y48529711D01*
X8844678Y48471696D01*
X8809299Y48405508D01*
X8787513Y48333689D01*
X8780157Y48259000D01*
X343000Y48259000D01*
X343000Y57081920D01*
X363817Y57294231D01*
X970395Y57294231D01*
X970395Y56911769D01*
X1045009Y56536655D01*
X1191372Y56183305D01*
X1403857Y55865299D01*
X1674299Y55594857D01*
X1992305Y55382372D01*
X2345655Y55236009D01*
X2720769Y55161395D01*
X3103231Y55161395D01*
X3478345Y55236009D01*
X3831695Y55382372D01*
X4149701Y55594857D01*
X4420143Y55865299D01*
X4632628Y56183305D01*
X4778991Y56536655D01*
X4853605Y56911769D01*
X4853605Y57294231D01*
X4778991Y57669345D01*
X4632628Y58022695D01*
X4420143Y58340701D01*
X4149701Y58611143D01*
X3831695Y58823628D01*
X3504880Y58959000D01*
X7120157Y58959000D01*
X7120157Y57159000D01*
X7127513Y57084311D01*
X7149299Y57012492D01*
X7184678Y56946304D01*
X7232289Y56888289D01*
X7290304Y56840678D01*
X7356492Y56805299D01*
X7428311Y56783513D01*
X7503000Y56776157D01*
X8673000Y56776157D01*
X8747689Y56783513D01*
X8819508Y56805299D01*
X8885696Y56840678D01*
X8943711Y56888289D01*
X8991322Y56946304D01*
X9026701Y57012492D01*
X9048487Y57084311D01*
X9055843Y57159000D01*
X9055843Y57476157D01*
X9673000Y57476157D01*
X9747689Y57483513D01*
X9798000Y57498775D01*
X9842000Y57485427D01*
X9842001Y55970856D01*
X9839553Y55946000D01*
X9849322Y55846808D01*
X9878255Y55751426D01*
X9878256Y55751425D01*
X9925242Y55663521D01*
X9988474Y55586473D01*
X10007780Y55570629D01*
X10241000Y55337409D01*
X10241000Y55304927D01*
X10267171Y55173360D01*
X10318506Y55049426D01*
X10393033Y54937888D01*
X10487888Y54843033D01*
X10599426Y54768506D01*
X10723360Y54717171D01*
X10854927Y54691000D01*
X10989073Y54691000D01*
X11120640Y54717171D01*
X11244574Y54768506D01*
X11356112Y54843033D01*
X11450967Y54937888D01*
X11525494Y55049426D01*
X11576829Y55173360D01*
X11603000Y55304927D01*
X11603000Y55439073D01*
X11576829Y55570640D01*
X11525494Y55694574D01*
X11450967Y55806112D01*
X11356112Y55900967D01*
X11244574Y55975494D01*
X11120640Y56026829D01*
X10989073Y56053000D01*
X10956591Y56053000D01*
X10854000Y56155591D01*
X10854000Y57246692D01*
X10898518Y57233188D01*
X11023000Y57220928D01*
X11162250Y57224000D01*
X11321000Y57382750D01*
X11321000Y58282000D01*
X11301000Y58282000D01*
X11301000Y58536000D01*
X11321000Y58536000D01*
X11321000Y59435250D01*
X11162250Y59594000D01*
X11023000Y59597072D01*
X10898518Y59584812D01*
X10778820Y59548502D01*
X10668506Y59489537D01*
X10571815Y59410185D01*
X10515728Y59341843D01*
X9923000Y59341843D01*
X9848311Y59334487D01*
X9798000Y59319225D01*
X9747689Y59334487D01*
X9673000Y59341843D01*
X8923000Y59341843D01*
X8848311Y59334487D01*
X8798000Y59319225D01*
X8747689Y59334487D01*
X8673000Y59341843D01*
X7503000Y59341843D01*
X7428311Y59334487D01*
X7356492Y59312701D01*
X7290304Y59277322D01*
X7232289Y59229711D01*
X7184678Y59171696D01*
X7149299Y59105508D01*
X7127513Y59033689D01*
X7120157Y58959000D01*
X3504880Y58959000D01*
X3478345Y58969991D01*
X3103231Y59044605D01*
X2720769Y59044605D01*
X2345655Y58969991D01*
X1992305Y58823628D01*
X1674299Y58611143D01*
X1403857Y58340701D01*
X1191372Y58022695D01*
X1045009Y57669345D01*
X970395Y57294231D01*
X363817Y57294231D01*
X393954Y57601586D01*
X538753Y58081182D01*
X773948Y58523520D01*
X1090580Y58911750D01*
X1476587Y59231083D01*
X1917274Y59469361D01*
X2395847Y59617504D01*
X2914338Y59672000D01*
X24890920Y59672000D01*
X25410586Y59621046D01*
M02*
