G04 #@! TF.GenerationSoftware,KiCad,Pcbnew,(5.1.5)-3*
G04 #@! TF.CreationDate,2020-05-03T13:25:38+02:00*
G04 #@! TF.ProjectId,SPY_RECORDER-FBV010,5350595f-5245-4434-9f52-4445522d4642,v0.00*
G04 #@! TF.SameCoordinates,PX7d7a120PY7cfe0c0*
G04 #@! TF.FileFunction,Paste,Bot*
G04 #@! TF.FilePolarity,Positive*
%FSLAX46Y46*%
G04 Gerber Fmt 4.6, Leading zero omitted, Abs format (unit mm)*
G04 Created by KiCad (PCBNEW (5.1.5)-3) date 2020-05-03 13:25:38*
%MOMM*%
%LPD*%
G04 APERTURE LIST*
%ADD10C,0.100000*%
%ADD11R,0.850000X1.100000*%
%ADD12R,0.750000X1.100000*%
%ADD13R,1.170000X1.800000*%
%ADD14R,1.550000X1.350000*%
%ADD15R,1.200000X1.000000*%
%ADD16R,1.900000X1.350000*%
%ADD17R,1.560000X0.650000*%
%ADD18R,0.650000X1.560000*%
G04 APERTURE END LIST*
D10*
G36*
X3896505Y25082796D02*
G01*
X3920773Y25079196D01*
X3944572Y25073235D01*
X3967671Y25064970D01*
X3989850Y25054480D01*
X4010893Y25041868D01*
X4030599Y25027253D01*
X4048777Y25010777D01*
X4065253Y24992599D01*
X4079868Y24972893D01*
X4092480Y24951850D01*
X4102970Y24929671D01*
X4111235Y24906572D01*
X4117196Y24882773D01*
X4120796Y24858505D01*
X4122000Y24834001D01*
X4122000Y23933999D01*
X4120796Y23909495D01*
X4117196Y23885227D01*
X4111235Y23861428D01*
X4102970Y23838329D01*
X4092480Y23816150D01*
X4079868Y23795107D01*
X4065253Y23775401D01*
X4048777Y23757223D01*
X4030599Y23740747D01*
X4010893Y23726132D01*
X3989850Y23713520D01*
X3967671Y23703030D01*
X3944572Y23694765D01*
X3920773Y23688804D01*
X3896505Y23685204D01*
X3872001Y23684000D01*
X3221999Y23684000D01*
X3197495Y23685204D01*
X3173227Y23688804D01*
X3149428Y23694765D01*
X3126329Y23703030D01*
X3104150Y23713520D01*
X3083107Y23726132D01*
X3063401Y23740747D01*
X3045223Y23757223D01*
X3028747Y23775401D01*
X3014132Y23795107D01*
X3001520Y23816150D01*
X2991030Y23838329D01*
X2982765Y23861428D01*
X2976804Y23885227D01*
X2973204Y23909495D01*
X2972000Y23933999D01*
X2972000Y24834001D01*
X2973204Y24858505D01*
X2976804Y24882773D01*
X2982765Y24906572D01*
X2991030Y24929671D01*
X3001520Y24951850D01*
X3014132Y24972893D01*
X3028747Y24992599D01*
X3045223Y25010777D01*
X3063401Y25027253D01*
X3083107Y25041868D01*
X3104150Y25054480D01*
X3126329Y25064970D01*
X3149428Y25073235D01*
X3173227Y25079196D01*
X3197495Y25082796D01*
X3221999Y25084000D01*
X3872001Y25084000D01*
X3896505Y25082796D01*
G37*
G36*
X5946505Y25082796D02*
G01*
X5970773Y25079196D01*
X5994572Y25073235D01*
X6017671Y25064970D01*
X6039850Y25054480D01*
X6060893Y25041868D01*
X6080599Y25027253D01*
X6098777Y25010777D01*
X6115253Y24992599D01*
X6129868Y24972893D01*
X6142480Y24951850D01*
X6152970Y24929671D01*
X6161235Y24906572D01*
X6167196Y24882773D01*
X6170796Y24858505D01*
X6172000Y24834001D01*
X6172000Y23933999D01*
X6170796Y23909495D01*
X6167196Y23885227D01*
X6161235Y23861428D01*
X6152970Y23838329D01*
X6142480Y23816150D01*
X6129868Y23795107D01*
X6115253Y23775401D01*
X6098777Y23757223D01*
X6080599Y23740747D01*
X6060893Y23726132D01*
X6039850Y23713520D01*
X6017671Y23703030D01*
X5994572Y23694765D01*
X5970773Y23688804D01*
X5946505Y23685204D01*
X5922001Y23684000D01*
X5271999Y23684000D01*
X5247495Y23685204D01*
X5223227Y23688804D01*
X5199428Y23694765D01*
X5176329Y23703030D01*
X5154150Y23713520D01*
X5133107Y23726132D01*
X5113401Y23740747D01*
X5095223Y23757223D01*
X5078747Y23775401D01*
X5064132Y23795107D01*
X5051520Y23816150D01*
X5041030Y23838329D01*
X5032765Y23861428D01*
X5026804Y23885227D01*
X5023204Y23909495D01*
X5022000Y23933999D01*
X5022000Y24834001D01*
X5023204Y24858505D01*
X5026804Y24882773D01*
X5032765Y24906572D01*
X5041030Y24929671D01*
X5051520Y24951850D01*
X5064132Y24972893D01*
X5078747Y24992599D01*
X5095223Y25010777D01*
X5113401Y25027253D01*
X5133107Y25041868D01*
X5154150Y25054480D01*
X5176329Y25064970D01*
X5199428Y25073235D01*
X5223227Y25079196D01*
X5247495Y25082796D01*
X5271999Y25084000D01*
X5922001Y25084000D01*
X5946505Y25082796D01*
G37*
G36*
X4522505Y17462796D02*
G01*
X4546773Y17459196D01*
X4570572Y17453235D01*
X4593671Y17444970D01*
X4615850Y17434480D01*
X4636893Y17421868D01*
X4656599Y17407253D01*
X4674777Y17390777D01*
X4691253Y17372599D01*
X4705868Y17352893D01*
X4718480Y17331850D01*
X4728970Y17309671D01*
X4737235Y17286572D01*
X4743196Y17262773D01*
X4746796Y17238505D01*
X4748000Y17214001D01*
X4748000Y16313999D01*
X4746796Y16289495D01*
X4743196Y16265227D01*
X4737235Y16241428D01*
X4728970Y16218329D01*
X4718480Y16196150D01*
X4705868Y16175107D01*
X4691253Y16155401D01*
X4674777Y16137223D01*
X4656599Y16120747D01*
X4636893Y16106132D01*
X4615850Y16093520D01*
X4593671Y16083030D01*
X4570572Y16074765D01*
X4546773Y16068804D01*
X4522505Y16065204D01*
X4498001Y16064000D01*
X3847999Y16064000D01*
X3823495Y16065204D01*
X3799227Y16068804D01*
X3775428Y16074765D01*
X3752329Y16083030D01*
X3730150Y16093520D01*
X3709107Y16106132D01*
X3689401Y16120747D01*
X3671223Y16137223D01*
X3654747Y16155401D01*
X3640132Y16175107D01*
X3627520Y16196150D01*
X3617030Y16218329D01*
X3608765Y16241428D01*
X3602804Y16265227D01*
X3599204Y16289495D01*
X3598000Y16313999D01*
X3598000Y17214001D01*
X3599204Y17238505D01*
X3602804Y17262773D01*
X3608765Y17286572D01*
X3617030Y17309671D01*
X3627520Y17331850D01*
X3640132Y17352893D01*
X3654747Y17372599D01*
X3671223Y17390777D01*
X3689401Y17407253D01*
X3709107Y17421868D01*
X3730150Y17434480D01*
X3752329Y17444970D01*
X3775428Y17453235D01*
X3799227Y17459196D01*
X3823495Y17462796D01*
X3847999Y17464000D01*
X4498001Y17464000D01*
X4522505Y17462796D01*
G37*
G36*
X6572505Y17462796D02*
G01*
X6596773Y17459196D01*
X6620572Y17453235D01*
X6643671Y17444970D01*
X6665850Y17434480D01*
X6686893Y17421868D01*
X6706599Y17407253D01*
X6724777Y17390777D01*
X6741253Y17372599D01*
X6755868Y17352893D01*
X6768480Y17331850D01*
X6778970Y17309671D01*
X6787235Y17286572D01*
X6793196Y17262773D01*
X6796796Y17238505D01*
X6798000Y17214001D01*
X6798000Y16313999D01*
X6796796Y16289495D01*
X6793196Y16265227D01*
X6787235Y16241428D01*
X6778970Y16218329D01*
X6768480Y16196150D01*
X6755868Y16175107D01*
X6741253Y16155401D01*
X6724777Y16137223D01*
X6706599Y16120747D01*
X6686893Y16106132D01*
X6665850Y16093520D01*
X6643671Y16083030D01*
X6620572Y16074765D01*
X6596773Y16068804D01*
X6572505Y16065204D01*
X6548001Y16064000D01*
X5897999Y16064000D01*
X5873495Y16065204D01*
X5849227Y16068804D01*
X5825428Y16074765D01*
X5802329Y16083030D01*
X5780150Y16093520D01*
X5759107Y16106132D01*
X5739401Y16120747D01*
X5721223Y16137223D01*
X5704747Y16155401D01*
X5690132Y16175107D01*
X5677520Y16196150D01*
X5667030Y16218329D01*
X5658765Y16241428D01*
X5652804Y16265227D01*
X5649204Y16289495D01*
X5648000Y16313999D01*
X5648000Y17214001D01*
X5649204Y17238505D01*
X5652804Y17262773D01*
X5658765Y17286572D01*
X5667030Y17309671D01*
X5677520Y17331850D01*
X5690132Y17352893D01*
X5704747Y17372599D01*
X5721223Y17390777D01*
X5739401Y17407253D01*
X5759107Y17421868D01*
X5780150Y17434480D01*
X5802329Y17444970D01*
X5825428Y17453235D01*
X5849227Y17459196D01*
X5873495Y17462796D01*
X5897999Y17464000D01*
X6548001Y17464000D01*
X6572505Y17462796D01*
G37*
G36*
X14952505Y19632796D02*
G01*
X14976773Y19629196D01*
X15000572Y19623235D01*
X15023671Y19614970D01*
X15045850Y19604480D01*
X15066893Y19591868D01*
X15086599Y19577253D01*
X15104777Y19560777D01*
X15121253Y19542599D01*
X15135868Y19522893D01*
X15148480Y19501850D01*
X15158970Y19479671D01*
X15167235Y19456572D01*
X15173196Y19432773D01*
X15176796Y19408505D01*
X15178000Y19384001D01*
X15178000Y18733999D01*
X15176796Y18709495D01*
X15173196Y18685227D01*
X15167235Y18661428D01*
X15158970Y18638329D01*
X15148480Y18616150D01*
X15135868Y18595107D01*
X15121253Y18575401D01*
X15104777Y18557223D01*
X15086599Y18540747D01*
X15066893Y18526132D01*
X15045850Y18513520D01*
X15023671Y18503030D01*
X15000572Y18494765D01*
X14976773Y18488804D01*
X14952505Y18485204D01*
X14928001Y18484000D01*
X14027999Y18484000D01*
X14003495Y18485204D01*
X13979227Y18488804D01*
X13955428Y18494765D01*
X13932329Y18503030D01*
X13910150Y18513520D01*
X13889107Y18526132D01*
X13869401Y18540747D01*
X13851223Y18557223D01*
X13834747Y18575401D01*
X13820132Y18595107D01*
X13807520Y18616150D01*
X13797030Y18638329D01*
X13788765Y18661428D01*
X13782804Y18685227D01*
X13779204Y18709495D01*
X13778000Y18733999D01*
X13778000Y19384001D01*
X13779204Y19408505D01*
X13782804Y19432773D01*
X13788765Y19456572D01*
X13797030Y19479671D01*
X13807520Y19501850D01*
X13820132Y19522893D01*
X13834747Y19542599D01*
X13851223Y19560777D01*
X13869401Y19577253D01*
X13889107Y19591868D01*
X13910150Y19604480D01*
X13932329Y19614970D01*
X13955428Y19623235D01*
X13979227Y19629196D01*
X14003495Y19632796D01*
X14027999Y19634000D01*
X14928001Y19634000D01*
X14952505Y19632796D01*
G37*
G36*
X14952505Y17582796D02*
G01*
X14976773Y17579196D01*
X15000572Y17573235D01*
X15023671Y17564970D01*
X15045850Y17554480D01*
X15066893Y17541868D01*
X15086599Y17527253D01*
X15104777Y17510777D01*
X15121253Y17492599D01*
X15135868Y17472893D01*
X15148480Y17451850D01*
X15158970Y17429671D01*
X15167235Y17406572D01*
X15173196Y17382773D01*
X15176796Y17358505D01*
X15178000Y17334001D01*
X15178000Y16683999D01*
X15176796Y16659495D01*
X15173196Y16635227D01*
X15167235Y16611428D01*
X15158970Y16588329D01*
X15148480Y16566150D01*
X15135868Y16545107D01*
X15121253Y16525401D01*
X15104777Y16507223D01*
X15086599Y16490747D01*
X15066893Y16476132D01*
X15045850Y16463520D01*
X15023671Y16453030D01*
X15000572Y16444765D01*
X14976773Y16438804D01*
X14952505Y16435204D01*
X14928001Y16434000D01*
X14027999Y16434000D01*
X14003495Y16435204D01*
X13979227Y16438804D01*
X13955428Y16444765D01*
X13932329Y16453030D01*
X13910150Y16463520D01*
X13889107Y16476132D01*
X13869401Y16490747D01*
X13851223Y16507223D01*
X13834747Y16525401D01*
X13820132Y16545107D01*
X13807520Y16566150D01*
X13797030Y16588329D01*
X13788765Y16611428D01*
X13782804Y16635227D01*
X13779204Y16659495D01*
X13778000Y16683999D01*
X13778000Y17334001D01*
X13779204Y17358505D01*
X13782804Y17382773D01*
X13788765Y17406572D01*
X13797030Y17429671D01*
X13807520Y17451850D01*
X13820132Y17472893D01*
X13834747Y17492599D01*
X13851223Y17510777D01*
X13869401Y17527253D01*
X13889107Y17541868D01*
X13910150Y17554480D01*
X13932329Y17564970D01*
X13955428Y17573235D01*
X13979227Y17579196D01*
X14003495Y17582796D01*
X14027999Y17584000D01*
X14928001Y17584000D01*
X14952505Y17582796D01*
G37*
G36*
X11777505Y27742796D02*
G01*
X11801773Y27739196D01*
X11825572Y27733235D01*
X11848671Y27724970D01*
X11870850Y27714480D01*
X11891893Y27701868D01*
X11911599Y27687253D01*
X11929777Y27670777D01*
X11946253Y27652599D01*
X11960868Y27632893D01*
X11973480Y27611850D01*
X11983970Y27589671D01*
X11992235Y27566572D01*
X11998196Y27542773D01*
X12001796Y27518505D01*
X12003000Y27494001D01*
X12003000Y26843999D01*
X12001796Y26819495D01*
X11998196Y26795227D01*
X11992235Y26771428D01*
X11983970Y26748329D01*
X11973480Y26726150D01*
X11960868Y26705107D01*
X11946253Y26685401D01*
X11929777Y26667223D01*
X11911599Y26650747D01*
X11891893Y26636132D01*
X11870850Y26623520D01*
X11848671Y26613030D01*
X11825572Y26604765D01*
X11801773Y26598804D01*
X11777505Y26595204D01*
X11753001Y26594000D01*
X10852999Y26594000D01*
X10828495Y26595204D01*
X10804227Y26598804D01*
X10780428Y26604765D01*
X10757329Y26613030D01*
X10735150Y26623520D01*
X10714107Y26636132D01*
X10694401Y26650747D01*
X10676223Y26667223D01*
X10659747Y26685401D01*
X10645132Y26705107D01*
X10632520Y26726150D01*
X10622030Y26748329D01*
X10613765Y26771428D01*
X10607804Y26795227D01*
X10604204Y26819495D01*
X10603000Y26843999D01*
X10603000Y27494001D01*
X10604204Y27518505D01*
X10607804Y27542773D01*
X10613765Y27566572D01*
X10622030Y27589671D01*
X10632520Y27611850D01*
X10645132Y27632893D01*
X10659747Y27652599D01*
X10676223Y27670777D01*
X10694401Y27687253D01*
X10714107Y27701868D01*
X10735150Y27714480D01*
X10757329Y27724970D01*
X10780428Y27733235D01*
X10804227Y27739196D01*
X10828495Y27742796D01*
X10852999Y27744000D01*
X11753001Y27744000D01*
X11777505Y27742796D01*
G37*
G36*
X11777505Y29792796D02*
G01*
X11801773Y29789196D01*
X11825572Y29783235D01*
X11848671Y29774970D01*
X11870850Y29764480D01*
X11891893Y29751868D01*
X11911599Y29737253D01*
X11929777Y29720777D01*
X11946253Y29702599D01*
X11960868Y29682893D01*
X11973480Y29661850D01*
X11983970Y29639671D01*
X11992235Y29616572D01*
X11998196Y29592773D01*
X12001796Y29568505D01*
X12003000Y29544001D01*
X12003000Y28893999D01*
X12001796Y28869495D01*
X11998196Y28845227D01*
X11992235Y28821428D01*
X11983970Y28798329D01*
X11973480Y28776150D01*
X11960868Y28755107D01*
X11946253Y28735401D01*
X11929777Y28717223D01*
X11911599Y28700747D01*
X11891893Y28686132D01*
X11870850Y28673520D01*
X11848671Y28663030D01*
X11825572Y28654765D01*
X11801773Y28648804D01*
X11777505Y28645204D01*
X11753001Y28644000D01*
X10852999Y28644000D01*
X10828495Y28645204D01*
X10804227Y28648804D01*
X10780428Y28654765D01*
X10757329Y28663030D01*
X10735150Y28673520D01*
X10714107Y28686132D01*
X10694401Y28700747D01*
X10676223Y28717223D01*
X10659747Y28735401D01*
X10645132Y28755107D01*
X10632520Y28776150D01*
X10622030Y28798329D01*
X10613765Y28821428D01*
X10607804Y28845227D01*
X10604204Y28869495D01*
X10603000Y28893999D01*
X10603000Y29544001D01*
X10604204Y29568505D01*
X10607804Y29592773D01*
X10613765Y29616572D01*
X10622030Y29639671D01*
X10632520Y29661850D01*
X10645132Y29682893D01*
X10659747Y29702599D01*
X10676223Y29720777D01*
X10694401Y29737253D01*
X10714107Y29751868D01*
X10735150Y29764480D01*
X10757329Y29774970D01*
X10780428Y29783235D01*
X10804227Y29789196D01*
X10828495Y29792796D01*
X10852999Y29794000D01*
X11753001Y29794000D01*
X11777505Y29792796D01*
G37*
G36*
X10507505Y24458796D02*
G01*
X10531773Y24455196D01*
X10555572Y24449235D01*
X10578671Y24440970D01*
X10600850Y24430480D01*
X10621893Y24417868D01*
X10641599Y24403253D01*
X10659777Y24386777D01*
X10676253Y24368599D01*
X10690868Y24348893D01*
X10703480Y24327850D01*
X10713970Y24305671D01*
X10722235Y24282572D01*
X10728196Y24258773D01*
X10731796Y24234505D01*
X10733000Y24210001D01*
X10733000Y23559999D01*
X10731796Y23535495D01*
X10728196Y23511227D01*
X10722235Y23487428D01*
X10713970Y23464329D01*
X10703480Y23442150D01*
X10690868Y23421107D01*
X10676253Y23401401D01*
X10659777Y23383223D01*
X10641599Y23366747D01*
X10621893Y23352132D01*
X10600850Y23339520D01*
X10578671Y23329030D01*
X10555572Y23320765D01*
X10531773Y23314804D01*
X10507505Y23311204D01*
X10483001Y23310000D01*
X9582999Y23310000D01*
X9558495Y23311204D01*
X9534227Y23314804D01*
X9510428Y23320765D01*
X9487329Y23329030D01*
X9465150Y23339520D01*
X9444107Y23352132D01*
X9424401Y23366747D01*
X9406223Y23383223D01*
X9389747Y23401401D01*
X9375132Y23421107D01*
X9362520Y23442150D01*
X9352030Y23464329D01*
X9343765Y23487428D01*
X9337804Y23511227D01*
X9334204Y23535495D01*
X9333000Y23559999D01*
X9333000Y24210001D01*
X9334204Y24234505D01*
X9337804Y24258773D01*
X9343765Y24282572D01*
X9352030Y24305671D01*
X9362520Y24327850D01*
X9375132Y24348893D01*
X9389747Y24368599D01*
X9406223Y24386777D01*
X9424401Y24403253D01*
X9444107Y24417868D01*
X9465150Y24430480D01*
X9487329Y24440970D01*
X9510428Y24449235D01*
X9534227Y24455196D01*
X9558495Y24458796D01*
X9582999Y24460000D01*
X10483001Y24460000D01*
X10507505Y24458796D01*
G37*
G36*
X10507505Y22408796D02*
G01*
X10531773Y22405196D01*
X10555572Y22399235D01*
X10578671Y22390970D01*
X10600850Y22380480D01*
X10621893Y22367868D01*
X10641599Y22353253D01*
X10659777Y22336777D01*
X10676253Y22318599D01*
X10690868Y22298893D01*
X10703480Y22277850D01*
X10713970Y22255671D01*
X10722235Y22232572D01*
X10728196Y22208773D01*
X10731796Y22184505D01*
X10733000Y22160001D01*
X10733000Y21509999D01*
X10731796Y21485495D01*
X10728196Y21461227D01*
X10722235Y21437428D01*
X10713970Y21414329D01*
X10703480Y21392150D01*
X10690868Y21371107D01*
X10676253Y21351401D01*
X10659777Y21333223D01*
X10641599Y21316747D01*
X10621893Y21302132D01*
X10600850Y21289520D01*
X10578671Y21279030D01*
X10555572Y21270765D01*
X10531773Y21264804D01*
X10507505Y21261204D01*
X10483001Y21260000D01*
X9582999Y21260000D01*
X9558495Y21261204D01*
X9534227Y21264804D01*
X9510428Y21270765D01*
X9487329Y21279030D01*
X9465150Y21289520D01*
X9444107Y21302132D01*
X9424401Y21316747D01*
X9406223Y21333223D01*
X9389747Y21351401D01*
X9375132Y21371107D01*
X9362520Y21392150D01*
X9352030Y21414329D01*
X9343765Y21437428D01*
X9337804Y21461227D01*
X9334204Y21485495D01*
X9333000Y21509999D01*
X9333000Y22160001D01*
X9334204Y22184505D01*
X9337804Y22208773D01*
X9343765Y22232572D01*
X9352030Y22255671D01*
X9362520Y22277850D01*
X9375132Y22298893D01*
X9389747Y22318599D01*
X9406223Y22336777D01*
X9424401Y22353253D01*
X9444107Y22367868D01*
X9465150Y22380480D01*
X9487329Y22390970D01*
X9510428Y22399235D01*
X9534227Y22405196D01*
X9558495Y22408796D01*
X9582999Y22410000D01*
X10483001Y22410000D01*
X10507505Y22408796D01*
G37*
D11*
X16948000Y58409000D03*
D12*
X9298000Y58409000D03*
D11*
X15848000Y58409000D03*
X14748000Y58409000D03*
X13648000Y58409000D03*
X12548000Y58409000D03*
X11448000Y58409000D03*
X10348000Y58409000D03*
D13*
X8088000Y58059000D03*
D14*
X19408000Y58284000D03*
D15*
X19583000Y48559000D03*
X19583000Y52259000D03*
D16*
X16083000Y47584000D03*
X10113000Y47584000D03*
D10*
G36*
X11777505Y19632796D02*
G01*
X11801773Y19629196D01*
X11825572Y19623235D01*
X11848671Y19614970D01*
X11870850Y19604480D01*
X11891893Y19591868D01*
X11911599Y19577253D01*
X11929777Y19560777D01*
X11946253Y19542599D01*
X11960868Y19522893D01*
X11973480Y19501850D01*
X11983970Y19479671D01*
X11992235Y19456572D01*
X11998196Y19432773D01*
X12001796Y19408505D01*
X12003000Y19384001D01*
X12003000Y18733999D01*
X12001796Y18709495D01*
X11998196Y18685227D01*
X11992235Y18661428D01*
X11983970Y18638329D01*
X11973480Y18616150D01*
X11960868Y18595107D01*
X11946253Y18575401D01*
X11929777Y18557223D01*
X11911599Y18540747D01*
X11891893Y18526132D01*
X11870850Y18513520D01*
X11848671Y18503030D01*
X11825572Y18494765D01*
X11801773Y18488804D01*
X11777505Y18485204D01*
X11753001Y18484000D01*
X10852999Y18484000D01*
X10828495Y18485204D01*
X10804227Y18488804D01*
X10780428Y18494765D01*
X10757329Y18503030D01*
X10735150Y18513520D01*
X10714107Y18526132D01*
X10694401Y18540747D01*
X10676223Y18557223D01*
X10659747Y18575401D01*
X10645132Y18595107D01*
X10632520Y18616150D01*
X10622030Y18638329D01*
X10613765Y18661428D01*
X10607804Y18685227D01*
X10604204Y18709495D01*
X10603000Y18733999D01*
X10603000Y19384001D01*
X10604204Y19408505D01*
X10607804Y19432773D01*
X10613765Y19456572D01*
X10622030Y19479671D01*
X10632520Y19501850D01*
X10645132Y19522893D01*
X10659747Y19542599D01*
X10676223Y19560777D01*
X10694401Y19577253D01*
X10714107Y19591868D01*
X10735150Y19604480D01*
X10757329Y19614970D01*
X10780428Y19623235D01*
X10804227Y19629196D01*
X10828495Y19632796D01*
X10852999Y19634000D01*
X11753001Y19634000D01*
X11777505Y19632796D01*
G37*
G36*
X11777505Y17582796D02*
G01*
X11801773Y17579196D01*
X11825572Y17573235D01*
X11848671Y17564970D01*
X11870850Y17554480D01*
X11891893Y17541868D01*
X11911599Y17527253D01*
X11929777Y17510777D01*
X11946253Y17492599D01*
X11960868Y17472893D01*
X11973480Y17451850D01*
X11983970Y17429671D01*
X11992235Y17406572D01*
X11998196Y17382773D01*
X12001796Y17358505D01*
X12003000Y17334001D01*
X12003000Y16683999D01*
X12001796Y16659495D01*
X11998196Y16635227D01*
X11992235Y16611428D01*
X11983970Y16588329D01*
X11973480Y16566150D01*
X11960868Y16545107D01*
X11946253Y16525401D01*
X11929777Y16507223D01*
X11911599Y16490747D01*
X11891893Y16476132D01*
X11870850Y16463520D01*
X11848671Y16453030D01*
X11825572Y16444765D01*
X11801773Y16438804D01*
X11777505Y16435204D01*
X11753001Y16434000D01*
X10852999Y16434000D01*
X10828495Y16435204D01*
X10804227Y16438804D01*
X10780428Y16444765D01*
X10757329Y16453030D01*
X10735150Y16463520D01*
X10714107Y16476132D01*
X10694401Y16490747D01*
X10676223Y16507223D01*
X10659747Y16525401D01*
X10645132Y16545107D01*
X10632520Y16566150D01*
X10622030Y16588329D01*
X10613765Y16611428D01*
X10607804Y16635227D01*
X10604204Y16659495D01*
X10603000Y16683999D01*
X10603000Y17334001D01*
X10604204Y17358505D01*
X10607804Y17382773D01*
X10613765Y17406572D01*
X10622030Y17429671D01*
X10632520Y17451850D01*
X10645132Y17472893D01*
X10659747Y17492599D01*
X10676223Y17510777D01*
X10694401Y17527253D01*
X10714107Y17541868D01*
X10735150Y17554480D01*
X10757329Y17564970D01*
X10780428Y17573235D01*
X10804227Y17579196D01*
X10828495Y17582796D01*
X10852999Y17584000D01*
X11753001Y17584000D01*
X11777505Y17582796D01*
G37*
G36*
X18127505Y17582796D02*
G01*
X18151773Y17579196D01*
X18175572Y17573235D01*
X18198671Y17564970D01*
X18220850Y17554480D01*
X18241893Y17541868D01*
X18261599Y17527253D01*
X18279777Y17510777D01*
X18296253Y17492599D01*
X18310868Y17472893D01*
X18323480Y17451850D01*
X18333970Y17429671D01*
X18342235Y17406572D01*
X18348196Y17382773D01*
X18351796Y17358505D01*
X18353000Y17334001D01*
X18353000Y16683999D01*
X18351796Y16659495D01*
X18348196Y16635227D01*
X18342235Y16611428D01*
X18333970Y16588329D01*
X18323480Y16566150D01*
X18310868Y16545107D01*
X18296253Y16525401D01*
X18279777Y16507223D01*
X18261599Y16490747D01*
X18241893Y16476132D01*
X18220850Y16463520D01*
X18198671Y16453030D01*
X18175572Y16444765D01*
X18151773Y16438804D01*
X18127505Y16435204D01*
X18103001Y16434000D01*
X17202999Y16434000D01*
X17178495Y16435204D01*
X17154227Y16438804D01*
X17130428Y16444765D01*
X17107329Y16453030D01*
X17085150Y16463520D01*
X17064107Y16476132D01*
X17044401Y16490747D01*
X17026223Y16507223D01*
X17009747Y16525401D01*
X16995132Y16545107D01*
X16982520Y16566150D01*
X16972030Y16588329D01*
X16963765Y16611428D01*
X16957804Y16635227D01*
X16954204Y16659495D01*
X16953000Y16683999D01*
X16953000Y17334001D01*
X16954204Y17358505D01*
X16957804Y17382773D01*
X16963765Y17406572D01*
X16972030Y17429671D01*
X16982520Y17451850D01*
X16995132Y17472893D01*
X17009747Y17492599D01*
X17026223Y17510777D01*
X17044401Y17527253D01*
X17064107Y17541868D01*
X17085150Y17554480D01*
X17107329Y17564970D01*
X17130428Y17573235D01*
X17154227Y17579196D01*
X17178495Y17582796D01*
X17202999Y17584000D01*
X18103001Y17584000D01*
X18127505Y17582796D01*
G37*
G36*
X18127505Y19632796D02*
G01*
X18151773Y19629196D01*
X18175572Y19623235D01*
X18198671Y19614970D01*
X18220850Y19604480D01*
X18241893Y19591868D01*
X18261599Y19577253D01*
X18279777Y19560777D01*
X18296253Y19542599D01*
X18310868Y19522893D01*
X18323480Y19501850D01*
X18333970Y19479671D01*
X18342235Y19456572D01*
X18348196Y19432773D01*
X18351796Y19408505D01*
X18353000Y19384001D01*
X18353000Y18733999D01*
X18351796Y18709495D01*
X18348196Y18685227D01*
X18342235Y18661428D01*
X18333970Y18638329D01*
X18323480Y18616150D01*
X18310868Y18595107D01*
X18296253Y18575401D01*
X18279777Y18557223D01*
X18261599Y18540747D01*
X18241893Y18526132D01*
X18220850Y18513520D01*
X18198671Y18503030D01*
X18175572Y18494765D01*
X18151773Y18488804D01*
X18127505Y18485204D01*
X18103001Y18484000D01*
X17202999Y18484000D01*
X17178495Y18485204D01*
X17154227Y18488804D01*
X17130428Y18494765D01*
X17107329Y18503030D01*
X17085150Y18513520D01*
X17064107Y18526132D01*
X17044401Y18540747D01*
X17026223Y18557223D01*
X17009747Y18575401D01*
X16995132Y18595107D01*
X16982520Y18616150D01*
X16972030Y18638329D01*
X16963765Y18661428D01*
X16957804Y18685227D01*
X16954204Y18709495D01*
X16953000Y18733999D01*
X16953000Y19384001D01*
X16954204Y19408505D01*
X16957804Y19432773D01*
X16963765Y19456572D01*
X16972030Y19479671D01*
X16982520Y19501850D01*
X16995132Y19522893D01*
X17009747Y19542599D01*
X17026223Y19560777D01*
X17044401Y19577253D01*
X17064107Y19591868D01*
X17085150Y19604480D01*
X17107329Y19614970D01*
X17130428Y19623235D01*
X17154227Y19629196D01*
X17178495Y19632796D01*
X17202999Y19634000D01*
X18103001Y19634000D01*
X18127505Y19632796D01*
G37*
G36*
X18127505Y29792796D02*
G01*
X18151773Y29789196D01*
X18175572Y29783235D01*
X18198671Y29774970D01*
X18220850Y29764480D01*
X18241893Y29751868D01*
X18261599Y29737253D01*
X18279777Y29720777D01*
X18296253Y29702599D01*
X18310868Y29682893D01*
X18323480Y29661850D01*
X18333970Y29639671D01*
X18342235Y29616572D01*
X18348196Y29592773D01*
X18351796Y29568505D01*
X18353000Y29544001D01*
X18353000Y28893999D01*
X18351796Y28869495D01*
X18348196Y28845227D01*
X18342235Y28821428D01*
X18333970Y28798329D01*
X18323480Y28776150D01*
X18310868Y28755107D01*
X18296253Y28735401D01*
X18279777Y28717223D01*
X18261599Y28700747D01*
X18241893Y28686132D01*
X18220850Y28673520D01*
X18198671Y28663030D01*
X18175572Y28654765D01*
X18151773Y28648804D01*
X18127505Y28645204D01*
X18103001Y28644000D01*
X17202999Y28644000D01*
X17178495Y28645204D01*
X17154227Y28648804D01*
X17130428Y28654765D01*
X17107329Y28663030D01*
X17085150Y28673520D01*
X17064107Y28686132D01*
X17044401Y28700747D01*
X17026223Y28717223D01*
X17009747Y28735401D01*
X16995132Y28755107D01*
X16982520Y28776150D01*
X16972030Y28798329D01*
X16963765Y28821428D01*
X16957804Y28845227D01*
X16954204Y28869495D01*
X16953000Y28893999D01*
X16953000Y29544001D01*
X16954204Y29568505D01*
X16957804Y29592773D01*
X16963765Y29616572D01*
X16972030Y29639671D01*
X16982520Y29661850D01*
X16995132Y29682893D01*
X17009747Y29702599D01*
X17026223Y29720777D01*
X17044401Y29737253D01*
X17064107Y29751868D01*
X17085150Y29764480D01*
X17107329Y29774970D01*
X17130428Y29783235D01*
X17154227Y29789196D01*
X17178495Y29792796D01*
X17202999Y29794000D01*
X18103001Y29794000D01*
X18127505Y29792796D01*
G37*
G36*
X18127505Y27742796D02*
G01*
X18151773Y27739196D01*
X18175572Y27733235D01*
X18198671Y27724970D01*
X18220850Y27714480D01*
X18241893Y27701868D01*
X18261599Y27687253D01*
X18279777Y27670777D01*
X18296253Y27652599D01*
X18310868Y27632893D01*
X18323480Y27611850D01*
X18333970Y27589671D01*
X18342235Y27566572D01*
X18348196Y27542773D01*
X18351796Y27518505D01*
X18353000Y27494001D01*
X18353000Y26843999D01*
X18351796Y26819495D01*
X18348196Y26795227D01*
X18342235Y26771428D01*
X18333970Y26748329D01*
X18323480Y26726150D01*
X18310868Y26705107D01*
X18296253Y26685401D01*
X18279777Y26667223D01*
X18261599Y26650747D01*
X18241893Y26636132D01*
X18220850Y26623520D01*
X18198671Y26613030D01*
X18175572Y26604765D01*
X18151773Y26598804D01*
X18127505Y26595204D01*
X18103001Y26594000D01*
X17202999Y26594000D01*
X17178495Y26595204D01*
X17154227Y26598804D01*
X17130428Y26604765D01*
X17107329Y26613030D01*
X17085150Y26623520D01*
X17064107Y26636132D01*
X17044401Y26650747D01*
X17026223Y26667223D01*
X17009747Y26685401D01*
X16995132Y26705107D01*
X16982520Y26726150D01*
X16972030Y26748329D01*
X16963765Y26771428D01*
X16957804Y26795227D01*
X16954204Y26819495D01*
X16953000Y26843999D01*
X16953000Y27494001D01*
X16954204Y27518505D01*
X16957804Y27542773D01*
X16963765Y27566572D01*
X16972030Y27589671D01*
X16982520Y27611850D01*
X16995132Y27632893D01*
X17009747Y27652599D01*
X17026223Y27670777D01*
X17044401Y27687253D01*
X17064107Y27701868D01*
X17085150Y27714480D01*
X17107329Y27724970D01*
X17130428Y27733235D01*
X17154227Y27739196D01*
X17178495Y27742796D01*
X17202999Y27744000D01*
X18103001Y27744000D01*
X18127505Y27742796D01*
G37*
G36*
X14952505Y29792796D02*
G01*
X14976773Y29789196D01*
X15000572Y29783235D01*
X15023671Y29774970D01*
X15045850Y29764480D01*
X15066893Y29751868D01*
X15086599Y29737253D01*
X15104777Y29720777D01*
X15121253Y29702599D01*
X15135868Y29682893D01*
X15148480Y29661850D01*
X15158970Y29639671D01*
X15167235Y29616572D01*
X15173196Y29592773D01*
X15176796Y29568505D01*
X15178000Y29544001D01*
X15178000Y28893999D01*
X15176796Y28869495D01*
X15173196Y28845227D01*
X15167235Y28821428D01*
X15158970Y28798329D01*
X15148480Y28776150D01*
X15135868Y28755107D01*
X15121253Y28735401D01*
X15104777Y28717223D01*
X15086599Y28700747D01*
X15066893Y28686132D01*
X15045850Y28673520D01*
X15023671Y28663030D01*
X15000572Y28654765D01*
X14976773Y28648804D01*
X14952505Y28645204D01*
X14928001Y28644000D01*
X14027999Y28644000D01*
X14003495Y28645204D01*
X13979227Y28648804D01*
X13955428Y28654765D01*
X13932329Y28663030D01*
X13910150Y28673520D01*
X13889107Y28686132D01*
X13869401Y28700747D01*
X13851223Y28717223D01*
X13834747Y28735401D01*
X13820132Y28755107D01*
X13807520Y28776150D01*
X13797030Y28798329D01*
X13788765Y28821428D01*
X13782804Y28845227D01*
X13779204Y28869495D01*
X13778000Y28893999D01*
X13778000Y29544001D01*
X13779204Y29568505D01*
X13782804Y29592773D01*
X13788765Y29616572D01*
X13797030Y29639671D01*
X13807520Y29661850D01*
X13820132Y29682893D01*
X13834747Y29702599D01*
X13851223Y29720777D01*
X13869401Y29737253D01*
X13889107Y29751868D01*
X13910150Y29764480D01*
X13932329Y29774970D01*
X13955428Y29783235D01*
X13979227Y29789196D01*
X14003495Y29792796D01*
X14027999Y29794000D01*
X14928001Y29794000D01*
X14952505Y29792796D01*
G37*
G36*
X14952505Y27742796D02*
G01*
X14976773Y27739196D01*
X15000572Y27733235D01*
X15023671Y27724970D01*
X15045850Y27714480D01*
X15066893Y27701868D01*
X15086599Y27687253D01*
X15104777Y27670777D01*
X15121253Y27652599D01*
X15135868Y27632893D01*
X15148480Y27611850D01*
X15158970Y27589671D01*
X15167235Y27566572D01*
X15173196Y27542773D01*
X15176796Y27518505D01*
X15178000Y27494001D01*
X15178000Y26843999D01*
X15176796Y26819495D01*
X15173196Y26795227D01*
X15167235Y26771428D01*
X15158970Y26748329D01*
X15148480Y26726150D01*
X15135868Y26705107D01*
X15121253Y26685401D01*
X15104777Y26667223D01*
X15086599Y26650747D01*
X15066893Y26636132D01*
X15045850Y26623520D01*
X15023671Y26613030D01*
X15000572Y26604765D01*
X14976773Y26598804D01*
X14952505Y26595204D01*
X14928001Y26594000D01*
X14027999Y26594000D01*
X14003495Y26595204D01*
X13979227Y26598804D01*
X13955428Y26604765D01*
X13932329Y26613030D01*
X13910150Y26623520D01*
X13889107Y26636132D01*
X13869401Y26650747D01*
X13851223Y26667223D01*
X13834747Y26685401D01*
X13820132Y26705107D01*
X13807520Y26726150D01*
X13797030Y26748329D01*
X13788765Y26771428D01*
X13782804Y26795227D01*
X13779204Y26819495D01*
X13778000Y26843999D01*
X13778000Y27494001D01*
X13779204Y27518505D01*
X13782804Y27542773D01*
X13788765Y27566572D01*
X13797030Y27589671D01*
X13807520Y27611850D01*
X13820132Y27632893D01*
X13834747Y27652599D01*
X13851223Y27670777D01*
X13869401Y27687253D01*
X13889107Y27701868D01*
X13910150Y27714480D01*
X13932329Y27724970D01*
X13955428Y27733235D01*
X13979227Y27739196D01*
X14003495Y27742796D01*
X14027999Y27744000D01*
X14928001Y27744000D01*
X14952505Y27742796D01*
G37*
G36*
X18127505Y24458796D02*
G01*
X18151773Y24455196D01*
X18175572Y24449235D01*
X18198671Y24440970D01*
X18220850Y24430480D01*
X18241893Y24417868D01*
X18261599Y24403253D01*
X18279777Y24386777D01*
X18296253Y24368599D01*
X18310868Y24348893D01*
X18323480Y24327850D01*
X18333970Y24305671D01*
X18342235Y24282572D01*
X18348196Y24258773D01*
X18351796Y24234505D01*
X18353000Y24210001D01*
X18353000Y23559999D01*
X18351796Y23535495D01*
X18348196Y23511227D01*
X18342235Y23487428D01*
X18333970Y23464329D01*
X18323480Y23442150D01*
X18310868Y23421107D01*
X18296253Y23401401D01*
X18279777Y23383223D01*
X18261599Y23366747D01*
X18241893Y23352132D01*
X18220850Y23339520D01*
X18198671Y23329030D01*
X18175572Y23320765D01*
X18151773Y23314804D01*
X18127505Y23311204D01*
X18103001Y23310000D01*
X17202999Y23310000D01*
X17178495Y23311204D01*
X17154227Y23314804D01*
X17130428Y23320765D01*
X17107329Y23329030D01*
X17085150Y23339520D01*
X17064107Y23352132D01*
X17044401Y23366747D01*
X17026223Y23383223D01*
X17009747Y23401401D01*
X16995132Y23421107D01*
X16982520Y23442150D01*
X16972030Y23464329D01*
X16963765Y23487428D01*
X16957804Y23511227D01*
X16954204Y23535495D01*
X16953000Y23559999D01*
X16953000Y24210001D01*
X16954204Y24234505D01*
X16957804Y24258773D01*
X16963765Y24282572D01*
X16972030Y24305671D01*
X16982520Y24327850D01*
X16995132Y24348893D01*
X17009747Y24368599D01*
X17026223Y24386777D01*
X17044401Y24403253D01*
X17064107Y24417868D01*
X17085150Y24430480D01*
X17107329Y24440970D01*
X17130428Y24449235D01*
X17154227Y24455196D01*
X17178495Y24458796D01*
X17202999Y24460000D01*
X18103001Y24460000D01*
X18127505Y24458796D01*
G37*
G36*
X18127505Y22408796D02*
G01*
X18151773Y22405196D01*
X18175572Y22399235D01*
X18198671Y22390970D01*
X18220850Y22380480D01*
X18241893Y22367868D01*
X18261599Y22353253D01*
X18279777Y22336777D01*
X18296253Y22318599D01*
X18310868Y22298893D01*
X18323480Y22277850D01*
X18333970Y22255671D01*
X18342235Y22232572D01*
X18348196Y22208773D01*
X18351796Y22184505D01*
X18353000Y22160001D01*
X18353000Y21509999D01*
X18351796Y21485495D01*
X18348196Y21461227D01*
X18342235Y21437428D01*
X18333970Y21414329D01*
X18323480Y21392150D01*
X18310868Y21371107D01*
X18296253Y21351401D01*
X18279777Y21333223D01*
X18261599Y21316747D01*
X18241893Y21302132D01*
X18220850Y21289520D01*
X18198671Y21279030D01*
X18175572Y21270765D01*
X18151773Y21264804D01*
X18127505Y21261204D01*
X18103001Y21260000D01*
X17202999Y21260000D01*
X17178495Y21261204D01*
X17154227Y21264804D01*
X17130428Y21270765D01*
X17107329Y21279030D01*
X17085150Y21289520D01*
X17064107Y21302132D01*
X17044401Y21316747D01*
X17026223Y21333223D01*
X17009747Y21351401D01*
X16995132Y21371107D01*
X16982520Y21392150D01*
X16972030Y21414329D01*
X16963765Y21437428D01*
X16957804Y21461227D01*
X16954204Y21485495D01*
X16953000Y21509999D01*
X16953000Y22160001D01*
X16954204Y22184505D01*
X16957804Y22208773D01*
X16963765Y22232572D01*
X16972030Y22255671D01*
X16982520Y22277850D01*
X16995132Y22298893D01*
X17009747Y22318599D01*
X17026223Y22336777D01*
X17044401Y22353253D01*
X17064107Y22367868D01*
X17085150Y22380480D01*
X17107329Y22390970D01*
X17130428Y22399235D01*
X17154227Y22405196D01*
X17178495Y22408796D01*
X17202999Y22410000D01*
X18103001Y22410000D01*
X18127505Y22408796D01*
G37*
D17*
X6303000Y19624000D03*
X6303000Y21524000D03*
X3603000Y21524000D03*
X3603000Y20574000D03*
X3603000Y19624000D03*
D18*
X12893000Y24464000D03*
X13843000Y24464000D03*
X14793000Y24464000D03*
X14793000Y21764000D03*
X12893000Y21764000D03*
D10*
G36*
X9562703Y41133278D02*
G01*
X9577264Y41131118D01*
X9591543Y41127541D01*
X9605403Y41122582D01*
X9618710Y41116288D01*
X9631336Y41108720D01*
X9643159Y41099952D01*
X9654066Y41090066D01*
X9663952Y41079159D01*
X9672720Y41067336D01*
X9680288Y41054710D01*
X9686582Y41041403D01*
X9691541Y41027543D01*
X9695118Y41013264D01*
X9697278Y40998703D01*
X9698000Y40984000D01*
X9698000Y39684000D01*
X9697278Y39669297D01*
X9695118Y39654736D01*
X9691541Y39640457D01*
X9686582Y39626597D01*
X9680288Y39613290D01*
X9672720Y39600664D01*
X9663952Y39588841D01*
X9654066Y39577934D01*
X9643159Y39568048D01*
X9631336Y39559280D01*
X9618710Y39551712D01*
X9605403Y39545418D01*
X9591543Y39540459D01*
X9577264Y39536882D01*
X9562703Y39534722D01*
X9548000Y39534000D01*
X9248000Y39534000D01*
X9233297Y39534722D01*
X9218736Y39536882D01*
X9204457Y39540459D01*
X9190597Y39545418D01*
X9177290Y39551712D01*
X9164664Y39559280D01*
X9152841Y39568048D01*
X9141934Y39577934D01*
X9132048Y39588841D01*
X9123280Y39600664D01*
X9115712Y39613290D01*
X9109418Y39626597D01*
X9104459Y39640457D01*
X9100882Y39654736D01*
X9098722Y39669297D01*
X9098000Y39684000D01*
X9098000Y40984000D01*
X9098722Y40998703D01*
X9100882Y41013264D01*
X9104459Y41027543D01*
X9109418Y41041403D01*
X9115712Y41054710D01*
X9123280Y41067336D01*
X9132048Y41079159D01*
X9141934Y41090066D01*
X9152841Y41099952D01*
X9164664Y41108720D01*
X9177290Y41116288D01*
X9190597Y41122582D01*
X9204457Y41127541D01*
X9218736Y41131118D01*
X9233297Y41133278D01*
X9248000Y41134000D01*
X9548000Y41134000D01*
X9562703Y41133278D01*
G37*
G36*
X10832703Y41133278D02*
G01*
X10847264Y41131118D01*
X10861543Y41127541D01*
X10875403Y41122582D01*
X10888710Y41116288D01*
X10901336Y41108720D01*
X10913159Y41099952D01*
X10924066Y41090066D01*
X10933952Y41079159D01*
X10942720Y41067336D01*
X10950288Y41054710D01*
X10956582Y41041403D01*
X10961541Y41027543D01*
X10965118Y41013264D01*
X10967278Y40998703D01*
X10968000Y40984000D01*
X10968000Y39684000D01*
X10967278Y39669297D01*
X10965118Y39654736D01*
X10961541Y39640457D01*
X10956582Y39626597D01*
X10950288Y39613290D01*
X10942720Y39600664D01*
X10933952Y39588841D01*
X10924066Y39577934D01*
X10913159Y39568048D01*
X10901336Y39559280D01*
X10888710Y39551712D01*
X10875403Y39545418D01*
X10861543Y39540459D01*
X10847264Y39536882D01*
X10832703Y39534722D01*
X10818000Y39534000D01*
X10518000Y39534000D01*
X10503297Y39534722D01*
X10488736Y39536882D01*
X10474457Y39540459D01*
X10460597Y39545418D01*
X10447290Y39551712D01*
X10434664Y39559280D01*
X10422841Y39568048D01*
X10411934Y39577934D01*
X10402048Y39588841D01*
X10393280Y39600664D01*
X10385712Y39613290D01*
X10379418Y39626597D01*
X10374459Y39640457D01*
X10370882Y39654736D01*
X10368722Y39669297D01*
X10368000Y39684000D01*
X10368000Y40984000D01*
X10368722Y40998703D01*
X10370882Y41013264D01*
X10374459Y41027543D01*
X10379418Y41041403D01*
X10385712Y41054710D01*
X10393280Y41067336D01*
X10402048Y41079159D01*
X10411934Y41090066D01*
X10422841Y41099952D01*
X10434664Y41108720D01*
X10447290Y41116288D01*
X10460597Y41122582D01*
X10474457Y41127541D01*
X10488736Y41131118D01*
X10503297Y41133278D01*
X10518000Y41134000D01*
X10818000Y41134000D01*
X10832703Y41133278D01*
G37*
G36*
X12102703Y41133278D02*
G01*
X12117264Y41131118D01*
X12131543Y41127541D01*
X12145403Y41122582D01*
X12158710Y41116288D01*
X12171336Y41108720D01*
X12183159Y41099952D01*
X12194066Y41090066D01*
X12203952Y41079159D01*
X12212720Y41067336D01*
X12220288Y41054710D01*
X12226582Y41041403D01*
X12231541Y41027543D01*
X12235118Y41013264D01*
X12237278Y40998703D01*
X12238000Y40984000D01*
X12238000Y39684000D01*
X12237278Y39669297D01*
X12235118Y39654736D01*
X12231541Y39640457D01*
X12226582Y39626597D01*
X12220288Y39613290D01*
X12212720Y39600664D01*
X12203952Y39588841D01*
X12194066Y39577934D01*
X12183159Y39568048D01*
X12171336Y39559280D01*
X12158710Y39551712D01*
X12145403Y39545418D01*
X12131543Y39540459D01*
X12117264Y39536882D01*
X12102703Y39534722D01*
X12088000Y39534000D01*
X11788000Y39534000D01*
X11773297Y39534722D01*
X11758736Y39536882D01*
X11744457Y39540459D01*
X11730597Y39545418D01*
X11717290Y39551712D01*
X11704664Y39559280D01*
X11692841Y39568048D01*
X11681934Y39577934D01*
X11672048Y39588841D01*
X11663280Y39600664D01*
X11655712Y39613290D01*
X11649418Y39626597D01*
X11644459Y39640457D01*
X11640882Y39654736D01*
X11638722Y39669297D01*
X11638000Y39684000D01*
X11638000Y40984000D01*
X11638722Y40998703D01*
X11640882Y41013264D01*
X11644459Y41027543D01*
X11649418Y41041403D01*
X11655712Y41054710D01*
X11663280Y41067336D01*
X11672048Y41079159D01*
X11681934Y41090066D01*
X11692841Y41099952D01*
X11704664Y41108720D01*
X11717290Y41116288D01*
X11730597Y41122582D01*
X11744457Y41127541D01*
X11758736Y41131118D01*
X11773297Y41133278D01*
X11788000Y41134000D01*
X12088000Y41134000D01*
X12102703Y41133278D01*
G37*
G36*
X13372703Y41133278D02*
G01*
X13387264Y41131118D01*
X13401543Y41127541D01*
X13415403Y41122582D01*
X13428710Y41116288D01*
X13441336Y41108720D01*
X13453159Y41099952D01*
X13464066Y41090066D01*
X13473952Y41079159D01*
X13482720Y41067336D01*
X13490288Y41054710D01*
X13496582Y41041403D01*
X13501541Y41027543D01*
X13505118Y41013264D01*
X13507278Y40998703D01*
X13508000Y40984000D01*
X13508000Y39684000D01*
X13507278Y39669297D01*
X13505118Y39654736D01*
X13501541Y39640457D01*
X13496582Y39626597D01*
X13490288Y39613290D01*
X13482720Y39600664D01*
X13473952Y39588841D01*
X13464066Y39577934D01*
X13453159Y39568048D01*
X13441336Y39559280D01*
X13428710Y39551712D01*
X13415403Y39545418D01*
X13401543Y39540459D01*
X13387264Y39536882D01*
X13372703Y39534722D01*
X13358000Y39534000D01*
X13058000Y39534000D01*
X13043297Y39534722D01*
X13028736Y39536882D01*
X13014457Y39540459D01*
X13000597Y39545418D01*
X12987290Y39551712D01*
X12974664Y39559280D01*
X12962841Y39568048D01*
X12951934Y39577934D01*
X12942048Y39588841D01*
X12933280Y39600664D01*
X12925712Y39613290D01*
X12919418Y39626597D01*
X12914459Y39640457D01*
X12910882Y39654736D01*
X12908722Y39669297D01*
X12908000Y39684000D01*
X12908000Y40984000D01*
X12908722Y40998703D01*
X12910882Y41013264D01*
X12914459Y41027543D01*
X12919418Y41041403D01*
X12925712Y41054710D01*
X12933280Y41067336D01*
X12942048Y41079159D01*
X12951934Y41090066D01*
X12962841Y41099952D01*
X12974664Y41108720D01*
X12987290Y41116288D01*
X13000597Y41122582D01*
X13014457Y41127541D01*
X13028736Y41131118D01*
X13043297Y41133278D01*
X13058000Y41134000D01*
X13358000Y41134000D01*
X13372703Y41133278D01*
G37*
G36*
X14642703Y41133278D02*
G01*
X14657264Y41131118D01*
X14671543Y41127541D01*
X14685403Y41122582D01*
X14698710Y41116288D01*
X14711336Y41108720D01*
X14723159Y41099952D01*
X14734066Y41090066D01*
X14743952Y41079159D01*
X14752720Y41067336D01*
X14760288Y41054710D01*
X14766582Y41041403D01*
X14771541Y41027543D01*
X14775118Y41013264D01*
X14777278Y40998703D01*
X14778000Y40984000D01*
X14778000Y39684000D01*
X14777278Y39669297D01*
X14775118Y39654736D01*
X14771541Y39640457D01*
X14766582Y39626597D01*
X14760288Y39613290D01*
X14752720Y39600664D01*
X14743952Y39588841D01*
X14734066Y39577934D01*
X14723159Y39568048D01*
X14711336Y39559280D01*
X14698710Y39551712D01*
X14685403Y39545418D01*
X14671543Y39540459D01*
X14657264Y39536882D01*
X14642703Y39534722D01*
X14628000Y39534000D01*
X14328000Y39534000D01*
X14313297Y39534722D01*
X14298736Y39536882D01*
X14284457Y39540459D01*
X14270597Y39545418D01*
X14257290Y39551712D01*
X14244664Y39559280D01*
X14232841Y39568048D01*
X14221934Y39577934D01*
X14212048Y39588841D01*
X14203280Y39600664D01*
X14195712Y39613290D01*
X14189418Y39626597D01*
X14184459Y39640457D01*
X14180882Y39654736D01*
X14178722Y39669297D01*
X14178000Y39684000D01*
X14178000Y40984000D01*
X14178722Y40998703D01*
X14180882Y41013264D01*
X14184459Y41027543D01*
X14189418Y41041403D01*
X14195712Y41054710D01*
X14203280Y41067336D01*
X14212048Y41079159D01*
X14221934Y41090066D01*
X14232841Y41099952D01*
X14244664Y41108720D01*
X14257290Y41116288D01*
X14270597Y41122582D01*
X14284457Y41127541D01*
X14298736Y41131118D01*
X14313297Y41133278D01*
X14328000Y41134000D01*
X14628000Y41134000D01*
X14642703Y41133278D01*
G37*
G36*
X15912703Y41133278D02*
G01*
X15927264Y41131118D01*
X15941543Y41127541D01*
X15955403Y41122582D01*
X15968710Y41116288D01*
X15981336Y41108720D01*
X15993159Y41099952D01*
X16004066Y41090066D01*
X16013952Y41079159D01*
X16022720Y41067336D01*
X16030288Y41054710D01*
X16036582Y41041403D01*
X16041541Y41027543D01*
X16045118Y41013264D01*
X16047278Y40998703D01*
X16048000Y40984000D01*
X16048000Y39684000D01*
X16047278Y39669297D01*
X16045118Y39654736D01*
X16041541Y39640457D01*
X16036582Y39626597D01*
X16030288Y39613290D01*
X16022720Y39600664D01*
X16013952Y39588841D01*
X16004066Y39577934D01*
X15993159Y39568048D01*
X15981336Y39559280D01*
X15968710Y39551712D01*
X15955403Y39545418D01*
X15941543Y39540459D01*
X15927264Y39536882D01*
X15912703Y39534722D01*
X15898000Y39534000D01*
X15598000Y39534000D01*
X15583297Y39534722D01*
X15568736Y39536882D01*
X15554457Y39540459D01*
X15540597Y39545418D01*
X15527290Y39551712D01*
X15514664Y39559280D01*
X15502841Y39568048D01*
X15491934Y39577934D01*
X15482048Y39588841D01*
X15473280Y39600664D01*
X15465712Y39613290D01*
X15459418Y39626597D01*
X15454459Y39640457D01*
X15450882Y39654736D01*
X15448722Y39669297D01*
X15448000Y39684000D01*
X15448000Y40984000D01*
X15448722Y40998703D01*
X15450882Y41013264D01*
X15454459Y41027543D01*
X15459418Y41041403D01*
X15465712Y41054710D01*
X15473280Y41067336D01*
X15482048Y41079159D01*
X15491934Y41090066D01*
X15502841Y41099952D01*
X15514664Y41108720D01*
X15527290Y41116288D01*
X15540597Y41122582D01*
X15554457Y41127541D01*
X15568736Y41131118D01*
X15583297Y41133278D01*
X15598000Y41134000D01*
X15898000Y41134000D01*
X15912703Y41133278D01*
G37*
G36*
X17182703Y41133278D02*
G01*
X17197264Y41131118D01*
X17211543Y41127541D01*
X17225403Y41122582D01*
X17238710Y41116288D01*
X17251336Y41108720D01*
X17263159Y41099952D01*
X17274066Y41090066D01*
X17283952Y41079159D01*
X17292720Y41067336D01*
X17300288Y41054710D01*
X17306582Y41041403D01*
X17311541Y41027543D01*
X17315118Y41013264D01*
X17317278Y40998703D01*
X17318000Y40984000D01*
X17318000Y39684000D01*
X17317278Y39669297D01*
X17315118Y39654736D01*
X17311541Y39640457D01*
X17306582Y39626597D01*
X17300288Y39613290D01*
X17292720Y39600664D01*
X17283952Y39588841D01*
X17274066Y39577934D01*
X17263159Y39568048D01*
X17251336Y39559280D01*
X17238710Y39551712D01*
X17225403Y39545418D01*
X17211543Y39540459D01*
X17197264Y39536882D01*
X17182703Y39534722D01*
X17168000Y39534000D01*
X16868000Y39534000D01*
X16853297Y39534722D01*
X16838736Y39536882D01*
X16824457Y39540459D01*
X16810597Y39545418D01*
X16797290Y39551712D01*
X16784664Y39559280D01*
X16772841Y39568048D01*
X16761934Y39577934D01*
X16752048Y39588841D01*
X16743280Y39600664D01*
X16735712Y39613290D01*
X16729418Y39626597D01*
X16724459Y39640457D01*
X16720882Y39654736D01*
X16718722Y39669297D01*
X16718000Y39684000D01*
X16718000Y40984000D01*
X16718722Y40998703D01*
X16720882Y41013264D01*
X16724459Y41027543D01*
X16729418Y41041403D01*
X16735712Y41054710D01*
X16743280Y41067336D01*
X16752048Y41079159D01*
X16761934Y41090066D01*
X16772841Y41099952D01*
X16784664Y41108720D01*
X16797290Y41116288D01*
X16810597Y41122582D01*
X16824457Y41127541D01*
X16838736Y41131118D01*
X16853297Y41133278D01*
X16868000Y41134000D01*
X17168000Y41134000D01*
X17182703Y41133278D01*
G37*
G36*
X18452703Y41133278D02*
G01*
X18467264Y41131118D01*
X18481543Y41127541D01*
X18495403Y41122582D01*
X18508710Y41116288D01*
X18521336Y41108720D01*
X18533159Y41099952D01*
X18544066Y41090066D01*
X18553952Y41079159D01*
X18562720Y41067336D01*
X18570288Y41054710D01*
X18576582Y41041403D01*
X18581541Y41027543D01*
X18585118Y41013264D01*
X18587278Y40998703D01*
X18588000Y40984000D01*
X18588000Y39684000D01*
X18587278Y39669297D01*
X18585118Y39654736D01*
X18581541Y39640457D01*
X18576582Y39626597D01*
X18570288Y39613290D01*
X18562720Y39600664D01*
X18553952Y39588841D01*
X18544066Y39577934D01*
X18533159Y39568048D01*
X18521336Y39559280D01*
X18508710Y39551712D01*
X18495403Y39545418D01*
X18481543Y39540459D01*
X18467264Y39536882D01*
X18452703Y39534722D01*
X18438000Y39534000D01*
X18138000Y39534000D01*
X18123297Y39534722D01*
X18108736Y39536882D01*
X18094457Y39540459D01*
X18080597Y39545418D01*
X18067290Y39551712D01*
X18054664Y39559280D01*
X18042841Y39568048D01*
X18031934Y39577934D01*
X18022048Y39588841D01*
X18013280Y39600664D01*
X18005712Y39613290D01*
X17999418Y39626597D01*
X17994459Y39640457D01*
X17990882Y39654736D01*
X17988722Y39669297D01*
X17988000Y39684000D01*
X17988000Y40984000D01*
X17988722Y40998703D01*
X17990882Y41013264D01*
X17994459Y41027543D01*
X17999418Y41041403D01*
X18005712Y41054710D01*
X18013280Y41067336D01*
X18022048Y41079159D01*
X18031934Y41090066D01*
X18042841Y41099952D01*
X18054664Y41108720D01*
X18067290Y41116288D01*
X18080597Y41122582D01*
X18094457Y41127541D01*
X18108736Y41131118D01*
X18123297Y41133278D01*
X18138000Y41134000D01*
X18438000Y41134000D01*
X18452703Y41133278D01*
G37*
G36*
X18452703Y34633278D02*
G01*
X18467264Y34631118D01*
X18481543Y34627541D01*
X18495403Y34622582D01*
X18508710Y34616288D01*
X18521336Y34608720D01*
X18533159Y34599952D01*
X18544066Y34590066D01*
X18553952Y34579159D01*
X18562720Y34567336D01*
X18570288Y34554710D01*
X18576582Y34541403D01*
X18581541Y34527543D01*
X18585118Y34513264D01*
X18587278Y34498703D01*
X18588000Y34484000D01*
X18588000Y33184000D01*
X18587278Y33169297D01*
X18585118Y33154736D01*
X18581541Y33140457D01*
X18576582Y33126597D01*
X18570288Y33113290D01*
X18562720Y33100664D01*
X18553952Y33088841D01*
X18544066Y33077934D01*
X18533159Y33068048D01*
X18521336Y33059280D01*
X18508710Y33051712D01*
X18495403Y33045418D01*
X18481543Y33040459D01*
X18467264Y33036882D01*
X18452703Y33034722D01*
X18438000Y33034000D01*
X18138000Y33034000D01*
X18123297Y33034722D01*
X18108736Y33036882D01*
X18094457Y33040459D01*
X18080597Y33045418D01*
X18067290Y33051712D01*
X18054664Y33059280D01*
X18042841Y33068048D01*
X18031934Y33077934D01*
X18022048Y33088841D01*
X18013280Y33100664D01*
X18005712Y33113290D01*
X17999418Y33126597D01*
X17994459Y33140457D01*
X17990882Y33154736D01*
X17988722Y33169297D01*
X17988000Y33184000D01*
X17988000Y34484000D01*
X17988722Y34498703D01*
X17990882Y34513264D01*
X17994459Y34527543D01*
X17999418Y34541403D01*
X18005712Y34554710D01*
X18013280Y34567336D01*
X18022048Y34579159D01*
X18031934Y34590066D01*
X18042841Y34599952D01*
X18054664Y34608720D01*
X18067290Y34616288D01*
X18080597Y34622582D01*
X18094457Y34627541D01*
X18108736Y34631118D01*
X18123297Y34633278D01*
X18138000Y34634000D01*
X18438000Y34634000D01*
X18452703Y34633278D01*
G37*
G36*
X17182703Y34633278D02*
G01*
X17197264Y34631118D01*
X17211543Y34627541D01*
X17225403Y34622582D01*
X17238710Y34616288D01*
X17251336Y34608720D01*
X17263159Y34599952D01*
X17274066Y34590066D01*
X17283952Y34579159D01*
X17292720Y34567336D01*
X17300288Y34554710D01*
X17306582Y34541403D01*
X17311541Y34527543D01*
X17315118Y34513264D01*
X17317278Y34498703D01*
X17318000Y34484000D01*
X17318000Y33184000D01*
X17317278Y33169297D01*
X17315118Y33154736D01*
X17311541Y33140457D01*
X17306582Y33126597D01*
X17300288Y33113290D01*
X17292720Y33100664D01*
X17283952Y33088841D01*
X17274066Y33077934D01*
X17263159Y33068048D01*
X17251336Y33059280D01*
X17238710Y33051712D01*
X17225403Y33045418D01*
X17211543Y33040459D01*
X17197264Y33036882D01*
X17182703Y33034722D01*
X17168000Y33034000D01*
X16868000Y33034000D01*
X16853297Y33034722D01*
X16838736Y33036882D01*
X16824457Y33040459D01*
X16810597Y33045418D01*
X16797290Y33051712D01*
X16784664Y33059280D01*
X16772841Y33068048D01*
X16761934Y33077934D01*
X16752048Y33088841D01*
X16743280Y33100664D01*
X16735712Y33113290D01*
X16729418Y33126597D01*
X16724459Y33140457D01*
X16720882Y33154736D01*
X16718722Y33169297D01*
X16718000Y33184000D01*
X16718000Y34484000D01*
X16718722Y34498703D01*
X16720882Y34513264D01*
X16724459Y34527543D01*
X16729418Y34541403D01*
X16735712Y34554710D01*
X16743280Y34567336D01*
X16752048Y34579159D01*
X16761934Y34590066D01*
X16772841Y34599952D01*
X16784664Y34608720D01*
X16797290Y34616288D01*
X16810597Y34622582D01*
X16824457Y34627541D01*
X16838736Y34631118D01*
X16853297Y34633278D01*
X16868000Y34634000D01*
X17168000Y34634000D01*
X17182703Y34633278D01*
G37*
G36*
X15912703Y34633278D02*
G01*
X15927264Y34631118D01*
X15941543Y34627541D01*
X15955403Y34622582D01*
X15968710Y34616288D01*
X15981336Y34608720D01*
X15993159Y34599952D01*
X16004066Y34590066D01*
X16013952Y34579159D01*
X16022720Y34567336D01*
X16030288Y34554710D01*
X16036582Y34541403D01*
X16041541Y34527543D01*
X16045118Y34513264D01*
X16047278Y34498703D01*
X16048000Y34484000D01*
X16048000Y33184000D01*
X16047278Y33169297D01*
X16045118Y33154736D01*
X16041541Y33140457D01*
X16036582Y33126597D01*
X16030288Y33113290D01*
X16022720Y33100664D01*
X16013952Y33088841D01*
X16004066Y33077934D01*
X15993159Y33068048D01*
X15981336Y33059280D01*
X15968710Y33051712D01*
X15955403Y33045418D01*
X15941543Y33040459D01*
X15927264Y33036882D01*
X15912703Y33034722D01*
X15898000Y33034000D01*
X15598000Y33034000D01*
X15583297Y33034722D01*
X15568736Y33036882D01*
X15554457Y33040459D01*
X15540597Y33045418D01*
X15527290Y33051712D01*
X15514664Y33059280D01*
X15502841Y33068048D01*
X15491934Y33077934D01*
X15482048Y33088841D01*
X15473280Y33100664D01*
X15465712Y33113290D01*
X15459418Y33126597D01*
X15454459Y33140457D01*
X15450882Y33154736D01*
X15448722Y33169297D01*
X15448000Y33184000D01*
X15448000Y34484000D01*
X15448722Y34498703D01*
X15450882Y34513264D01*
X15454459Y34527543D01*
X15459418Y34541403D01*
X15465712Y34554710D01*
X15473280Y34567336D01*
X15482048Y34579159D01*
X15491934Y34590066D01*
X15502841Y34599952D01*
X15514664Y34608720D01*
X15527290Y34616288D01*
X15540597Y34622582D01*
X15554457Y34627541D01*
X15568736Y34631118D01*
X15583297Y34633278D01*
X15598000Y34634000D01*
X15898000Y34634000D01*
X15912703Y34633278D01*
G37*
G36*
X14642703Y34633278D02*
G01*
X14657264Y34631118D01*
X14671543Y34627541D01*
X14685403Y34622582D01*
X14698710Y34616288D01*
X14711336Y34608720D01*
X14723159Y34599952D01*
X14734066Y34590066D01*
X14743952Y34579159D01*
X14752720Y34567336D01*
X14760288Y34554710D01*
X14766582Y34541403D01*
X14771541Y34527543D01*
X14775118Y34513264D01*
X14777278Y34498703D01*
X14778000Y34484000D01*
X14778000Y33184000D01*
X14777278Y33169297D01*
X14775118Y33154736D01*
X14771541Y33140457D01*
X14766582Y33126597D01*
X14760288Y33113290D01*
X14752720Y33100664D01*
X14743952Y33088841D01*
X14734066Y33077934D01*
X14723159Y33068048D01*
X14711336Y33059280D01*
X14698710Y33051712D01*
X14685403Y33045418D01*
X14671543Y33040459D01*
X14657264Y33036882D01*
X14642703Y33034722D01*
X14628000Y33034000D01*
X14328000Y33034000D01*
X14313297Y33034722D01*
X14298736Y33036882D01*
X14284457Y33040459D01*
X14270597Y33045418D01*
X14257290Y33051712D01*
X14244664Y33059280D01*
X14232841Y33068048D01*
X14221934Y33077934D01*
X14212048Y33088841D01*
X14203280Y33100664D01*
X14195712Y33113290D01*
X14189418Y33126597D01*
X14184459Y33140457D01*
X14180882Y33154736D01*
X14178722Y33169297D01*
X14178000Y33184000D01*
X14178000Y34484000D01*
X14178722Y34498703D01*
X14180882Y34513264D01*
X14184459Y34527543D01*
X14189418Y34541403D01*
X14195712Y34554710D01*
X14203280Y34567336D01*
X14212048Y34579159D01*
X14221934Y34590066D01*
X14232841Y34599952D01*
X14244664Y34608720D01*
X14257290Y34616288D01*
X14270597Y34622582D01*
X14284457Y34627541D01*
X14298736Y34631118D01*
X14313297Y34633278D01*
X14328000Y34634000D01*
X14628000Y34634000D01*
X14642703Y34633278D01*
G37*
G36*
X13372703Y34633278D02*
G01*
X13387264Y34631118D01*
X13401543Y34627541D01*
X13415403Y34622582D01*
X13428710Y34616288D01*
X13441336Y34608720D01*
X13453159Y34599952D01*
X13464066Y34590066D01*
X13473952Y34579159D01*
X13482720Y34567336D01*
X13490288Y34554710D01*
X13496582Y34541403D01*
X13501541Y34527543D01*
X13505118Y34513264D01*
X13507278Y34498703D01*
X13508000Y34484000D01*
X13508000Y33184000D01*
X13507278Y33169297D01*
X13505118Y33154736D01*
X13501541Y33140457D01*
X13496582Y33126597D01*
X13490288Y33113290D01*
X13482720Y33100664D01*
X13473952Y33088841D01*
X13464066Y33077934D01*
X13453159Y33068048D01*
X13441336Y33059280D01*
X13428710Y33051712D01*
X13415403Y33045418D01*
X13401543Y33040459D01*
X13387264Y33036882D01*
X13372703Y33034722D01*
X13358000Y33034000D01*
X13058000Y33034000D01*
X13043297Y33034722D01*
X13028736Y33036882D01*
X13014457Y33040459D01*
X13000597Y33045418D01*
X12987290Y33051712D01*
X12974664Y33059280D01*
X12962841Y33068048D01*
X12951934Y33077934D01*
X12942048Y33088841D01*
X12933280Y33100664D01*
X12925712Y33113290D01*
X12919418Y33126597D01*
X12914459Y33140457D01*
X12910882Y33154736D01*
X12908722Y33169297D01*
X12908000Y33184000D01*
X12908000Y34484000D01*
X12908722Y34498703D01*
X12910882Y34513264D01*
X12914459Y34527543D01*
X12919418Y34541403D01*
X12925712Y34554710D01*
X12933280Y34567336D01*
X12942048Y34579159D01*
X12951934Y34590066D01*
X12962841Y34599952D01*
X12974664Y34608720D01*
X12987290Y34616288D01*
X13000597Y34622582D01*
X13014457Y34627541D01*
X13028736Y34631118D01*
X13043297Y34633278D01*
X13058000Y34634000D01*
X13358000Y34634000D01*
X13372703Y34633278D01*
G37*
G36*
X12102703Y34633278D02*
G01*
X12117264Y34631118D01*
X12131543Y34627541D01*
X12145403Y34622582D01*
X12158710Y34616288D01*
X12171336Y34608720D01*
X12183159Y34599952D01*
X12194066Y34590066D01*
X12203952Y34579159D01*
X12212720Y34567336D01*
X12220288Y34554710D01*
X12226582Y34541403D01*
X12231541Y34527543D01*
X12235118Y34513264D01*
X12237278Y34498703D01*
X12238000Y34484000D01*
X12238000Y33184000D01*
X12237278Y33169297D01*
X12235118Y33154736D01*
X12231541Y33140457D01*
X12226582Y33126597D01*
X12220288Y33113290D01*
X12212720Y33100664D01*
X12203952Y33088841D01*
X12194066Y33077934D01*
X12183159Y33068048D01*
X12171336Y33059280D01*
X12158710Y33051712D01*
X12145403Y33045418D01*
X12131543Y33040459D01*
X12117264Y33036882D01*
X12102703Y33034722D01*
X12088000Y33034000D01*
X11788000Y33034000D01*
X11773297Y33034722D01*
X11758736Y33036882D01*
X11744457Y33040459D01*
X11730597Y33045418D01*
X11717290Y33051712D01*
X11704664Y33059280D01*
X11692841Y33068048D01*
X11681934Y33077934D01*
X11672048Y33088841D01*
X11663280Y33100664D01*
X11655712Y33113290D01*
X11649418Y33126597D01*
X11644459Y33140457D01*
X11640882Y33154736D01*
X11638722Y33169297D01*
X11638000Y33184000D01*
X11638000Y34484000D01*
X11638722Y34498703D01*
X11640882Y34513264D01*
X11644459Y34527543D01*
X11649418Y34541403D01*
X11655712Y34554710D01*
X11663280Y34567336D01*
X11672048Y34579159D01*
X11681934Y34590066D01*
X11692841Y34599952D01*
X11704664Y34608720D01*
X11717290Y34616288D01*
X11730597Y34622582D01*
X11744457Y34627541D01*
X11758736Y34631118D01*
X11773297Y34633278D01*
X11788000Y34634000D01*
X12088000Y34634000D01*
X12102703Y34633278D01*
G37*
G36*
X10832703Y34633278D02*
G01*
X10847264Y34631118D01*
X10861543Y34627541D01*
X10875403Y34622582D01*
X10888710Y34616288D01*
X10901336Y34608720D01*
X10913159Y34599952D01*
X10924066Y34590066D01*
X10933952Y34579159D01*
X10942720Y34567336D01*
X10950288Y34554710D01*
X10956582Y34541403D01*
X10961541Y34527543D01*
X10965118Y34513264D01*
X10967278Y34498703D01*
X10968000Y34484000D01*
X10968000Y33184000D01*
X10967278Y33169297D01*
X10965118Y33154736D01*
X10961541Y33140457D01*
X10956582Y33126597D01*
X10950288Y33113290D01*
X10942720Y33100664D01*
X10933952Y33088841D01*
X10924066Y33077934D01*
X10913159Y33068048D01*
X10901336Y33059280D01*
X10888710Y33051712D01*
X10875403Y33045418D01*
X10861543Y33040459D01*
X10847264Y33036882D01*
X10832703Y33034722D01*
X10818000Y33034000D01*
X10518000Y33034000D01*
X10503297Y33034722D01*
X10488736Y33036882D01*
X10474457Y33040459D01*
X10460597Y33045418D01*
X10447290Y33051712D01*
X10434664Y33059280D01*
X10422841Y33068048D01*
X10411934Y33077934D01*
X10402048Y33088841D01*
X10393280Y33100664D01*
X10385712Y33113290D01*
X10379418Y33126597D01*
X10374459Y33140457D01*
X10370882Y33154736D01*
X10368722Y33169297D01*
X10368000Y33184000D01*
X10368000Y34484000D01*
X10368722Y34498703D01*
X10370882Y34513264D01*
X10374459Y34527543D01*
X10379418Y34541403D01*
X10385712Y34554710D01*
X10393280Y34567336D01*
X10402048Y34579159D01*
X10411934Y34590066D01*
X10422841Y34599952D01*
X10434664Y34608720D01*
X10447290Y34616288D01*
X10460597Y34622582D01*
X10474457Y34627541D01*
X10488736Y34631118D01*
X10503297Y34633278D01*
X10518000Y34634000D01*
X10818000Y34634000D01*
X10832703Y34633278D01*
G37*
G36*
X9562703Y34633278D02*
G01*
X9577264Y34631118D01*
X9591543Y34627541D01*
X9605403Y34622582D01*
X9618710Y34616288D01*
X9631336Y34608720D01*
X9643159Y34599952D01*
X9654066Y34590066D01*
X9663952Y34579159D01*
X9672720Y34567336D01*
X9680288Y34554710D01*
X9686582Y34541403D01*
X9691541Y34527543D01*
X9695118Y34513264D01*
X9697278Y34498703D01*
X9698000Y34484000D01*
X9698000Y33184000D01*
X9697278Y33169297D01*
X9695118Y33154736D01*
X9691541Y33140457D01*
X9686582Y33126597D01*
X9680288Y33113290D01*
X9672720Y33100664D01*
X9663952Y33088841D01*
X9654066Y33077934D01*
X9643159Y33068048D01*
X9631336Y33059280D01*
X9618710Y33051712D01*
X9605403Y33045418D01*
X9591543Y33040459D01*
X9577264Y33036882D01*
X9562703Y33034722D01*
X9548000Y33034000D01*
X9248000Y33034000D01*
X9233297Y33034722D01*
X9218736Y33036882D01*
X9204457Y33040459D01*
X9190597Y33045418D01*
X9177290Y33051712D01*
X9164664Y33059280D01*
X9152841Y33068048D01*
X9141934Y33077934D01*
X9132048Y33088841D01*
X9123280Y33100664D01*
X9115712Y33113290D01*
X9109418Y33126597D01*
X9104459Y33140457D01*
X9100882Y33154736D01*
X9098722Y33169297D01*
X9098000Y33184000D01*
X9098000Y34484000D01*
X9098722Y34498703D01*
X9100882Y34513264D01*
X9104459Y34527543D01*
X9109418Y34541403D01*
X9115712Y34554710D01*
X9123280Y34567336D01*
X9132048Y34579159D01*
X9141934Y34590066D01*
X9152841Y34599952D01*
X9164664Y34608720D01*
X9177290Y34616288D01*
X9190597Y34622582D01*
X9204457Y34627541D01*
X9218736Y34631118D01*
X9233297Y34633278D01*
X9248000Y34634000D01*
X9548000Y34634000D01*
X9562703Y34633278D01*
G37*
M02*
