M48
; DRILL file {KiCad (5.1.5)-3} date 03/05/2020 13:26:18
; FORMAT={-:-/ absolute / inch / decimal}
; #@! TF.CreationDate,2020-05-03T13:26:18+02:00
; #@! TF.GenerationSoftware,Kicad,Pcbnew,(5.1.5)-3
; #@! TF.FileFunction,Plated,1,2,PTH
FMAT,2
INCH
T1C0.0157
T2C0.0197
T3C0.0343
%
G90
G05
T1
X0.08Y0.81
X0.08Y0.67
X0.28Y1.02
X0.2904Y0.4696
X0.33Y0.81
X0.39Y1.02
X0.41Y0.55
X0.42Y1.76
X0.43Y2.18
X0.47Y1.23
X0.494Y2.126
X0.51Y1.02
X0.56Y1.76
X0.59Y0.43
X0.62Y1.7
X0.62Y0.25
X0.63Y1.02
X0.65Y1.51
X0.69Y1.45
X0.87Y2.15
X0.87Y0.81
X0.89Y1.37
X0.93Y1.02
X1.02Y1.4
T2
X0.08Y0.485
X0.08Y0.4358
T3
X0.7913Y0.46
X0.7913Y0.36
T0
M30
